G04 #@! TF.GenerationSoftware,KiCad,Pcbnew,8.0.4-8.0.4-0~ubuntu22.04.1*
G04 #@! TF.CreationDate,2024-08-18T17:23:00+12:00*
G04 #@! TF.ProjectId,PicoPLC,5069636f-504c-4432-9e6b-696361645f70,rev?*
G04 #@! TF.SameCoordinates,Original*
G04 #@! TF.FileFunction,Profile,NP*
%FSLAX46Y46*%
G04 Gerber Fmt 4.6, Leading zero omitted, Abs format (unit mm)*
G04 Created by KiCad (PCBNEW 8.0.4-8.0.4-0~ubuntu22.04.1) date 2024-08-18 17:23:00*
%MOMM*%
%LPD*%
G01*
G04 APERTURE LIST*
G04 #@! TA.AperFunction,Profile*
%ADD10C,0.050000*%
G04 #@! TD*
G04 APERTURE END LIST*
D10*
X177501234Y-109070000D02*
G75*
G02*
X179705000Y-106866234I2203766J0D01*
G01*
X182880000Y-140970000D02*
G75*
G02*
X181610000Y-140970000I-635000J0D01*
G01*
X148875000Y-121385000D02*
G75*
G02*
X148875000Y-119383600I0J1000700D01*
G01*
X204185000Y-121385000D02*
G75*
G02*
X206390000Y-123590000I0J-2205000D01*
G01*
X83487080Y-109220000D02*
X83487080Y-111620781D01*
X194945000Y-120015000D02*
X194945000Y-140970000D01*
X140671234Y-111593020D02*
G75*
G02*
X136825000Y-115439234I-3846234J20D01*
G01*
X93580000Y-115499254D02*
G75*
G02*
X89834846Y-111754134I0J3745154D01*
G01*
X79374038Y-123590000D02*
X79374038Y-141160481D01*
X201295000Y-120015000D02*
X201295000Y-140970000D01*
X112045000Y-119383607D02*
G75*
G02*
X116204062Y-123590000I-47600J-4206393D01*
G01*
X56898000Y-144577500D02*
X236891000Y-144577500D01*
X148825000Y-115409254D02*
G75*
G02*
X145079846Y-111664134I0J3745154D01*
G01*
X118410000Y-113467861D02*
X111995000Y-113467861D01*
X200025000Y-120015000D02*
X200025000Y-140970000D01*
X157147080Y-109100000D02*
G75*
G02*
X161290000Y-104957080I4142920J0D01*
G01*
X83487080Y-111620781D02*
G75*
G02*
X81580000Y-113527880I-1907080J-19D01*
G01*
X198120000Y-106836234D02*
G75*
G02*
X200324966Y-109041234I0J-2204966D01*
G01*
X193977080Y-111440781D02*
G75*
G02*
X192070000Y-113347880I-1907080J-19D01*
G01*
X69215000Y-107046234D02*
G75*
G02*
X71419966Y-109250000I1200J-2203766D01*
G01*
X67011234Y-109250000D02*
X67011234Y-111713020D01*
X200025000Y-120015000D02*
G75*
G02*
X201295000Y-120015000I635000J0D01*
G01*
X148825000Y-113407861D02*
G75*
G02*
X147034039Y-111616899I0J1790961D01*
G01*
X84455000Y-120015000D02*
X84455000Y-140970000D01*
X159086234Y-109100000D02*
G75*
G02*
X161290000Y-106896234I2203766J0D01*
G01*
X93580000Y-113497861D02*
G75*
G02*
X91789039Y-111706899I0J1790961D01*
G01*
X72390000Y-120015000D02*
X72390000Y-140970000D01*
X192070000Y-113347861D02*
X185655000Y-113347861D01*
X204185000Y-119383607D02*
G75*
G02*
X208344062Y-123590000I-47600J-4206393D01*
G01*
X171449038Y-141160481D02*
G75*
G02*
X169494880Y-141160481I-977079J-3D01*
G01*
X101902080Y-111590781D02*
G75*
G02*
X99995000Y-113497880I-1907080J-19D01*
G01*
X124460000Y-106956234D02*
G75*
G02*
X126664966Y-109160000I1200J-2203766D01*
G01*
X71420000Y-109250000D02*
X71419880Y-111784134D01*
X181910000Y-109070000D02*
X181909880Y-111604134D01*
X97789038Y-123590000D02*
X97789038Y-141160481D01*
X89535000Y-120015000D02*
G75*
G02*
X90805000Y-120015000I635000J0D01*
G01*
X95835000Y-123590000D02*
X95834880Y-141160481D01*
X111995000Y-113467861D02*
G75*
G02*
X110204039Y-111676899I0J1790961D01*
G01*
X121285000Y-120015000D02*
X121285000Y-140970000D01*
X122256234Y-109160000D02*
G75*
G02*
X124460000Y-106956234I2203766J0D01*
G01*
X148875000Y-119383607D02*
G75*
G02*
X153034062Y-123590000I-47600J-4206393D01*
G01*
X111995000Y-115469254D02*
G75*
G02*
X108249846Y-111724134I0J3745154D01*
G01*
X163195000Y-120015000D02*
X163195000Y-140970000D01*
X130410000Y-113437861D02*
G75*
G02*
X128619039Y-111646899I0J1790961D01*
G01*
X107950000Y-120015000D02*
G75*
G02*
X109220000Y-120015000I635000J0D01*
G01*
X85426234Y-109220000D02*
G75*
G02*
X87630000Y-107016234I2203766J0D01*
G01*
X185655000Y-113347861D02*
G75*
G02*
X183864039Y-111556899I0J1790961D01*
G01*
X99995000Y-113497861D02*
X93580000Y-113497861D01*
X89535000Y-120015000D02*
X89535000Y-140970000D01*
X65072080Y-111650781D02*
G75*
G02*
X63165000Y-113557880I-1907080J-19D01*
G01*
X196215000Y-140970000D02*
G75*
G02*
X194945000Y-140970000I-635000J0D01*
G01*
X159086234Y-111563020D02*
G75*
G02*
X155240000Y-115409234I-3846234J20D01*
G01*
X181610000Y-120015000D02*
X181610000Y-140970000D01*
X130460000Y-119383607D02*
G75*
G02*
X134619062Y-123590000I-47600J-4206393D01*
G01*
X111995000Y-115469254D02*
X118410000Y-115469254D01*
X165449038Y-109116118D02*
X165449038Y-111586899D01*
X195916234Y-109040000D02*
X195916234Y-111503020D01*
X67310000Y-120015000D02*
X67310000Y-140970000D01*
X159086234Y-109100000D02*
X159086234Y-111563020D01*
X167240000Y-115379254D02*
X173655000Y-115379254D01*
X93630000Y-121385000D02*
G75*
G02*
X93630000Y-119383600I0J1000700D01*
G01*
X122555000Y-120015000D02*
X122555000Y-140970000D01*
X185770000Y-121385000D02*
G75*
G02*
X187975000Y-123590000I0J-2205000D01*
G01*
X120317080Y-109160000D02*
X120317080Y-111560781D01*
X195916234Y-111503020D02*
G75*
G02*
X192070000Y-115349234I-3846234J20D01*
G01*
X110204038Y-109206118D02*
X110204038Y-111676899D01*
X175562080Y-109070000D02*
G75*
G02*
X179705000Y-104927080I4142920J0D01*
G01*
X207645000Y-113317861D02*
X204070000Y-113317861D01*
X176530000Y-120015000D02*
X176530000Y-140970000D01*
X126665000Y-109160000D02*
X126664880Y-111694134D01*
X120317080Y-111560781D02*
G75*
G02*
X118410000Y-113467880I-1907080J-19D01*
G01*
X204070000Y-115319254D02*
X207645000Y-115319254D01*
X207645000Y-113317861D02*
G75*
G02*
X207645000Y-115319339I0J-1000739D01*
G01*
X65072080Y-109250000D02*
G75*
G02*
X69215000Y-105107080I4142920J0D01*
G01*
X109220000Y-140970000D02*
G75*
G02*
X107950000Y-140970000I-635000J0D01*
G01*
X138732080Y-111530781D02*
G75*
G02*
X136825000Y-113437880I-1907080J-19D01*
G01*
X179705000Y-104927080D02*
G75*
G02*
X183864020Y-109086118I0J-4159020D01*
G01*
X181610000Y-120015000D02*
G75*
G02*
X182880000Y-120015000I635000J0D01*
G01*
X106045000Y-105047080D02*
G75*
G02*
X110204020Y-109206118I0J-4159020D01*
G01*
X144780000Y-120015000D02*
G75*
G02*
X146050000Y-120015000I635000J0D01*
G01*
X103841234Y-109190000D02*
X103841234Y-111653020D01*
X66040000Y-120015000D02*
X66040000Y-140970000D01*
X193977080Y-109040000D02*
G75*
G02*
X198120000Y-104897080I4142920J0D01*
G01*
X130460000Y-121385000D02*
G75*
G02*
X130460000Y-119383600I0J1000700D01*
G01*
X177501234Y-111533020D02*
G75*
G02*
X173655000Y-115379234I-3846234J20D01*
G01*
X130460000Y-121385000D02*
G75*
G02*
X132665000Y-123590000I0J-2205000D01*
G01*
X114250000Y-123590000D02*
X114249880Y-141160481D01*
X161290000Y-106896234D02*
G75*
G02*
X163494966Y-109100000I1200J-2203766D01*
G01*
X208344038Y-123590000D02*
X208344038Y-141160481D01*
X122555000Y-140970000D02*
G75*
G02*
X121285000Y-140970000I-635000J0D01*
G01*
X89835000Y-109220000D02*
X89834880Y-111754134D01*
X144780000Y-120015000D02*
X144780000Y-140970000D01*
X202279038Y-109040000D02*
X202279038Y-111526899D01*
X206390000Y-123590000D02*
X206389880Y-141160481D01*
X204070000Y-113317861D02*
G75*
G02*
X202279039Y-111526899I0J1790961D01*
G01*
X75165000Y-115529254D02*
X81580000Y-115529254D01*
X75215000Y-119383607D02*
G75*
G02*
X79374062Y-123590000I-47600J-4206393D01*
G01*
X236891000Y-58577896D02*
X56891000Y-58577896D01*
X69215000Y-105107080D02*
G75*
G02*
X73374020Y-109266118I0J-4159020D01*
G01*
X167290000Y-119383607D02*
G75*
G02*
X171449062Y-123590000I-47600J-4206393D01*
G01*
X204070000Y-115319254D02*
G75*
G02*
X200324846Y-111574134I0J3745154D01*
G01*
X187975000Y-123590000D02*
X187974880Y-141160481D01*
X81580000Y-113527861D02*
X75165000Y-113527861D01*
X189929038Y-123590000D02*
X189929038Y-141160481D01*
X128619038Y-109176118D02*
X128619038Y-111646899D01*
X87630000Y-105077080D02*
G75*
G02*
X91789020Y-109236118I0J-4159020D01*
G01*
X151080000Y-123590000D02*
X151079880Y-141160481D01*
X177501234Y-109070000D02*
X177501234Y-111533020D01*
X93630000Y-121385000D02*
G75*
G02*
X95835000Y-123590000I0J-2205000D01*
G01*
X189929038Y-141160481D02*
G75*
G02*
X187974880Y-141160481I-977079J-3D01*
G01*
X146050000Y-140970000D02*
G75*
G02*
X144780000Y-140970000I-635000J0D01*
G01*
X106045000Y-106985000D02*
G75*
G02*
X108250000Y-109190000I0J-2205000D01*
G01*
X103841234Y-109190000D02*
G75*
G02*
X106045000Y-106985034I2204966J0D01*
G01*
X71120000Y-120015000D02*
G75*
G02*
X72390000Y-120015000I635000J0D01*
G01*
X84455000Y-120015000D02*
G75*
G02*
X85725000Y-120015000I635000J0D01*
G01*
X107950000Y-120015000D02*
X107950000Y-140970000D01*
X159385000Y-120015000D02*
X159385000Y-140970000D01*
X85426234Y-111683020D02*
G75*
G02*
X81580000Y-115529234I-3846234J20D01*
G01*
X136825000Y-113437861D02*
X130410000Y-113437861D01*
X175562080Y-109070000D02*
X175562080Y-111470781D01*
X134619038Y-141160481D02*
G75*
G02*
X132664880Y-141160481I-977079J-3D01*
G01*
X130410000Y-115439254D02*
X136825000Y-115439254D01*
X200325000Y-109041234D02*
X200324880Y-111574134D01*
X101902080Y-109190000D02*
X101902080Y-111590781D01*
X195916234Y-109040000D02*
G75*
G02*
X198120000Y-106836234I2203766J0D01*
G01*
X140970000Y-120015000D02*
X140970000Y-140970000D01*
X83487080Y-109220000D02*
G75*
G02*
X87630000Y-105077080I4142920J0D01*
G01*
X121285000Y-120015000D02*
G75*
G02*
X122555000Y-120015000I635000J0D01*
G01*
X75165000Y-115529254D02*
G75*
G02*
X71419846Y-111784134I0J3745154D01*
G01*
X67011234Y-111713020D02*
G75*
G02*
X63165000Y-115559234I-3846234J20D01*
G01*
X124460000Y-105017080D02*
G75*
G02*
X128619020Y-109176118I0J-4159020D01*
G01*
X185770000Y-121385000D02*
G75*
G02*
X185770000Y-119383600I0J1000700D01*
G01*
X164465000Y-140970000D02*
G75*
G02*
X163195000Y-140970000I-635000J0D01*
G01*
X140671234Y-109130000D02*
X140671234Y-111593020D01*
X161290000Y-104957080D02*
G75*
G02*
X165449020Y-109116118I0J-4159020D01*
G01*
X140671234Y-109130000D02*
G75*
G02*
X142875000Y-106925034I2204966J0D01*
G01*
X87630000Y-107016234D02*
G75*
G02*
X89834966Y-109220000I1200J-2203766D01*
G01*
X90805000Y-120015000D02*
X90805000Y-140970000D01*
X120317080Y-109160000D02*
G75*
G02*
X124460000Y-105017080I4142920J0D01*
G01*
X185655000Y-115349254D02*
X192070000Y-115349254D01*
X79374038Y-141160481D02*
G75*
G02*
X77419880Y-141160481I-977079J-3D01*
G01*
X153034038Y-123590000D02*
X153034038Y-141160481D01*
X93630000Y-119383607D02*
G75*
G02*
X97789062Y-123590000I-47600J-4206393D01*
G01*
X85725000Y-140970000D02*
G75*
G02*
X84455000Y-140970000I-635000J0D01*
G01*
X132665000Y-123590000D02*
X132664880Y-141160481D01*
X103841234Y-111653020D02*
G75*
G02*
X99995000Y-115499234I-3846234J20D01*
G01*
X108250000Y-109190000D02*
X108249880Y-111724134D01*
X75165000Y-113527861D02*
G75*
G02*
X73374039Y-111736899I0J1790961D01*
G01*
X104140000Y-120015000D02*
X104140000Y-140970000D01*
X157147080Y-111500781D02*
G75*
G02*
X155240000Y-113407880I-1907080J-19D01*
G01*
X91789038Y-109236118D02*
X91789038Y-111706899D01*
X90805000Y-140970000D02*
G75*
G02*
X89535000Y-140970000I-635000J0D01*
G01*
X122256234Y-109160000D02*
X122256234Y-111623020D01*
X101902080Y-109190000D02*
G75*
G02*
X106045000Y-105047080I4142920J0D01*
G01*
X158115000Y-120015000D02*
G75*
G02*
X159385000Y-120015000I635000J0D01*
G01*
X201295000Y-140970000D02*
G75*
G02*
X200025000Y-140970000I-635000J0D01*
G01*
X185655000Y-115349254D02*
G75*
G02*
X181909846Y-111604134I0J3745154D01*
G01*
X148825000Y-115409254D02*
X155240000Y-115409254D01*
X167240000Y-115379254D02*
G75*
G02*
X163494846Y-111634134I0J3745154D01*
G01*
X179705000Y-106866234D02*
G75*
G02*
X181909966Y-109070000I1200J-2203766D01*
G01*
X109220000Y-120015000D02*
X109220000Y-140970000D01*
X173655000Y-113377861D02*
X167240000Y-113377861D01*
X97789038Y-141160481D02*
G75*
G02*
X95834880Y-141160481I-977079J-3D01*
G01*
X102870000Y-120015000D02*
X102870000Y-140970000D01*
X147034038Y-109146118D02*
X147034038Y-111616899D01*
X196215000Y-120015000D02*
X196215000Y-140970000D01*
X153034038Y-141160481D02*
G75*
G02*
X151079880Y-141160481I-977079J-3D01*
G01*
X126365000Y-120015000D02*
G75*
G02*
X127635000Y-120015000I635000J0D01*
G01*
X63165000Y-115559254D02*
G75*
G02*
X63165000Y-113557946I0J1000654D01*
G01*
X130410000Y-115439254D02*
G75*
G02*
X126664846Y-111694134I0J3745154D01*
G01*
X127635000Y-140970000D02*
G75*
G02*
X126365000Y-140970000I-635000J0D01*
G01*
X140970000Y-140970000D02*
G75*
G02*
X139700000Y-140970000I-635000J0D01*
G01*
X66040000Y-120015000D02*
G75*
G02*
X67310000Y-120015000I635000J0D01*
G01*
X85426234Y-109220000D02*
X85426234Y-111683020D01*
X104140000Y-140970000D02*
G75*
G02*
X102870000Y-140970000I-635000J0D01*
G01*
X145080000Y-109130000D02*
X145079880Y-111664134D01*
X67011234Y-109250000D02*
G75*
G02*
X69215000Y-107046234I2203766J0D01*
G01*
X85725000Y-120015000D02*
X85725000Y-140970000D01*
X139700000Y-120015000D02*
G75*
G02*
X140970000Y-120015000I635000J0D01*
G01*
X138732080Y-109130000D02*
X138732080Y-111530781D01*
X182880000Y-120015000D02*
X182880000Y-140970000D01*
X127635000Y-120015000D02*
X127635000Y-140970000D01*
X167240000Y-113377861D02*
G75*
G02*
X165449039Y-111586899I0J1790961D01*
G01*
X177800000Y-140970000D02*
G75*
G02*
X176530000Y-140970000I-635000J0D01*
G01*
X177800000Y-120015000D02*
X177800000Y-140970000D01*
X67310000Y-140970000D02*
G75*
G02*
X66040000Y-140970000I-635000J0D01*
G01*
X157147080Y-109100000D02*
X157147080Y-111500781D01*
X77420000Y-123590000D02*
X77419880Y-141160481D01*
X163495000Y-109100000D02*
X163494880Y-111634134D01*
X176530000Y-120015000D02*
G75*
G02*
X177800000Y-120015000I635000J0D01*
G01*
X171449038Y-123590000D02*
X171449038Y-141160481D01*
X65072080Y-109250000D02*
X65072080Y-111650781D01*
X116204038Y-141160481D02*
G75*
G02*
X114249880Y-141160481I-977079J-3D01*
G01*
X183864038Y-109086118D02*
X183864038Y-111556899D01*
X72390000Y-140970000D02*
G75*
G02*
X71120000Y-140970000I-635000J0D01*
G01*
X75215000Y-121385000D02*
G75*
G02*
X77420000Y-123590000I0J-2205000D01*
G01*
X159385000Y-140970000D02*
G75*
G02*
X158115000Y-140970000I-635000J0D01*
G01*
X116204038Y-123590000D02*
X116204038Y-141160481D01*
X167290000Y-121385000D02*
G75*
G02*
X169495000Y-123590000I0J-2205000D01*
G01*
X93580000Y-115499254D02*
X99995000Y-115499254D01*
X56898000Y-144577500D02*
X56891000Y-58577896D01*
X167290000Y-121385000D02*
G75*
G02*
X167290000Y-119383600I0J1000700D01*
G01*
X142875000Y-106925000D02*
G75*
G02*
X145080000Y-109130000I0J-2205000D01*
G01*
X198120000Y-104897080D02*
G75*
G02*
X202279051Y-109040000I16100J-4142920D01*
G01*
X155240000Y-113407861D02*
X148825000Y-113407861D01*
X138732080Y-109130000D02*
G75*
G02*
X142875000Y-104987080I4142920J0D01*
G01*
X126365000Y-120015000D02*
X126365000Y-140970000D01*
X71120000Y-120015000D02*
X71120000Y-140970000D01*
X169495000Y-123590000D02*
X169494880Y-141160481D01*
X204185000Y-121385000D02*
G75*
G02*
X204185000Y-119383600I0J1000700D01*
G01*
X122256234Y-111623020D02*
G75*
G02*
X118410000Y-115469234I-3846234J20D01*
G01*
X194945000Y-120015000D02*
G75*
G02*
X196215000Y-120015000I635000J0D01*
G01*
X158115000Y-120015000D02*
X158115000Y-140970000D01*
X146050000Y-120015000D02*
X146050000Y-140970000D01*
X163195000Y-120015000D02*
G75*
G02*
X164465000Y-120015000I635000J0D01*
G01*
X164465000Y-120015000D02*
X164465000Y-140970000D01*
X193977080Y-109040000D02*
X193977080Y-111440781D01*
X208344038Y-141160481D02*
G75*
G02*
X206389880Y-141160481I-977079J-3D01*
G01*
X102870000Y-120015000D02*
G75*
G02*
X104140000Y-120015000I635000J0D01*
G01*
X148875000Y-121385000D02*
G75*
G02*
X151080000Y-123590000I0J-2205000D01*
G01*
X75215000Y-121385000D02*
G75*
G02*
X75215000Y-119383600I0J1000700D01*
G01*
X134619038Y-123590000D02*
X134619038Y-141160481D01*
X73374038Y-109266118D02*
X73374038Y-111736899D01*
X175562080Y-111470781D02*
G75*
G02*
X173655000Y-113377880I-1907080J-19D01*
G01*
X112045000Y-121385000D02*
G75*
G02*
X114250000Y-123590000I0J-2205000D01*
G01*
X142875000Y-104987080D02*
G75*
G02*
X147034020Y-109146118I0J-4159020D01*
G01*
X112045000Y-121385000D02*
G75*
G02*
X112045000Y-119383600I0J1000700D01*
G01*
X185770000Y-119383607D02*
G75*
G02*
X189929062Y-123590000I-47600J-4206393D01*
G01*
X139700000Y-120015000D02*
X139700000Y-140970000D01*
X236891000Y-144577500D02*
X236891000Y-58577896D01*
M02*
