G04 #@! TF.GenerationSoftware,KiCad,Pcbnew,8.0.4-8.0.4-0~ubuntu22.04.1*
G04 #@! TF.CreationDate,2024-08-18T17:22:59+12:00*
G04 #@! TF.ProjectId,PicoPLC,5069636f-504c-4432-9e6b-696361645f70,rev?*
G04 #@! TF.SameCoordinates,Original*
G04 #@! TF.FileFunction,Copper,L1,Top*
G04 #@! TF.FilePolarity,Positive*
%FSLAX46Y46*%
G04 Gerber Fmt 4.6, Leading zero omitted, Abs format (unit mm)*
G04 Created by KiCad (PCBNEW 8.0.4-8.0.4-0~ubuntu22.04.1) date 2024-08-18 17:22:59*
%MOMM*%
%LPD*%
G01*
G04 APERTURE LIST*
G04 Aperture macros list*
%AMRoundRect*
0 Rectangle with rounded corners*
0 $1 Rounding radius*
0 $2 $3 $4 $5 $6 $7 $8 $9 X,Y pos of 4 corners*
0 Add a 4 corners polygon primitive as box body*
4,1,4,$2,$3,$4,$5,$6,$7,$8,$9,$2,$3,0*
0 Add four circle primitives for the rounded corners*
1,1,$1+$1,$2,$3*
1,1,$1+$1,$4,$5*
1,1,$1+$1,$6,$7*
1,1,$1+$1,$8,$9*
0 Add four rect primitives between the rounded corners*
20,1,$1+$1,$2,$3,$4,$5,0*
20,1,$1+$1,$4,$5,$6,$7,0*
20,1,$1+$1,$6,$7,$8,$9,0*
20,1,$1+$1,$8,$9,$2,$3,0*%
G04 Aperture macros list end*
G04 #@! TA.AperFunction,ComponentPad*
%ADD10C,6.000000*%
G04 #@! TD*
G04 #@! TA.AperFunction,SMDPad,CuDef*
%ADD11RoundRect,0.243750X-0.456250X0.243750X-0.456250X-0.243750X0.456250X-0.243750X0.456250X0.243750X0*%
G04 #@! TD*
G04 #@! TA.AperFunction,SMDPad,CuDef*
%ADD12RoundRect,0.250000X-0.650000X0.325000X-0.650000X-0.325000X0.650000X-0.325000X0.650000X0.325000X0*%
G04 #@! TD*
G04 #@! TA.AperFunction,SMDPad,CuDef*
%ADD13RoundRect,0.250000X-0.450000X0.262500X-0.450000X-0.262500X0.450000X-0.262500X0.450000X0.262500X0*%
G04 #@! TD*
G04 #@! TA.AperFunction,SMDPad,CuDef*
%ADD14R,5.000000X1.800000*%
G04 #@! TD*
G04 #@! TA.AperFunction,ComponentPad*
%ADD15RoundRect,0.359195X-0.890805X-0.890805X0.890805X-0.890805X0.890805X0.890805X-0.890805X0.890805X0*%
G04 #@! TD*
G04 #@! TA.AperFunction,ComponentPad*
%ADD16C,2.500000*%
G04 #@! TD*
G04 #@! TA.AperFunction,SMDPad,CuDef*
%ADD17RoundRect,0.225000X-0.375000X0.225000X-0.375000X-0.225000X0.375000X-0.225000X0.375000X0.225000X0*%
G04 #@! TD*
G04 #@! TA.AperFunction,SMDPad,CuDef*
%ADD18RoundRect,0.250000X-0.475000X0.250000X-0.475000X-0.250000X0.475000X-0.250000X0.475000X0.250000X0*%
G04 #@! TD*
G04 #@! TA.AperFunction,SMDPad,CuDef*
%ADD19RoundRect,0.250000X0.475000X-0.250000X0.475000X0.250000X-0.475000X0.250000X-0.475000X-0.250000X0*%
G04 #@! TD*
G04 #@! TA.AperFunction,SMDPad,CuDef*
%ADD20RoundRect,0.250000X0.450000X-0.262500X0.450000X0.262500X-0.450000X0.262500X-0.450000X-0.262500X0*%
G04 #@! TD*
G04 #@! TA.AperFunction,ComponentPad*
%ADD21RoundRect,0.359195X0.890805X0.890805X-0.890805X0.890805X-0.890805X-0.890805X0.890805X-0.890805X0*%
G04 #@! TD*
G04 #@! TA.AperFunction,ComponentPad*
%ADD22O,1.700000X1.700000*%
G04 #@! TD*
G04 #@! TA.AperFunction,SMDPad,CuDef*
%ADD23R,1.700000X3.500000*%
G04 #@! TD*
G04 #@! TA.AperFunction,ComponentPad*
%ADD24R,1.700000X1.700000*%
G04 #@! TD*
G04 #@! TA.AperFunction,ComponentPad*
%ADD25C,3.000000*%
G04 #@! TD*
G04 #@! TA.AperFunction,SMDPad,CuDef*
%ADD26RoundRect,0.062500X-0.362500X-0.062500X0.362500X-0.062500X0.362500X0.062500X-0.362500X0.062500X0*%
G04 #@! TD*
G04 #@! TA.AperFunction,SMDPad,CuDef*
%ADD27R,1.650000X2.380000*%
G04 #@! TD*
G04 #@! TA.AperFunction,SMDPad,CuDef*
%ADD28RoundRect,0.250000X1.500000X0.550000X-1.500000X0.550000X-1.500000X-0.550000X1.500000X-0.550000X0*%
G04 #@! TD*
G04 #@! TA.AperFunction,SMDPad,CuDef*
%ADD29R,4.800000X2.250000*%
G04 #@! TD*
G04 #@! TA.AperFunction,SMDPad,CuDef*
%ADD30R,1.800000X2.500000*%
G04 #@! TD*
G04 #@! TA.AperFunction,SMDPad,CuDef*
%ADD31RoundRect,0.250000X0.550000X-1.500000X0.550000X1.500000X-0.550000X1.500000X-0.550000X-1.500000X0*%
G04 #@! TD*
G04 #@! TA.AperFunction,ComponentPad*
%ADD32R,1.500000X2.300000*%
G04 #@! TD*
G04 #@! TA.AperFunction,ComponentPad*
%ADD33O,1.500000X2.300000*%
G04 #@! TD*
G04 #@! TA.AperFunction,SMDPad,CuDef*
%ADD34RoundRect,0.250000X0.650000X-0.325000X0.650000X0.325000X-0.650000X0.325000X-0.650000X-0.325000X0*%
G04 #@! TD*
G04 #@! TA.AperFunction,ComponentPad*
%ADD35O,3.500000X2.000000*%
G04 #@! TD*
G04 #@! TA.AperFunction,ComponentPad*
%ADD36O,2.000000X3.300000*%
G04 #@! TD*
G04 #@! TA.AperFunction,ComponentPad*
%ADD37R,2.000000X4.000000*%
G04 #@! TD*
G04 #@! TA.AperFunction,ComponentPad*
%ADD38C,1.750000*%
G04 #@! TD*
G04 #@! TA.AperFunction,ComponentPad*
%ADD39C,2.100000*%
G04 #@! TD*
G04 #@! TA.AperFunction,SMDPad,CuDef*
%ADD40RoundRect,0.243750X0.456250X-0.243750X0.456250X0.243750X-0.456250X0.243750X-0.456250X-0.243750X0*%
G04 #@! TD*
G04 #@! TA.AperFunction,SMDPad,CuDef*
%ADD41RoundRect,0.100000X-0.712500X-0.100000X0.712500X-0.100000X0.712500X0.100000X-0.712500X0.100000X0*%
G04 #@! TD*
G04 #@! TA.AperFunction,ViaPad*
%ADD42C,0.800000*%
G04 #@! TD*
G04 #@! TA.AperFunction,Conductor*
%ADD43C,1.000000*%
G04 #@! TD*
G04 #@! TA.AperFunction,Conductor*
%ADD44C,1.500000*%
G04 #@! TD*
G04 #@! TA.AperFunction,Conductor*
%ADD45C,0.500000*%
G04 #@! TD*
G04 #@! TA.AperFunction,Conductor*
%ADD46C,0.350000*%
G04 #@! TD*
G04 #@! TA.AperFunction,Conductor*
%ADD47C,0.300000*%
G04 #@! TD*
G04 #@! TA.AperFunction,Conductor*
%ADD48C,1.700000*%
G04 #@! TD*
G04 #@! TA.AperFunction,Conductor*
%ADD49C,0.400000*%
G04 #@! TD*
G04 #@! TA.AperFunction,Conductor*
%ADD50C,2.000000*%
G04 #@! TD*
G04 #@! TA.AperFunction,Conductor*
%ADD51C,0.800000*%
G04 #@! TD*
G04 #@! TA.AperFunction,Conductor*
%ADD52C,0.700000*%
G04 #@! TD*
G04 #@! TA.AperFunction,Conductor*
%ADD53C,0.250000*%
G04 #@! TD*
G04 #@! TA.AperFunction,Conductor*
%ADD54C,0.370000*%
G04 #@! TD*
G04 #@! TA.AperFunction,Conductor*
%ADD55C,2.500000*%
G04 #@! TD*
G04 #@! TA.AperFunction,Conductor*
%ADD56C,0.600000*%
G04 #@! TD*
G04 APERTURE END LIST*
D10*
X60371000Y-76200000D03*
D11*
X106045000Y-101190000D03*
X106045000Y-103065000D03*
X233345000Y-103065000D03*
X233345000Y-101190000D03*
X85510000Y-76885000D03*
X85510000Y-78760000D03*
D12*
X180340000Y-91875000D03*
X180340000Y-94825000D03*
D13*
X81580000Y-101190000D03*
X81580000Y-103015000D03*
X138765000Y-85182500D03*
X138765000Y-87007500D03*
D11*
X69215000Y-101190000D03*
X69215000Y-103065000D03*
D14*
X158750000Y-77470000D03*
X158750000Y-81170000D03*
D13*
X111125000Y-85182500D03*
X111125000Y-87007500D03*
X133985000Y-76890000D03*
X133985000Y-78715000D03*
D15*
X153035000Y-63500000D03*
X153035000Y-71120000D03*
D16*
X158115000Y-63500000D03*
X158115000Y-71120000D03*
X163195000Y-63500000D03*
X163195000Y-71120000D03*
X168275000Y-63499604D03*
X168275000Y-71119604D03*
X173355000Y-63500000D03*
X173355000Y-71120000D03*
D17*
X113665000Y-76152500D03*
X113665000Y-79452500D03*
D18*
X154305000Y-85032500D03*
X154305000Y-86932500D03*
D13*
X64435000Y-85170000D03*
X64435000Y-86995000D03*
D11*
X95670000Y-76885000D03*
X95670000Y-78760000D03*
D13*
X83185000Y-76885000D03*
X83185000Y-78710000D03*
D11*
X105830000Y-76885000D03*
X105830000Y-78760000D03*
D19*
X171450000Y-103090000D03*
X171450000Y-101190000D03*
D17*
X146685000Y-76152500D03*
X146685000Y-79452500D03*
D20*
X221153000Y-105040000D03*
X221153000Y-103215000D03*
D21*
X227630000Y-139670000D03*
X227630000Y-132050000D03*
D16*
X222550000Y-139670000D03*
X222550000Y-132050000D03*
X217470000Y-139670000D03*
X217470000Y-132050000D03*
X212390000Y-139670396D03*
X212390000Y-132050396D03*
D15*
X215265000Y-63500000D03*
X215265000Y-71120000D03*
D16*
X220345000Y-63500000D03*
X220345000Y-71120000D03*
X225425000Y-63500000D03*
X225425000Y-71120000D03*
X230505000Y-63499604D03*
X230505000Y-71119604D03*
D19*
X119380000Y-103065000D03*
X119380000Y-101165000D03*
D20*
X80589154Y-94812500D03*
X80589154Y-92987500D03*
D13*
X111125000Y-76890000D03*
X111125000Y-78715000D03*
D11*
X124460000Y-101190000D03*
X124460000Y-103065000D03*
D22*
X234315000Y-78150000D03*
D23*
X234315000Y-77250000D03*
D22*
X231775000Y-78150000D03*
D23*
X231775000Y-77250000D03*
D24*
X229235000Y-78150000D03*
D23*
X229235000Y-77250000D03*
D22*
X226695000Y-78150000D03*
D23*
X226695000Y-77250000D03*
D22*
X224155000Y-78150000D03*
D23*
X224155000Y-77250000D03*
D22*
X221615000Y-78150000D03*
D23*
X221615000Y-77250000D03*
D22*
X219075000Y-78150000D03*
D23*
X219075000Y-77250000D03*
D24*
X216535000Y-78150000D03*
D23*
X216535000Y-77250000D03*
D22*
X213995000Y-78150000D03*
D23*
X213995000Y-77250000D03*
D22*
X211455000Y-78150000D03*
D23*
X211455000Y-77250000D03*
D22*
X208915000Y-78150000D03*
D23*
X208915000Y-77250000D03*
D22*
X206375000Y-78150000D03*
D23*
X206375000Y-77250000D03*
D24*
X203835000Y-78150000D03*
D23*
X203835000Y-77250000D03*
D22*
X201295000Y-78150000D03*
D23*
X201295000Y-77250000D03*
D22*
X198755000Y-78150000D03*
D23*
X198755000Y-77250000D03*
D22*
X196215000Y-78150000D03*
D23*
X196215000Y-77250000D03*
D22*
X193675000Y-78150000D03*
D23*
X193675000Y-77250000D03*
D24*
X191135000Y-78150000D03*
D23*
X191135000Y-77250000D03*
D22*
X188595000Y-78150000D03*
D23*
X188595000Y-77250000D03*
D22*
X186055000Y-78150000D03*
D23*
X186055000Y-77250000D03*
D22*
X186055000Y-95930000D03*
D23*
X186055000Y-96830000D03*
D22*
X188595000Y-95930000D03*
D23*
X188595000Y-96830000D03*
D24*
X191135000Y-95930000D03*
D23*
X191135000Y-96830000D03*
D22*
X193675000Y-95930000D03*
D23*
X193675000Y-96830000D03*
D22*
X196215000Y-95930000D03*
D23*
X196215000Y-96830000D03*
D22*
X198755000Y-95930000D03*
D23*
X198755000Y-96830000D03*
D22*
X201295000Y-95930000D03*
D23*
X201295000Y-96830000D03*
D24*
X203835000Y-95930000D03*
D23*
X203835000Y-96830000D03*
D22*
X206375000Y-95930000D03*
D23*
X206375000Y-96830000D03*
D22*
X208915000Y-95930000D03*
D23*
X208915000Y-96830000D03*
D22*
X211455000Y-95930000D03*
D23*
X211455000Y-96830000D03*
D22*
X213995000Y-95930000D03*
D23*
X213995000Y-96830000D03*
D24*
X216535000Y-95930000D03*
D23*
X216535000Y-96830000D03*
D22*
X219075000Y-95930000D03*
D23*
X219075000Y-96830000D03*
D22*
X221615000Y-95930000D03*
D23*
X221615000Y-96830000D03*
D22*
X224155000Y-95930000D03*
D23*
X224155000Y-96830000D03*
D22*
X226695000Y-95930000D03*
D23*
X226695000Y-96830000D03*
D24*
X229235000Y-95930000D03*
D23*
X229235000Y-96830000D03*
D22*
X231775000Y-95930000D03*
D23*
X231775000Y-96830000D03*
D22*
X234315000Y-95930000D03*
D23*
X234315000Y-96830000D03*
D13*
X75230000Y-85157500D03*
X75230000Y-86982500D03*
D18*
X212390000Y-125100000D03*
X212390000Y-127000000D03*
D25*
X161290000Y-109390000D03*
D16*
X155240000Y-111340000D03*
D25*
X155240000Y-123540000D03*
X167290000Y-123590000D03*
D16*
X167240000Y-111340000D03*
D18*
X217170000Y-125100000D03*
X217170000Y-127000000D03*
D11*
X90590000Y-76885000D03*
X90590000Y-78760000D03*
D21*
X92710000Y-139670000D03*
X92710000Y-132050000D03*
D16*
X87630000Y-139670000D03*
X87630000Y-132050000D03*
X82550000Y-139670000D03*
X82550000Y-132050000D03*
D20*
X90805000Y-94812500D03*
X90805000Y-92987500D03*
X95885000Y-94812500D03*
X95885000Y-92987500D03*
D21*
X203265000Y-139670000D03*
X203265000Y-132050000D03*
D16*
X198185000Y-139670000D03*
X198185000Y-132050000D03*
X193105000Y-139670000D03*
X193105000Y-132050000D03*
D13*
X173720000Y-101190000D03*
X173720000Y-103015000D03*
X121285000Y-76890000D03*
X121285000Y-78715000D03*
X66975000Y-101190000D03*
X66975000Y-103015000D03*
D17*
X93345000Y-92330000D03*
X93345000Y-95630000D03*
D20*
X167640000Y-86882500D03*
X167640000Y-85057500D03*
D26*
X113150000Y-100645000D03*
X113150000Y-101145000D03*
X113150000Y-101645000D03*
X113150000Y-102145000D03*
X113150000Y-102645000D03*
X116050000Y-102645000D03*
X116050000Y-102145000D03*
X116050000Y-101645000D03*
X116050000Y-101145000D03*
X116050000Y-100645000D03*
D27*
X114600000Y-101645000D03*
D28*
X215425000Y-110490000D03*
X210025000Y-110490000D03*
D25*
X142875000Y-109390000D03*
D16*
X136825000Y-111340000D03*
D25*
X136825000Y-123540000D03*
X148875000Y-123590000D03*
D16*
X148825000Y-111340000D03*
D29*
X133985000Y-97000000D03*
X133985000Y-93000000D03*
D13*
X148590000Y-85090000D03*
X148590000Y-86915000D03*
D20*
X180767000Y-81170000D03*
X180767000Y-79345000D03*
D13*
X128905000Y-76890000D03*
X128905000Y-78715000D03*
D21*
X111125000Y-139670000D03*
X111125000Y-132050000D03*
D16*
X106045000Y-139670000D03*
X106045000Y-132050000D03*
X100965000Y-139670000D03*
X100965000Y-132050000D03*
D12*
X65705000Y-75790000D03*
X65705000Y-78740000D03*
D11*
X198120000Y-101190000D03*
X198120000Y-103065000D03*
D20*
X100965000Y-87007500D03*
X100965000Y-85182500D03*
D17*
X123825000Y-76152500D03*
X123825000Y-79452500D03*
D13*
X77770000Y-85157500D03*
X77770000Y-86982500D03*
D30*
X220345000Y-113475000D03*
X220345000Y-117475000D03*
D21*
X166370000Y-139670000D03*
X166370000Y-132050000D03*
D16*
X161290000Y-139670000D03*
X161290000Y-132050000D03*
X156210000Y-139670000D03*
X156210000Y-132050000D03*
D20*
X151130000Y-86927500D03*
X151130000Y-85102500D03*
X66640000Y-94812500D03*
X66640000Y-92987500D03*
D11*
X87630000Y-101190000D03*
X87630000Y-103065000D03*
X80430000Y-76885000D03*
X80430000Y-78760000D03*
D13*
X134285000Y-85182500D03*
X134285000Y-87007500D03*
D21*
X147955000Y-139670000D03*
X147955000Y-132050000D03*
D16*
X142875000Y-139670000D03*
X142875000Y-132050000D03*
X137795000Y-139670000D03*
X137795000Y-132050000D03*
D11*
X142875000Y-101190000D03*
X142875000Y-103065000D03*
D13*
X80310000Y-85145000D03*
X80310000Y-86970000D03*
D12*
X110490000Y-93000000D03*
X110490000Y-95950000D03*
D17*
X85725000Y-92330000D03*
X85725000Y-95630000D03*
D31*
X140970000Y-98585000D03*
X140970000Y-93185000D03*
D19*
X170180000Y-78742500D03*
X170180000Y-76842500D03*
D13*
X126965000Y-85182500D03*
X126965000Y-87007500D03*
X151765000Y-76890000D03*
X151765000Y-78715000D03*
D32*
X120557000Y-86692500D03*
D33*
X118017000Y-86692500D03*
X115477000Y-86692500D03*
D13*
X92710000Y-76885000D03*
X92710000Y-78710000D03*
X167640000Y-76917500D03*
X167640000Y-78742500D03*
D17*
X64435000Y-92330000D03*
X64435000Y-95630000D03*
D13*
X73025000Y-76885000D03*
X73025000Y-78710000D03*
D11*
X75350000Y-76885000D03*
X75350000Y-78760000D03*
D17*
X59355000Y-92330000D03*
X59355000Y-95630000D03*
D13*
X141305000Y-85182500D03*
X141305000Y-87007500D03*
D28*
X215425000Y-119380000D03*
X210025000Y-119380000D03*
D11*
X172720000Y-84995000D03*
X172720000Y-86870000D03*
D20*
X156845000Y-86945000D03*
X156845000Y-85120000D03*
D15*
X181610000Y-63500000D03*
X181610000Y-71120000D03*
D16*
X186690000Y-63500000D03*
X186690000Y-71120000D03*
X191770000Y-63500000D03*
X191770000Y-71120000D03*
X196850000Y-63499604D03*
X196850000Y-71119604D03*
X201930000Y-63500000D03*
X201930000Y-71120000D03*
X207010000Y-63500000D03*
X207010000Y-71120000D03*
D20*
X163195000Y-78755000D03*
X163195000Y-76930000D03*
D17*
X131445000Y-76152500D03*
X131445000Y-79452500D03*
D18*
X129540000Y-92925000D03*
X129540000Y-94825000D03*
D11*
X177800000Y-93025000D03*
X177800000Y-94900000D03*
D26*
X69335000Y-84817500D03*
X69335000Y-85317500D03*
X69335000Y-85817500D03*
X69335000Y-86317500D03*
X69335000Y-86817500D03*
X72235000Y-86817500D03*
X72235000Y-86317500D03*
X72235000Y-85817500D03*
X72235000Y-85317500D03*
X72235000Y-84817500D03*
D27*
X70785000Y-85817500D03*
D13*
X149225000Y-76890000D03*
X149225000Y-78715000D03*
X129505000Y-85182500D03*
X129505000Y-87007500D03*
X87930000Y-85170000D03*
X87930000Y-86995000D03*
D11*
X179770000Y-101190000D03*
X179770000Y-103065000D03*
D21*
X129540000Y-139670000D03*
X129540000Y-132050000D03*
D16*
X124460000Y-139670000D03*
X124460000Y-132050000D03*
X119380000Y-139670000D03*
X119380000Y-132050000D03*
D13*
X216535000Y-103202500D03*
X216535000Y-105027500D03*
D25*
X198185000Y-109390000D03*
D16*
X192135000Y-111340000D03*
D25*
X192135000Y-123540000D03*
X204185000Y-123590000D03*
D16*
X204135000Y-111340000D03*
D13*
X98217000Y-76885000D03*
X98217000Y-78710000D03*
D17*
X144145000Y-76152500D03*
X144145000Y-79452500D03*
D19*
X101265000Y-94825000D03*
X101265000Y-92925000D03*
D26*
X91260000Y-84817500D03*
X91260000Y-85317500D03*
X91260000Y-85817500D03*
X91260000Y-86317500D03*
X91260000Y-86817500D03*
X94160000Y-86817500D03*
X94160000Y-86317500D03*
X94160000Y-85817500D03*
X94160000Y-85317500D03*
X94160000Y-84817500D03*
D27*
X92710000Y-85817500D03*
D13*
X126365000Y-76890000D03*
X126365000Y-78715000D03*
X155240000Y-101190000D03*
X155240000Y-103015000D03*
X192135000Y-101190000D03*
X192135000Y-103015000D03*
X78105000Y-76885000D03*
X78105000Y-78710000D03*
D11*
X70270000Y-76885000D03*
X70270000Y-78760000D03*
D13*
X136825000Y-101190000D03*
X136825000Y-103015000D03*
D11*
X219075000Y-103065000D03*
X219075000Y-101190000D03*
D17*
X71420000Y-92330000D03*
X71420000Y-95630000D03*
D11*
X226060000Y-103065000D03*
X226060000Y-101190000D03*
X100750000Y-76885000D03*
X100750000Y-78760000D03*
D25*
X124460000Y-109390000D03*
D16*
X118410000Y-111340000D03*
D25*
X118410000Y-123540000D03*
X130460000Y-123590000D03*
D16*
X130410000Y-111340000D03*
D13*
X103297000Y-76885000D03*
X103297000Y-78710000D03*
D17*
X75865000Y-92330000D03*
X75865000Y-95630000D03*
D25*
X69215000Y-109390000D03*
D16*
X63165000Y-111340000D03*
D25*
X63165000Y-123540000D03*
X75215000Y-123590000D03*
D16*
X75165000Y-111340000D03*
D13*
X118745000Y-76890000D03*
X118745000Y-78715000D03*
D17*
X210185000Y-102127500D03*
X210185000Y-105427500D03*
D30*
X224790000Y-126365000D03*
X224790000Y-122365000D03*
D18*
X202565000Y-103177500D03*
X202565000Y-105077500D03*
D14*
X176641500Y-81170000D03*
X176641500Y-77470000D03*
D17*
X78384154Y-92330000D03*
X78384154Y-95630000D03*
D21*
X74295000Y-139700000D03*
X74295000Y-132080000D03*
D16*
X69215000Y-139700000D03*
X69215000Y-132080000D03*
X64135000Y-139700000D03*
X64135000Y-132080000D03*
D26*
X165555000Y-100645000D03*
X165555000Y-101145000D03*
X165555000Y-101645000D03*
X165555000Y-102145000D03*
X165555000Y-102645000D03*
X168455000Y-102645000D03*
X168455000Y-102145000D03*
X168455000Y-101645000D03*
X168455000Y-101145000D03*
X168455000Y-100645000D03*
D27*
X167005000Y-101645000D03*
D15*
X60110000Y-63500000D03*
X60110000Y-71120000D03*
D16*
X65190000Y-63500000D03*
X65190000Y-71120000D03*
X70270000Y-63500000D03*
X70270000Y-71120000D03*
X75350000Y-63499604D03*
X75350000Y-71119604D03*
X80430000Y-63500000D03*
X80430000Y-71120000D03*
X85510000Y-63500000D03*
X85510000Y-71120000D03*
X90590000Y-63500000D03*
X90590000Y-71120000D03*
X95670000Y-63500000D03*
X95670000Y-71120000D03*
X100750000Y-63500000D03*
X100750000Y-71120000D03*
X105830000Y-63499604D03*
X105830000Y-71119604D03*
X110910000Y-63500000D03*
X110910000Y-71120000D03*
X115990000Y-63500000D03*
X115990000Y-71120000D03*
D13*
X108585000Y-76885000D03*
X108585000Y-78710000D03*
X108585000Y-85182500D03*
X108585000Y-87007500D03*
D34*
X219112500Y-110490000D03*
X219112500Y-107540000D03*
D13*
X141605000Y-76890000D03*
X141605000Y-78715000D03*
D35*
X231798000Y-107260000D03*
X231798000Y-116260000D03*
D36*
X230798000Y-111760000D03*
D37*
X224798000Y-111760000D03*
D13*
X143845000Y-85182500D03*
X143845000Y-87007500D03*
X88265000Y-76885000D03*
X88265000Y-78710000D03*
D25*
X179770000Y-109390000D03*
D16*
X173720000Y-111340000D03*
D25*
X173720000Y-123540000D03*
X185770000Y-123590000D03*
D16*
X185720000Y-111340000D03*
D18*
X183053000Y-81170000D03*
X183053000Y-79270000D03*
D13*
X98425000Y-85182500D03*
X98425000Y-87007500D03*
D12*
X205105000Y-102127500D03*
X205105000Y-105077500D03*
D13*
X106045000Y-85182500D03*
X106045000Y-87007500D03*
X122220000Y-101240000D03*
X122220000Y-103065000D03*
D15*
X124460000Y-63500000D03*
X124460000Y-71120000D03*
D16*
X129540000Y-63500000D03*
X129540000Y-71120000D03*
X134620000Y-63500000D03*
X134620000Y-71120000D03*
X139700000Y-63499604D03*
X139700000Y-71119604D03*
X144780000Y-63500000D03*
X144780000Y-71120000D03*
D25*
X87630000Y-109390000D03*
D16*
X81580000Y-111340000D03*
D25*
X81580000Y-123540000D03*
X93630000Y-123590000D03*
D16*
X93580000Y-111340000D03*
D13*
X82850000Y-85157500D03*
X82850000Y-86982500D03*
D17*
X116205000Y-76152500D03*
X116205000Y-79452500D03*
D20*
X69180000Y-94812500D03*
X69180000Y-92987500D03*
D38*
X233345000Y-125415000D03*
X233345000Y-120915000D03*
D39*
X230855000Y-126675000D03*
X230855000Y-119665000D03*
D13*
X132045000Y-85182500D03*
X132045000Y-87007500D03*
X136525000Y-85182500D03*
X136525000Y-87007500D03*
D25*
X106045000Y-109390000D03*
D16*
X99995000Y-111340000D03*
D25*
X99995000Y-123540000D03*
X112045000Y-123590000D03*
D16*
X111995000Y-111340000D03*
D13*
X59355000Y-85170000D03*
X59355000Y-86995000D03*
D20*
X172720000Y-78740000D03*
X172720000Y-76915000D03*
D11*
X161290000Y-101190000D03*
X161290000Y-103065000D03*
D17*
X90805000Y-99765000D03*
X90805000Y-103065000D03*
D20*
X61560000Y-94812500D03*
X61560000Y-92987500D03*
D17*
X154305000Y-76152500D03*
X154305000Y-79452500D03*
D13*
X99995000Y-101190000D03*
X99995000Y-103015000D03*
D11*
X127000000Y-92925000D03*
X127000000Y-94800000D03*
D40*
X214630000Y-127000000D03*
X214630000Y-125125000D03*
D29*
X106045000Y-93000000D03*
X106045000Y-97000000D03*
D11*
X146050000Y-85120000D03*
X146050000Y-86995000D03*
D40*
X207645000Y-105077500D03*
X207645000Y-103202500D03*
D13*
X85390000Y-85157500D03*
X85390000Y-86982500D03*
D17*
X136525000Y-76152500D03*
X136525000Y-79452500D03*
D41*
X160447500Y-85046285D03*
X160447500Y-85696285D03*
X160447500Y-86346285D03*
X160447500Y-86996285D03*
X164672500Y-86996285D03*
X164672500Y-86346285D03*
X164672500Y-85696285D03*
X164672500Y-85046285D03*
D13*
X139065000Y-76890000D03*
X139065000Y-78715000D03*
D21*
X184850000Y-139670000D03*
X184850000Y-132050000D03*
D16*
X179770000Y-139670000D03*
X179770000Y-132050000D03*
X174690000Y-139670000D03*
X174690000Y-132050000D03*
D11*
X223520000Y-103152500D03*
X223520000Y-105027500D03*
D18*
X170180000Y-84970000D03*
X170180000Y-86870000D03*
D17*
X88265000Y-92330000D03*
X88265000Y-95630000D03*
D30*
X220345000Y-126365000D03*
X220345000Y-122365000D03*
D13*
X229870000Y-103227500D03*
X229870000Y-105052500D03*
D20*
X73625000Y-94812500D03*
X73625000Y-92987500D03*
X83185000Y-94812500D03*
X83185000Y-92987500D03*
D11*
X67991000Y-73484500D03*
X67991000Y-75359500D03*
D18*
X67991000Y-76860000D03*
X67991000Y-78760000D03*
D13*
X103505000Y-85182500D03*
X103505000Y-87007500D03*
D20*
X61895000Y-87007500D03*
X61895000Y-85182500D03*
D13*
X66975000Y-85157500D03*
X66975000Y-86982500D03*
D42*
X184323000Y-78446478D03*
X185593000Y-74181196D03*
X183053000Y-83566000D03*
X82850000Y-88265000D03*
X169046493Y-76146928D03*
X142415010Y-93185000D03*
X92050391Y-97028000D03*
X168912487Y-85966319D03*
X181869699Y-94825000D03*
X171450000Y-94175246D03*
X101265000Y-91775000D03*
X203509287Y-92710382D03*
X203835000Y-83820000D03*
X61133000Y-96266000D03*
X64770000Y-88855143D03*
X85524748Y-83409313D03*
X180729085Y-100144161D03*
X153493500Y-80264000D03*
X212340083Y-119380000D03*
X176235670Y-92735587D03*
X211275000Y-108123537D03*
X216535000Y-91689900D03*
X126365000Y-79839141D03*
X145412676Y-79452500D03*
X100965000Y-84038530D03*
X133985000Y-79839141D03*
X139517852Y-93185000D03*
X114600000Y-99995000D03*
X222801312Y-82819799D03*
X226060000Y-91440000D03*
X216535000Y-85725000D03*
X187325000Y-83820000D03*
X187346107Y-92710381D03*
X152722998Y-87630000D03*
X109771654Y-88957351D03*
X70785000Y-82912617D03*
X140053927Y-86106000D03*
X176195000Y-84836000D03*
X229235000Y-88265000D03*
X216535000Y-106172000D03*
X174787527Y-100144161D03*
X191135000Y-83820000D03*
X110490000Y-94755705D03*
X130895078Y-94825000D03*
X220345000Y-128270000D03*
X220345000Y-129540000D03*
X147955000Y-100965000D03*
X148909283Y-100965000D03*
X212581450Y-111616450D03*
X201149788Y-102915000D03*
X174625000Y-104202211D03*
X220980000Y-107950000D03*
X175680940Y-104202211D03*
X155240000Y-105202887D03*
X193169366Y-104110146D03*
X211946450Y-112251450D03*
X194364512Y-102915000D03*
X201554729Y-104113131D03*
X188595000Y-107315000D03*
X96765638Y-78760000D03*
X187770288Y-106234712D03*
X220980000Y-106680000D03*
X100750000Y-79675927D03*
X155240000Y-104249054D03*
X105830000Y-79679509D03*
X161963923Y-82503345D03*
X166483833Y-82503345D03*
X219075000Y-90170000D03*
X157760679Y-85871164D03*
X182338308Y-92455649D03*
X184288813Y-92455649D03*
X228519000Y-115475000D03*
X226487000Y-115475000D03*
X222423000Y-115475000D03*
X214630000Y-123080172D03*
X214630000Y-123993702D03*
X216895500Y-115475000D03*
X167640000Y-82503345D03*
X110879615Y-99695000D03*
X225358053Y-120489542D03*
X224165697Y-119380000D03*
X101079500Y-88265000D03*
X103505000Y-88265000D03*
X99060000Y-95885000D03*
X107315000Y-87841074D03*
X173355000Y-81170000D03*
X166246083Y-81403917D03*
X113150000Y-99695000D03*
X109764721Y-99695000D03*
X112022423Y-99695000D03*
X165759869Y-96164580D03*
X165543105Y-95188865D03*
X166367500Y-78742500D03*
X161963923Y-81170000D03*
X139877948Y-87804147D03*
X128235608Y-84623906D03*
X144959123Y-87804147D03*
X137632801Y-87804147D03*
X130772856Y-83751904D03*
X142431905Y-87804147D03*
X117226155Y-100443292D03*
X118053124Y-101147860D03*
X116422933Y-99695000D03*
X169477463Y-99938724D03*
X186518928Y-104511138D03*
X169330500Y-104417641D03*
X170180000Y-105205859D03*
X168455000Y-99938724D03*
X135292143Y-100742141D03*
X95885000Y-86995000D03*
X106764840Y-80770206D03*
X95885000Y-85817500D03*
X102255999Y-79584532D03*
X113523796Y-70485000D03*
X86660986Y-84659525D03*
X64435000Y-83944756D03*
X76500080Y-84658451D03*
X59355000Y-83944756D03*
X81579497Y-84645930D03*
X62865000Y-92975000D03*
X67880515Y-93581443D03*
X68141922Y-84300000D03*
X66640000Y-91700000D03*
X68163634Y-85851118D03*
X69180000Y-91700000D03*
X73625000Y-91700000D03*
X68264501Y-87477872D03*
X80589154Y-91800000D03*
X91257559Y-84066709D03*
X83185000Y-91800000D03*
X90066922Y-84935421D03*
X90805000Y-91800000D03*
X89400000Y-85817500D03*
X95885000Y-91800000D03*
X90066922Y-86826965D03*
X135335000Y-82762454D03*
X133151903Y-83296429D03*
D43*
X75165000Y-104140000D02*
X75165000Y-103632000D01*
X75165000Y-104140000D02*
X74090000Y-103065000D01*
X75165000Y-111340000D02*
X75165000Y-104140000D01*
X69215000Y-103065000D02*
X73406000Y-103065000D01*
X73406000Y-103065000D02*
X75520155Y-103065000D01*
X74090000Y-103065000D02*
X73406000Y-103065000D01*
D44*
X204135000Y-111340000D02*
X206590000Y-111340000D01*
X206590000Y-111340000D02*
X207163867Y-112124508D01*
X207163867Y-112124508D02*
X208999977Y-112395000D01*
D45*
X63165000Y-111340000D02*
X63165000Y-105491000D01*
X66975000Y-103015000D02*
X65641000Y-103015000D01*
X65641000Y-103015000D02*
X63165000Y-105491000D01*
D46*
X156845000Y-86945000D02*
X157988000Y-86945000D01*
X157988000Y-86945000D02*
X158039285Y-86996285D01*
X158039285Y-86996285D02*
X160447500Y-86996285D01*
D43*
X210025000Y-126069832D02*
X210025000Y-137305396D01*
X210025000Y-137305396D02*
X212390000Y-139670396D01*
D45*
X149225000Y-76890000D02*
X149225000Y-75463917D01*
X149225000Y-75463917D02*
X150667753Y-74021164D01*
X150667753Y-74021164D02*
X160293836Y-74021164D01*
X160293836Y-74021164D02*
X163195000Y-71120000D01*
X151765000Y-76890000D02*
X151765000Y-75896882D01*
X151765000Y-75896882D02*
X152754696Y-74907186D01*
X152754696Y-74907186D02*
X161312814Y-74907186D01*
X161312814Y-74907186D02*
X163119991Y-73100009D01*
X163119991Y-73100009D02*
X166294595Y-73100009D01*
X166294595Y-73100009D02*
X168275000Y-71119604D01*
D47*
X181937483Y-82706498D02*
X182291000Y-83060015D01*
X169413000Y-80421896D02*
X169413000Y-82199896D01*
X165624691Y-79897235D02*
X168888339Y-79897235D01*
X186650594Y-80094406D02*
X188595000Y-78150000D01*
X164465000Y-81056926D02*
X165624691Y-79897235D01*
X186270594Y-80094406D02*
X186650594Y-80094406D01*
X168888339Y-79897235D02*
X169413000Y-80421896D01*
X161815292Y-85176889D02*
X164465000Y-82527181D01*
X169413000Y-82199896D02*
X169919602Y-82706498D01*
X161815292Y-92921208D02*
X161815292Y-85176889D01*
X164465000Y-82527181D02*
X164465000Y-81056926D01*
X183821032Y-82543968D02*
X186270594Y-80094406D01*
X163714630Y-94820546D02*
X161815292Y-92921208D01*
X163714630Y-101269606D02*
X163714630Y-94820546D01*
X169919602Y-82706498D02*
X181937483Y-82706498D01*
X164590024Y-102145000D02*
X163714630Y-101269606D01*
X182291000Y-83060015D02*
X182291000Y-83891853D01*
X182291000Y-83891853D02*
X182727147Y-84328000D01*
X182727147Y-84328000D02*
X183380633Y-84328000D01*
X183380633Y-84328000D02*
X183821032Y-83887601D01*
X183821032Y-83887601D02*
X183821032Y-82543968D01*
X169265387Y-83322283D02*
X181539283Y-83322283D01*
X168651000Y-82707896D02*
X169265387Y-83322283D01*
X168651000Y-80929896D02*
X168651000Y-82707896D01*
X168305646Y-80584542D02*
X168651000Y-80929896D01*
X165948557Y-80584542D02*
X168305646Y-80584542D01*
X181539283Y-83322283D02*
X181783000Y-83566000D01*
X165100000Y-81433099D02*
X165948557Y-80584542D01*
X165100000Y-82674907D02*
X165100000Y-81433099D01*
X162326012Y-85448895D02*
X165100000Y-82674907D01*
X162326012Y-92328804D02*
X162326012Y-85448895D01*
X187392693Y-74987692D02*
X186055000Y-76325385D01*
X164245543Y-94248335D02*
X162326012Y-92328804D01*
X189632692Y-74987692D02*
X187392693Y-74987692D01*
X164245543Y-101077649D02*
X164245543Y-94248335D01*
X189865000Y-75220000D02*
X189632692Y-74987692D01*
X164815490Y-101647596D02*
X164245543Y-101077649D01*
X189865000Y-79200376D02*
X189865000Y-75220000D01*
X181783000Y-83566000D02*
X181783000Y-84328000D01*
X181783000Y-84328000D02*
X182317964Y-84862964D01*
X182317964Y-84862964D02*
X183806132Y-84862964D01*
X183806132Y-84862964D02*
X184335065Y-84334031D01*
X184335065Y-84334031D02*
X184335065Y-83299935D01*
X184335065Y-83299935D02*
X188060572Y-79574428D01*
X188060572Y-79574428D02*
X189490948Y-79574428D01*
X189490948Y-79574428D02*
X189865000Y-79200376D01*
D48*
X220345000Y-117475000D02*
X225344000Y-117475000D01*
X225344000Y-117475000D02*
X227369341Y-119500341D01*
X227369341Y-119500341D02*
X227369341Y-121532341D01*
X227369341Y-121532341D02*
X229019397Y-123182397D01*
X229019397Y-123182397D02*
X234505377Y-123182397D01*
X235730263Y-121957511D02*
X235730263Y-114680904D01*
X234505377Y-123182397D02*
X235730263Y-121957511D01*
X235730263Y-114680904D02*
X235686255Y-114636896D01*
X235686255Y-100727029D02*
X235741000Y-100781774D01*
X235741000Y-100781774D02*
X235741000Y-110064896D01*
X234315000Y-99355774D02*
X234315000Y-95930000D01*
X235686255Y-100727029D02*
X234315000Y-99355774D01*
D49*
X222423000Y-115475000D02*
X226487000Y-115475000D01*
D46*
X230842514Y-105052500D02*
X232520243Y-106730229D01*
X229870000Y-105052500D02*
X229870000Y-107015000D01*
X229870000Y-107015000D02*
X230115000Y-107260000D01*
X230115000Y-107260000D02*
X232075000Y-107260000D01*
D45*
X133523000Y-101346000D02*
X133523000Y-106264496D01*
X133523000Y-101346000D02*
X128227810Y-95923039D01*
X120025512Y-94351835D02*
X114395030Y-94351835D01*
X128227810Y-95923039D02*
X121596716Y-95923039D01*
X111746865Y-97000000D02*
X106045000Y-97000000D01*
X121596716Y-95923039D02*
X120025512Y-94351835D01*
X114395030Y-94351835D02*
X111746865Y-97000000D01*
D50*
X130410000Y-111340000D02*
X132761000Y-108966000D01*
X132761000Y-108966000D02*
X132761000Y-106426000D01*
X132761000Y-106426000D02*
X128905000Y-102870000D01*
D45*
X172720000Y-76915000D02*
X173978090Y-75656910D01*
X173978090Y-75656910D02*
X176049417Y-75656910D01*
X176049417Y-75656910D02*
X178611965Y-73094362D01*
X178611965Y-73094362D02*
X178611965Y-69592035D01*
X185712934Y-73271934D02*
X194697670Y-73271934D01*
X178611965Y-69592035D02*
X179624000Y-68580000D01*
X179624000Y-68580000D02*
X183561000Y-68580000D01*
X183561000Y-68580000D02*
X184323000Y-69342000D01*
X184323000Y-69342000D02*
X184323000Y-71882000D01*
X184323000Y-71882000D02*
X185712934Y-73271934D01*
X194697670Y-73271934D02*
X196850000Y-71119604D01*
D49*
X183053000Y-79270000D02*
X184035507Y-79270000D01*
X184035507Y-79270000D02*
X184323000Y-78982507D01*
X184323000Y-78982507D02*
X184323000Y-78446478D01*
D45*
X201013804Y-74181196D02*
X185593000Y-74181196D01*
X201930000Y-71120000D02*
X201930000Y-73265000D01*
X201930000Y-73265000D02*
X201013804Y-74181196D01*
X170180000Y-78742500D02*
X171450000Y-77472500D01*
X172485414Y-74529586D02*
X175263686Y-74529586D01*
X175263686Y-74529586D02*
X177159872Y-72633400D01*
X171450000Y-77472500D02*
X171450000Y-75565000D01*
X171450000Y-75565000D02*
X172485414Y-74529586D01*
X178875979Y-66802000D02*
X185847000Y-66802000D01*
X177159872Y-72633400D02*
X177159872Y-68518107D01*
X177159872Y-68518107D02*
X178875979Y-66802000D01*
X163195000Y-76930000D02*
X163195000Y-75904504D01*
X163195000Y-75904504D02*
X163751184Y-75348320D01*
X163751184Y-75348320D02*
X166361862Y-75348320D01*
X166361862Y-75348320D02*
X168304182Y-73406000D01*
X168304182Y-73406000D02*
X174163000Y-73406000D01*
X175687000Y-71882000D02*
X175687000Y-66294000D01*
X174163000Y-73406000D02*
X175687000Y-71882000D01*
X175687000Y-66294000D02*
X178481000Y-63500000D01*
X178481000Y-63500000D02*
X181610000Y-63500000D01*
X179751000Y-77470000D02*
X176641500Y-77470000D01*
X173355000Y-81170000D02*
X176641500Y-81170000D01*
X172720000Y-78740000D02*
X172720000Y-80535000D01*
X172720000Y-80535000D02*
X173355000Y-81170000D01*
D43*
X186690000Y-66802000D02*
X186690000Y-67564000D01*
X186690000Y-67564000D02*
X186690000Y-71120000D01*
D45*
X185928000Y-66802000D02*
X186690000Y-67564000D01*
X185847000Y-66802000D02*
X186690000Y-66802000D01*
X185928000Y-66802000D02*
X186690000Y-66040000D01*
X185847000Y-66802000D02*
X185928000Y-66802000D01*
D43*
X186690000Y-63500000D02*
X186690000Y-66040000D01*
X186690000Y-66040000D02*
X186690000Y-66802000D01*
D51*
X183053000Y-83566000D02*
X183053000Y-81170000D01*
D52*
X210185000Y-81280000D02*
X210185000Y-83185000D01*
X183308649Y-91438351D02*
X183308649Y-98853649D01*
X210185000Y-83185000D02*
X205566055Y-87803945D01*
X205566055Y-87803945D02*
X186943055Y-87803945D01*
X186943055Y-87803945D02*
X183308649Y-91438351D01*
X183308649Y-98853649D02*
X184150000Y-99695000D01*
X184150000Y-99695000D02*
X201295000Y-99695000D01*
X201295000Y-99695000D02*
X202565000Y-100965000D01*
X202565000Y-100965000D02*
X202565000Y-101600000D01*
D45*
X180767000Y-79345000D02*
X180767000Y-78486000D01*
X180767000Y-78486000D02*
X179751000Y-77470000D01*
D49*
X180767000Y-81170000D02*
X181664909Y-81170000D01*
X181664909Y-81170000D02*
X181894790Y-80940119D01*
X181894790Y-80940119D02*
X181894790Y-79474210D01*
X181894790Y-79474210D02*
X182099000Y-79270000D01*
X182099000Y-79270000D02*
X183053000Y-79270000D01*
D43*
X75732000Y-103065000D02*
X79167000Y-99695000D01*
X79167000Y-99695000D02*
X88333946Y-99695000D01*
X75520155Y-103065000D02*
X75526530Y-103071375D01*
X75526530Y-103071375D02*
X75732000Y-103065000D01*
D45*
X63673000Y-78740000D02*
X62911000Y-78740000D01*
X65705000Y-78740000D02*
X63673000Y-78740000D01*
X63673000Y-78740000D02*
X63165000Y-78232000D01*
D49*
X70277000Y-74930000D02*
X69882574Y-74930000D01*
X69882574Y-74930000D02*
X69140656Y-75671918D01*
X69140656Y-75671918D02*
X69140656Y-78510399D01*
X69140656Y-78510399D02*
X69390257Y-78760000D01*
X69390257Y-78760000D02*
X70270000Y-78760000D01*
X70531000Y-74168000D02*
X70531000Y-74676000D01*
D51*
X70531000Y-73484500D02*
X69769000Y-73484500D01*
D49*
X70531000Y-73484500D02*
X70531000Y-74168000D01*
D51*
X69769000Y-73484500D02*
X67991000Y-73484500D01*
D49*
X70531000Y-74168000D02*
X69847500Y-73484500D01*
X70277000Y-74930000D02*
X72660595Y-74930000D01*
D51*
X71310904Y-73484500D02*
X70531000Y-73484500D01*
D49*
X70531000Y-74676000D02*
X70277000Y-74930000D01*
D51*
X73579000Y-75752596D02*
X72405702Y-74579298D01*
X72405702Y-74579298D02*
X71310904Y-73484500D01*
D49*
X72350844Y-74634156D02*
X72405702Y-74579298D01*
D45*
X62911000Y-78740000D02*
X60371000Y-76200000D01*
X67991000Y-78760000D02*
X65725000Y-78760000D01*
X65725000Y-78760000D02*
X65705000Y-78740000D01*
X67991000Y-79800625D02*
X65705000Y-79800625D01*
X65705000Y-79800625D02*
X63754859Y-79800625D01*
X65705000Y-78740000D02*
X65705000Y-79800625D01*
X70225053Y-79800625D02*
X67991000Y-79800625D01*
X67991000Y-78760000D02*
X67991000Y-79800625D01*
X67991000Y-75359500D02*
X66980518Y-74349018D01*
X66980518Y-74349018D02*
X66214333Y-74349018D01*
X67991000Y-76860000D02*
X65857000Y-76860000D01*
X65857000Y-76860000D02*
X65632210Y-76635210D01*
X65632210Y-76635210D02*
X65632210Y-75893455D01*
X67991000Y-76860000D02*
X67991000Y-75359500D01*
X66975000Y-101190000D02*
X69215000Y-101190000D01*
D51*
X132711500Y-79452500D02*
X131445000Y-79452500D01*
D45*
X87629000Y-96266000D02*
X87295000Y-96266000D01*
X91105000Y-96266000D02*
X91288391Y-96266000D01*
X77748154Y-96266000D02*
X77135000Y-96266000D01*
X124611872Y-79452500D02*
X123825000Y-79452500D01*
D43*
X219112500Y-107540000D02*
X217597000Y-107540000D01*
X172303708Y-98643708D02*
X171450000Y-99497416D01*
D45*
X115439500Y-79452500D02*
X115489000Y-79452500D01*
X207478750Y-106513750D02*
X207176250Y-106513750D01*
D51*
X88900000Y-82550000D02*
X92075000Y-82550000D01*
X135047000Y-79839141D02*
X136138359Y-79839141D01*
D52*
X210025000Y-119380000D02*
X212340083Y-119380000D01*
D43*
X216535000Y-106824000D02*
X215819000Y-107540000D01*
X191135000Y-78150000D02*
X191135000Y-83820000D01*
D51*
X207176250Y-107148750D02*
X207493750Y-107466250D01*
D43*
X211858537Y-107540000D02*
X211275000Y-108123537D01*
D53*
X165555000Y-102645000D02*
X167005000Y-102645000D01*
D45*
X168912487Y-85966319D02*
X168912487Y-84244513D01*
X207493750Y-106528750D02*
X207493750Y-107466250D01*
X86533000Y-96266000D02*
X87295000Y-96266000D01*
D51*
X181242429Y-99630817D02*
X180729085Y-100144161D01*
X133092500Y-79071500D02*
X132711500Y-79452500D01*
D43*
X214405000Y-107540000D02*
X212263000Y-107540000D01*
D45*
X207176250Y-106513750D02*
X206541250Y-106513750D01*
X140053927Y-86106000D02*
X140053927Y-83543573D01*
D49*
X92347971Y-87676465D02*
X92121465Y-87676465D01*
D51*
X178583572Y-97303572D02*
X180748574Y-97303572D01*
D49*
X105954600Y-88470102D02*
X105467351Y-88957351D01*
D51*
X133985000Y-79248000D02*
X133269000Y-79248000D01*
D43*
X171450000Y-99695000D02*
X170398708Y-98643708D01*
D45*
X217170000Y-127000000D02*
X217170000Y-128270000D01*
D47*
X79591461Y-83820000D02*
X83574801Y-83820000D01*
D49*
X90800485Y-87676465D02*
X88611465Y-87676465D01*
D43*
X214405000Y-107540000D02*
X215490000Y-107540000D01*
X216535000Y-106824000D02*
X217251000Y-107540000D01*
D45*
X87295000Y-96266000D02*
X89073000Y-96266000D01*
D53*
X91260000Y-86817500D02*
X92699835Y-86818861D01*
D51*
X170398708Y-98643708D02*
X171033708Y-98643708D01*
D49*
X92710000Y-87676465D02*
X92121465Y-87676465D01*
D51*
X144145000Y-79452500D02*
X145412676Y-79452500D01*
X174787527Y-100144161D02*
X174060183Y-99416817D01*
D45*
X78384154Y-95630000D02*
X77998189Y-95630000D01*
X207176250Y-106513750D02*
X207176250Y-107148750D01*
X63165000Y-96266000D02*
X61133000Y-96266000D01*
X61133000Y-96266000D02*
X59991000Y-96266000D01*
D49*
X88611465Y-87676465D02*
X87930000Y-86995000D01*
D45*
X207811250Y-106513750D02*
X207811250Y-107148750D01*
D49*
X92710000Y-87314436D02*
X92710000Y-85817500D01*
D53*
X91260000Y-86817500D02*
X91260000Y-87216950D01*
D45*
X207478750Y-106513750D02*
X207493750Y-106528750D01*
D51*
X92050391Y-97028000D02*
X92050391Y-96082609D01*
D43*
X59355000Y-78740000D02*
X59355000Y-81056812D01*
D47*
X83809551Y-86982500D02*
X82850000Y-86982500D01*
D45*
X76252596Y-95969971D02*
X76145190Y-95862565D01*
X115489000Y-79452500D02*
X116205000Y-79452500D01*
X124837500Y-79452500D02*
X124611872Y-79452500D01*
D49*
X106102351Y-88957351D02*
X106622649Y-88957351D01*
D51*
X92050391Y-100400609D02*
X92050391Y-97028000D01*
D45*
X75865000Y-95630000D02*
X75229000Y-96266000D01*
D51*
X153607500Y-87630000D02*
X152722998Y-87630000D01*
D45*
X209367852Y-109340352D02*
X209367852Y-109732574D01*
X208907279Y-108879779D02*
X209367852Y-109340352D01*
D49*
X77300000Y-95250000D02*
X77300000Y-95287000D01*
D43*
X211124895Y-107540000D02*
X210777099Y-107192204D01*
D47*
X84097787Y-84342986D02*
X84097787Y-86694264D01*
D49*
X104082649Y-88957351D02*
X105467351Y-88957351D01*
X92710000Y-87676465D02*
X92710000Y-87314436D01*
D45*
X91288391Y-96266000D02*
X92050391Y-97028000D01*
X210185000Y-106045000D02*
X209716250Y-106513750D01*
X78384154Y-95630000D02*
X79020154Y-96266000D01*
D51*
X133985000Y-79248000D02*
X133985000Y-79839141D01*
D45*
X65071000Y-96266000D02*
X70531000Y-96266000D01*
D51*
X70785000Y-82912617D02*
X70785000Y-85817500D01*
X154305000Y-86932500D02*
X153607500Y-87630000D01*
D45*
X77658218Y-95969971D02*
X76252596Y-95969971D01*
D49*
X64435000Y-95585000D02*
X64470000Y-95620000D01*
D45*
X85725000Y-95630000D02*
X85089000Y-96266000D01*
X175312038Y-83953038D02*
X176195000Y-84836000D01*
D43*
X203835000Y-78150000D02*
X203835000Y-83820000D01*
D45*
X66975000Y-86982500D02*
X66975000Y-87930000D01*
X217470000Y-128570000D02*
X217470000Y-132050000D01*
X173909000Y-83953038D02*
X175312038Y-83953038D01*
X211680000Y-107540000D02*
X210185000Y-106045000D01*
D51*
X170180000Y-86870000D02*
X169035000Y-86870000D01*
D45*
X208446250Y-106513750D02*
X207811250Y-107148750D01*
D51*
X168079754Y-94175246D02*
X171450000Y-94175246D01*
D43*
X110910000Y-63500000D02*
X110910000Y-71120000D01*
D47*
X84097787Y-86694264D02*
X83809551Y-86982500D01*
X77770000Y-86982500D02*
X78743845Y-86982500D01*
D45*
X85089000Y-96266000D02*
X84501000Y-96266000D01*
X75357000Y-96266000D02*
X77135000Y-96266000D01*
D51*
X168912487Y-85966319D02*
X168912487Y-86747487D01*
D43*
X217251000Y-107540000D02*
X217597000Y-107540000D01*
X191770000Y-63500000D02*
X191770000Y-71120000D01*
D45*
X70202215Y-88547785D02*
X70785000Y-87965000D01*
X72056000Y-96266000D02*
X72309000Y-96266000D01*
D51*
X177800000Y-96520000D02*
X178583572Y-97303572D01*
D45*
X59907360Y-82332640D02*
X59690000Y-82115280D01*
X63799000Y-96266000D02*
X63165000Y-96266000D01*
X207811250Y-106513750D02*
X207478750Y-106513750D01*
D43*
X229235000Y-78150000D02*
X229235000Y-80645000D01*
D45*
X75229000Y-96266000D02*
X74849000Y-96266000D01*
D47*
X83574801Y-83820000D02*
X84097787Y-84342986D01*
D52*
X210185000Y-105427500D02*
X210185000Y-106045000D01*
D43*
X171450000Y-99497416D02*
X171450000Y-99695000D01*
D51*
X176530000Y-95885000D02*
X177165000Y-96520000D01*
D45*
X126365000Y-78715000D02*
X126365000Y-79839141D01*
X67592785Y-88547785D02*
X70202215Y-88547785D01*
X78384154Y-95630000D02*
X77643000Y-95630000D01*
D49*
X81580000Y-89535000D02*
X82850000Y-88265000D01*
D45*
X74849000Y-96266000D02*
X75357000Y-96266000D01*
D51*
X173287074Y-98643708D02*
X172303708Y-98643708D01*
X92050391Y-96082609D02*
X92503000Y-95630000D01*
D45*
X124837500Y-79043500D02*
X125166000Y-78715000D01*
D51*
X167996306Y-86882500D02*
X167640000Y-86882500D01*
D45*
X114981000Y-78994000D02*
X114522500Y-79452500D01*
X154305000Y-79452500D02*
X153493500Y-80264000D01*
D43*
X216535000Y-106172000D02*
X216535000Y-106824000D01*
D49*
X76920000Y-95630000D02*
X76881000Y-95630000D01*
D45*
X115023558Y-98758995D02*
X114600000Y-99182553D01*
D51*
X129540000Y-94825000D02*
X130895078Y-94825000D01*
D45*
X66154287Y-88855143D02*
X64770000Y-88855143D01*
D49*
X92710000Y-87314436D02*
X92347971Y-87676465D01*
D51*
X88040687Y-83409313D02*
X88900000Y-82550000D01*
D53*
X91260000Y-87216950D02*
X90800485Y-87676465D01*
D45*
X64435000Y-95630000D02*
X63799000Y-96266000D01*
D51*
X180729085Y-100144161D02*
X180645572Y-100060648D01*
D45*
X106045000Y-88470102D02*
X106045000Y-88900000D01*
X70531000Y-96266000D02*
X72309000Y-96266000D01*
X114981000Y-74930000D02*
X115990000Y-73921000D01*
X125166000Y-78715000D02*
X126365000Y-78715000D01*
D51*
X92503000Y-95630000D02*
X93345000Y-95630000D01*
D45*
X126365000Y-79839141D02*
X125224141Y-79839141D01*
D51*
X168912487Y-85966319D02*
X167996306Y-86882500D01*
X90805000Y-101646000D02*
X90805000Y-103065000D01*
D43*
X144780000Y-63500000D02*
X144780000Y-71120000D01*
X217597000Y-107540000D02*
X216125000Y-107540000D01*
D49*
X77300000Y-90975000D02*
X78740000Y-89535000D01*
D51*
X167005000Y-99495618D02*
X167005000Y-95250000D01*
D45*
X78384154Y-95630000D02*
X77748154Y-96266000D01*
D43*
X230505000Y-63499604D02*
X230505000Y-71119604D01*
D45*
X169203962Y-83953038D02*
X173909000Y-83953038D01*
X61895000Y-85182500D02*
X61895000Y-84320281D01*
D51*
X178277241Y-100060648D02*
X178193728Y-100144161D01*
D49*
X77300000Y-90975000D02*
X77300000Y-95250000D01*
D51*
X168912487Y-86747487D02*
X169035000Y-86870000D01*
X202565000Y-105077500D02*
X205105000Y-105077500D01*
D45*
X101265000Y-92925000D02*
X101265000Y-91775000D01*
D51*
X92710000Y-83185000D02*
X92710000Y-85817500D01*
D45*
X124837500Y-79452500D02*
X124837500Y-79043500D01*
D51*
X167652500Y-86870000D02*
X167640000Y-86882500D01*
D43*
X212390000Y-127000000D02*
X210955168Y-127000000D01*
D45*
X84501000Y-96266000D02*
X86533000Y-96266000D01*
X114600000Y-99182553D02*
X114600000Y-99995000D01*
X66975000Y-87930000D02*
X67027215Y-87982215D01*
X124837500Y-79043500D02*
X124837500Y-79226872D01*
D51*
X207493750Y-107466250D02*
X207811250Y-107783750D01*
D49*
X110432649Y-88957351D02*
X111125000Y-88265000D01*
D45*
X61895000Y-84320281D02*
X61895000Y-83897873D01*
D43*
X171450000Y-101027500D02*
X171450000Y-99695000D01*
D45*
X209716250Y-106513750D02*
X210637164Y-106513750D01*
X77643000Y-95630000D02*
X77389000Y-95630000D01*
D51*
X133985000Y-78715000D02*
X133985000Y-79248000D01*
D45*
X209716250Y-106513750D02*
X208446250Y-106513750D01*
D51*
X85524748Y-83409313D02*
X88040687Y-83409313D01*
D45*
X114981000Y-79452500D02*
X114981000Y-78994000D01*
D47*
X78743845Y-86982500D02*
X79078291Y-86648054D01*
D51*
X142415010Y-93185000D02*
X139517852Y-93185000D01*
D49*
X91500120Y-87676465D02*
X90800485Y-87676465D01*
D45*
X170180000Y-76842500D02*
X169046493Y-76146928D01*
X89073000Y-96266000D02*
X91105000Y-96266000D01*
D49*
X101265000Y-91775000D02*
X104082649Y-88957351D01*
D45*
X125224141Y-79839141D02*
X124837500Y-79452500D01*
D51*
X151130000Y-86927500D02*
X153737500Y-86927500D01*
D45*
X71420000Y-95630000D02*
X72056000Y-96266000D01*
D51*
X177165000Y-96520000D02*
X177800000Y-96520000D01*
D45*
X124837500Y-79226872D02*
X124611872Y-79452500D01*
X86361000Y-96266000D02*
X86533000Y-96266000D01*
D51*
X133985000Y-79839141D02*
X135047000Y-79839141D01*
D43*
X173355000Y-63500000D02*
X173355000Y-71120000D01*
D51*
X181242429Y-97797427D02*
X181242429Y-99630817D01*
X151832500Y-87630000D02*
X151130000Y-86927500D01*
X171033708Y-98643708D02*
X171450000Y-99060000D01*
D45*
X72309000Y-96266000D02*
X74849000Y-96266000D01*
D51*
X133985000Y-79839141D02*
X133098141Y-79839141D01*
D45*
X70784000Y-96266000D02*
X71420000Y-95630000D01*
X69263115Y-82912617D02*
X70785000Y-82912617D01*
X114981000Y-78994000D02*
X114981000Y-74930000D01*
D51*
X168912487Y-85966319D02*
X169816168Y-86870000D01*
D53*
X69335000Y-86817500D02*
X70805325Y-86818364D01*
D45*
X70785000Y-80360572D02*
X70225053Y-79800625D01*
X217170000Y-128270000D02*
X217470000Y-128570000D01*
X67592785Y-88547785D02*
X66461645Y-88547785D01*
X82850000Y-86982500D02*
X82850000Y-88265000D01*
D51*
X114600000Y-101645000D02*
X114600000Y-99995000D01*
D45*
X85725000Y-95630000D02*
X86361000Y-96266000D01*
D51*
X208907279Y-108879779D02*
X208907279Y-109933145D01*
D53*
X91260000Y-87436345D02*
X91500120Y-87676465D01*
D43*
X210025000Y-126069832D02*
X210025000Y-119380000D01*
D49*
X77300000Y-95250000D02*
X76920000Y-95630000D01*
X105467351Y-88957351D02*
X106102351Y-88957351D01*
D43*
X215490000Y-107540000D02*
X215819000Y-107540000D01*
D45*
X79167000Y-96266000D02*
X84501000Y-96266000D01*
X88901000Y-96266000D02*
X89073000Y-96266000D01*
X77135000Y-96266000D02*
X79167000Y-96266000D01*
X68480878Y-82130380D02*
X69263115Y-82912617D01*
X106045000Y-87007500D02*
X106045000Y-88470102D01*
D51*
X167005000Y-99495618D02*
X167856910Y-98643708D01*
D45*
X114522500Y-79452500D02*
X114473000Y-79452500D01*
X118255004Y-98758995D02*
X115023558Y-98758995D01*
X70785000Y-82912617D02*
X70785000Y-80360572D01*
X140053927Y-83543573D02*
X144145000Y-79452500D01*
D49*
X78740000Y-89535000D02*
X81580000Y-89535000D01*
D45*
X63754859Y-79800625D02*
X62694234Y-78740000D01*
X77998189Y-95630000D02*
X77658218Y-95969971D01*
D51*
X152722998Y-87630000D02*
X151832500Y-87630000D01*
D45*
X76165000Y-95630000D02*
X75529000Y-96266000D01*
D49*
X77300000Y-95250000D02*
X77300000Y-95541000D01*
X108585000Y-88957351D02*
X110432649Y-88957351D01*
D51*
X206541250Y-106513750D02*
X207176250Y-107148750D01*
D45*
X75529000Y-96266000D02*
X75357000Y-96266000D01*
D49*
X77300000Y-95287000D02*
X77643000Y-95630000D01*
X77300000Y-95541000D02*
X77389000Y-95630000D01*
X100965000Y-85182500D02*
X100965000Y-84038530D01*
D51*
X136525000Y-79452500D02*
X135433641Y-79452500D01*
X180748574Y-97303572D02*
X181242429Y-97797427D01*
D43*
X216535000Y-78150000D02*
X216535000Y-81280000D01*
D51*
X133098141Y-79839141D02*
X132711500Y-79452500D01*
D45*
X67027215Y-87982215D02*
X66392215Y-88617215D01*
X70785000Y-87965000D02*
X70785000Y-85817500D01*
D51*
X173159754Y-95885000D02*
X176530000Y-95885000D01*
D49*
X92121465Y-87676465D02*
X91500120Y-87676465D01*
D43*
X207010000Y-63500000D02*
X207010000Y-71120000D01*
X225425000Y-63500000D02*
X225425000Y-71120000D01*
D45*
X212390000Y-127000000D02*
X212390000Y-132050396D01*
X208446250Y-106513750D02*
X207811250Y-106513750D01*
X176195000Y-85439124D02*
X174930495Y-84174619D01*
X113665000Y-79452500D02*
X114473000Y-79452500D01*
X63662493Y-82130380D02*
X68480878Y-82130380D01*
D51*
X133449000Y-78715000D02*
X133092500Y-79071500D01*
D45*
X59907360Y-82332640D02*
X59355000Y-81780281D01*
D51*
X178193728Y-100144161D02*
X174787527Y-100144161D01*
D43*
X212263000Y-107540000D02*
X211858537Y-107540000D01*
D51*
X92075000Y-82550000D02*
X92710000Y-83185000D01*
D45*
X61895000Y-84320281D02*
X59907360Y-82332640D01*
X70531000Y-96266000D02*
X70784000Y-96266000D01*
X114981000Y-79452500D02*
X115489000Y-79452500D01*
X174296038Y-83953038D02*
X176195000Y-85852000D01*
X114981000Y-78994000D02*
X115439500Y-79452500D01*
X91288391Y-96082609D02*
X92050391Y-96082609D01*
X59991000Y-96266000D02*
X59355000Y-95630000D01*
D51*
X92050391Y-100400609D02*
X90805000Y-101646000D01*
X135433641Y-79452500D02*
X135047000Y-79839141D01*
D53*
X91260000Y-87216950D02*
X91260000Y-87436345D01*
D43*
X115990000Y-63500000D02*
X115990000Y-71120000D01*
D45*
X61895000Y-83897873D02*
X63662493Y-82130380D01*
D51*
X145412676Y-79452500D02*
X146685000Y-79452500D01*
D45*
X59355000Y-81780281D02*
X59355000Y-81056812D01*
D49*
X106047879Y-88416169D02*
X106535128Y-88903418D01*
D51*
X207811250Y-107783750D02*
X208907279Y-108879779D01*
D53*
X113150000Y-102645000D02*
X114300000Y-102645000D01*
D51*
X156832500Y-86932500D02*
X156845000Y-86945000D01*
X173703366Y-99060000D02*
X174060183Y-99416817D01*
X167005000Y-95250000D02*
X168079754Y-94175246D01*
D47*
X79078291Y-84333170D02*
X79591461Y-83820000D01*
D51*
X172303708Y-98643708D02*
X170398708Y-98643708D01*
X169816168Y-86870000D02*
X170180000Y-86870000D01*
X167005000Y-101645000D02*
X167005000Y-99495618D01*
X134722500Y-79452500D02*
X133985000Y-78715000D01*
X153737500Y-86927500D02*
X154300000Y-86927500D01*
D45*
X119380000Y-101165000D02*
X119380000Y-99883991D01*
X88265000Y-95630000D02*
X87629000Y-96266000D01*
D43*
X171450000Y-99695000D02*
X171450000Y-99060000D01*
D45*
X76881000Y-95630000D02*
X75865000Y-95630000D01*
D43*
X210955168Y-127000000D02*
X210025000Y-126069832D01*
D51*
X110490000Y-95950000D02*
X110490000Y-94755705D01*
X180645572Y-100060648D02*
X178277241Y-100060648D01*
D45*
X66392215Y-88617215D02*
X66154287Y-88855143D01*
D53*
X106045000Y-88900000D02*
X106102351Y-88957351D01*
D45*
X115990000Y-73921000D02*
X115990000Y-71120000D01*
X66461645Y-88547785D02*
X66392215Y-88617215D01*
D51*
X136138359Y-79839141D02*
X136525000Y-79452500D01*
D45*
X62694234Y-78740000D02*
X61895000Y-78740000D01*
X64435000Y-95630000D02*
X65071000Y-96266000D01*
D43*
X212263000Y-107540000D02*
X211680000Y-107540000D01*
D45*
X65071000Y-96266000D02*
X63165000Y-96266000D01*
D46*
X229870000Y-105052500D02*
X230842514Y-105052500D01*
D45*
X114473000Y-79452500D02*
X114981000Y-79452500D01*
D49*
X111125000Y-88265000D02*
X111125000Y-87007500D01*
D45*
X168912487Y-84244513D02*
X169203962Y-83953038D01*
X119380000Y-99883991D02*
X118255004Y-98758995D01*
D43*
X215819000Y-107540000D02*
X216125000Y-107540000D01*
D47*
X79078291Y-86648054D02*
X79078291Y-84333170D01*
D51*
X171450000Y-99060000D02*
X173703366Y-99060000D01*
D45*
X59690000Y-82115280D02*
X59690000Y-81280000D01*
D51*
X135433641Y-79452500D02*
X134722500Y-79452500D01*
X167856910Y-98643708D02*
X170398708Y-98643708D01*
X169035000Y-86870000D02*
X167652500Y-86870000D01*
D49*
X106622649Y-88957351D02*
X108585000Y-88957351D01*
D51*
X174060183Y-99416817D02*
X173287074Y-98643708D01*
X154305000Y-86932500D02*
X156832500Y-86932500D01*
D45*
X88265000Y-95630000D02*
X88901000Y-96266000D01*
D43*
X212263000Y-107540000D02*
X211124895Y-107540000D01*
D51*
X154300000Y-86927500D02*
X154305000Y-86932500D01*
D52*
X180340000Y-94825000D02*
X181869699Y-94825000D01*
D45*
X79020154Y-96266000D02*
X79167000Y-96266000D01*
D51*
X133985000Y-78715000D02*
X133449000Y-78715000D01*
X205105000Y-105077500D02*
X206541250Y-106513750D01*
D45*
X77389000Y-95630000D02*
X76881000Y-95630000D01*
X91105000Y-96266000D02*
X91288391Y-96082609D01*
D43*
X216535000Y-106172000D02*
X216535000Y-105027500D01*
D51*
X171450000Y-94175246D02*
X173159754Y-95885000D01*
D45*
X207811250Y-107148750D02*
X207811250Y-107783750D01*
X66975000Y-87930000D02*
X67592785Y-88547785D01*
D43*
X218222737Y-122137263D02*
X217995000Y-122365000D01*
X218222737Y-120950274D02*
X218935439Y-121662976D01*
X218222737Y-121373168D02*
X218222737Y-121702737D01*
D44*
X222558079Y-125653807D02*
X223269272Y-126365000D01*
D43*
X218222737Y-113287737D02*
X218222737Y-120432737D01*
X217995000Y-122365000D02*
X217170000Y-123190000D01*
X218222737Y-120432737D02*
X218222737Y-121373168D01*
X219214569Y-122365000D02*
X217995000Y-122365000D01*
D44*
X222558079Y-123073643D02*
X222558079Y-125653807D01*
X221849436Y-122365000D02*
X222558079Y-123073643D01*
X220345000Y-122365000D02*
X221849436Y-122365000D01*
D43*
X219682737Y-121702737D02*
X220345000Y-122365000D01*
X218222737Y-121702737D02*
X218222737Y-122137263D01*
X217170000Y-125100000D02*
X214630000Y-127000000D01*
D44*
X223269272Y-126365000D02*
X224790000Y-126365000D01*
D43*
X217170000Y-123190000D02*
X217170000Y-125100000D01*
X218222737Y-121373168D02*
X219214569Y-122365000D01*
X215425000Y-110490000D02*
X218222737Y-113287737D01*
X218222737Y-121702737D02*
X219682737Y-121702737D01*
X219214569Y-122365000D02*
X220345000Y-122365000D01*
X218222737Y-120432737D02*
X218222737Y-120950274D01*
D45*
X203092500Y-102127500D02*
X202565000Y-102655000D01*
D46*
X210185000Y-80645000D02*
X210820000Y-80645000D01*
D52*
X202565000Y-101600000D02*
X202565000Y-102870000D01*
D45*
X203615000Y-102127500D02*
X203092500Y-102127500D01*
D52*
X207645000Y-105077500D02*
X205745000Y-103177500D01*
D46*
X212680000Y-71800000D02*
X212680000Y-80600000D01*
D45*
X202565000Y-102655000D02*
X202565000Y-102870000D01*
D52*
X202565000Y-102870000D02*
X202565000Y-103177500D01*
X210185000Y-81280000D02*
X210185000Y-80066405D01*
D45*
X203092500Y-102127500D02*
X202565000Y-101600000D01*
X205745000Y-102238323D02*
X205677149Y-102170472D01*
X205745000Y-103177500D02*
X205745000Y-102238323D01*
D46*
X210820000Y-80645000D02*
X210185000Y-81280000D01*
X213360000Y-71120000D02*
X212680000Y-71800000D01*
D43*
X220345000Y-63500000D02*
X215265000Y-63500000D01*
D46*
X213950000Y-80645000D02*
X212725000Y-80645000D01*
X210775000Y-71800000D02*
X210185000Y-72390000D01*
D45*
X205745000Y-103177500D02*
X202565000Y-103177500D01*
D43*
X220345000Y-71120000D02*
X215265000Y-71120000D01*
D46*
X212680000Y-80600000D02*
X212725000Y-80645000D01*
D45*
X202565000Y-103177500D02*
X203615000Y-102127500D01*
D46*
X210185000Y-72390000D02*
X210185000Y-80645000D01*
D45*
X203615000Y-102127500D02*
X205105000Y-102127500D01*
D46*
X212680000Y-71800000D02*
X210775000Y-71800000D01*
X210820000Y-80645000D02*
X212725000Y-80645000D01*
X215265000Y-71120000D02*
X215265000Y-79330000D01*
D44*
X215265000Y-63500000D02*
X215265000Y-71120000D01*
D43*
X220345000Y-63500000D02*
X220345000Y-71120000D01*
D46*
X215265000Y-79330000D02*
X213950000Y-80645000D01*
D52*
X210185000Y-80645000D02*
X210185000Y-81280000D01*
X210185000Y-80066405D02*
X210403063Y-79848342D01*
D46*
X215265000Y-71120000D02*
X213360000Y-71120000D01*
D43*
X145575000Y-98585000D02*
X140970000Y-98585000D01*
X220345000Y-126365000D02*
X220345000Y-128270000D01*
X147955000Y-100965000D02*
X148909283Y-100965000D01*
X137640000Y-97000000D02*
X139225000Y-98585000D01*
X147955000Y-100965000D02*
X145575000Y-98585000D01*
X139225000Y-98585000D02*
X140970000Y-98585000D01*
X220345000Y-129540000D02*
X220345000Y-128270000D01*
X133985000Y-97000000D02*
X137640000Y-97000000D01*
X133985000Y-93000000D02*
X127075000Y-93000000D01*
X120557000Y-89230982D02*
X120557000Y-86692500D01*
X124251018Y-92925000D02*
X120557000Y-89230982D01*
X127075000Y-93000000D02*
X127000000Y-92925000D01*
X127000000Y-92925000D02*
X124251018Y-92925000D01*
D52*
X225425000Y-108585000D02*
X223230000Y-108585000D01*
X219880238Y-111125000D02*
X219880238Y-112379050D01*
X220345000Y-113475000D02*
X220345000Y-111722500D01*
X223230000Y-108585000D02*
X220867366Y-110947634D01*
X220345000Y-111722500D02*
X220095258Y-111472757D01*
X220345000Y-110673095D02*
X220436548Y-110581548D01*
X220867366Y-110947634D02*
X220867366Y-112399762D01*
X220095258Y-111472757D02*
X219112500Y-110490000D01*
X219112500Y-110490000D02*
X220345000Y-110490000D01*
X220345000Y-111722500D02*
X220345000Y-110673095D01*
X220345000Y-110490000D02*
X220436548Y-110581548D01*
D45*
X150902890Y-102915000D02*
X151720000Y-102915000D01*
D51*
X78563877Y-75752596D02*
X79167000Y-75752596D01*
D49*
X84330417Y-76381437D02*
X84959258Y-75752596D01*
D52*
X103463437Y-91161472D02*
X102764761Y-91860148D01*
D54*
X162874846Y-91754846D02*
X164388920Y-93268920D01*
D47*
X116796808Y-102826809D02*
X116840000Y-102870001D01*
D51*
X194600645Y-103151133D02*
X200942597Y-103151133D01*
D45*
X156772034Y-88983861D02*
X163098086Y-95309913D01*
D43*
X182361750Y-102862571D02*
X180005000Y-102862571D01*
D45*
X137421110Y-89244167D02*
X136410906Y-88233963D01*
D49*
X74159346Y-76454000D02*
X74159346Y-78553932D01*
D52*
X102434881Y-94825000D02*
X102746300Y-95136419D01*
X113711000Y-83568562D02*
X113207921Y-84071641D01*
X102764761Y-93716429D02*
X102764761Y-96266000D01*
D51*
X174671000Y-87258591D02*
X172762216Y-89167375D01*
D52*
X148590000Y-86915000D02*
X148590000Y-87616326D01*
D43*
X99850000Y-97000000D02*
X100810000Y-97000000D01*
D51*
X172720000Y-84995000D02*
X173814000Y-84995000D01*
D43*
X171450000Y-103505000D02*
X171450000Y-105410000D01*
X220980000Y-107950000D02*
X220980000Y-106680000D01*
D45*
X107905000Y-102915000D02*
X108630000Y-102915000D01*
D43*
X97790000Y-100965000D02*
X97790000Y-99060000D01*
X92710000Y-104241440D02*
X91359000Y-104241440D01*
D50*
X148825000Y-111340000D02*
X148825000Y-105010000D01*
D45*
X108630000Y-102915000D02*
X109265000Y-102915000D01*
X149560572Y-104257318D02*
X149560572Y-104523018D01*
X173813000Y-94900000D02*
X177800000Y-94900000D01*
D51*
X89314273Y-100285727D02*
X89314273Y-100786081D01*
D49*
X74159346Y-76454000D02*
X74159346Y-76442250D01*
D52*
X101656190Y-94825000D02*
X101265000Y-94825000D01*
D45*
X172117311Y-93204311D02*
X173813000Y-94900000D01*
D52*
X122855000Y-85598000D02*
X122855000Y-89408000D01*
D51*
X79167000Y-75752596D02*
X79562596Y-75752596D01*
D53*
X116615000Y-102645000D02*
X116050000Y-102645000D01*
D45*
X147275000Y-102915000D02*
X147910000Y-102915000D01*
D43*
X89210218Y-103448390D02*
X90003268Y-104241440D01*
D51*
X183396434Y-102862571D02*
X186754684Y-106220821D01*
D45*
X149225000Y-102235000D02*
X150009347Y-101450653D01*
X150540000Y-102915000D02*
X150213832Y-102915000D01*
D52*
X122855000Y-89408000D02*
X124215906Y-90768906D01*
D51*
X201149788Y-102915000D02*
X201149788Y-103708190D01*
D49*
X74159346Y-78553932D02*
X74365414Y-78760000D01*
D45*
X147561000Y-102235000D02*
X147955000Y-102235000D01*
D52*
X102764761Y-96266000D02*
X102764761Y-96975761D01*
D49*
X79521398Y-78760000D02*
X79261258Y-78499860D01*
D43*
X100810000Y-97000000D02*
X101755000Y-97000000D01*
D51*
X194364512Y-102915000D02*
X194600645Y-103151133D01*
D45*
X147955000Y-102235000D02*
X149225000Y-102235000D01*
D46*
X161415606Y-102915000D02*
X162226524Y-103725918D01*
D51*
X90805000Y-99765000D02*
X89835000Y-99765000D01*
D52*
X113711000Y-83566000D02*
X113203000Y-83566000D01*
D51*
X79562596Y-75752596D02*
X80605486Y-75752596D01*
D45*
X150540000Y-102915000D02*
X150902890Y-102915000D01*
X168455000Y-105119527D02*
X169446117Y-106110644D01*
X169446117Y-106110644D02*
X170694537Y-106110644D01*
D43*
X211946450Y-112251450D02*
X212581450Y-111616450D01*
D51*
X182299150Y-100838000D02*
X182299150Y-102077432D01*
D52*
X104140000Y-90170000D02*
X102764761Y-91545239D01*
D50*
X95250000Y-107696000D02*
X95250000Y-106487451D01*
D43*
X211802901Y-112395000D02*
X211946450Y-112251450D01*
D45*
X182193291Y-102694112D02*
X182361750Y-102862571D01*
D49*
X90590000Y-78760000D02*
X89603682Y-78760000D01*
D53*
X168094226Y-103325000D02*
X168039613Y-103379613D01*
D45*
X106045000Y-102915000D02*
X106725000Y-102915000D01*
X112117996Y-102915000D02*
X112707996Y-103505000D01*
D49*
X89603682Y-78760000D02*
X89410417Y-78566735D01*
X84330417Y-76310700D02*
X83772313Y-75752596D01*
D43*
X171450000Y-103090000D02*
X171450000Y-103505000D01*
X220054091Y-108916912D02*
X220980000Y-107991003D01*
D51*
X100750000Y-78760000D02*
X100750000Y-79675927D01*
D43*
X220980000Y-106045000D02*
X220980000Y-105040000D01*
D51*
X188595000Y-108465000D02*
X188595000Y-107315000D01*
X175680940Y-104202211D02*
X173457151Y-106426000D01*
D45*
X152400000Y-102235000D02*
X152400000Y-102227551D01*
X101265000Y-96510000D02*
X101265000Y-96545000D01*
D54*
X164672500Y-85046285D02*
X163526007Y-85046285D01*
D43*
X92710000Y-104140000D02*
X93585143Y-104140000D01*
X90003268Y-104241440D02*
X91359000Y-104241440D01*
D51*
X196895000Y-102915000D02*
X194364512Y-102915000D01*
D52*
X103124000Y-91186000D02*
X103551000Y-91186000D01*
D53*
X161880000Y-102915000D02*
X161880000Y-102927881D01*
D45*
X182071175Y-102183291D02*
X181792054Y-101904170D01*
D52*
X100750000Y-82385642D02*
X100750000Y-79675927D01*
D47*
X116791769Y-102821770D02*
X116615000Y-102645000D01*
D45*
X149957535Y-88983861D02*
X156772034Y-88983861D01*
D51*
X74849000Y-75752596D02*
X78563877Y-75752596D01*
D45*
X111995000Y-107640000D02*
X111995000Y-111340000D01*
X93580000Y-104145143D02*
X93585143Y-104140000D01*
D53*
X100447916Y-95183211D02*
X100125162Y-95505965D01*
D43*
X100447916Y-94825000D02*
X100052958Y-94430042D01*
D45*
X102235000Y-99695000D02*
X99060000Y-99695000D01*
D53*
X168455000Y-103325000D02*
X168094226Y-103325000D01*
D52*
X102764761Y-96476152D02*
X102389518Y-96851395D01*
D43*
X94813560Y-107696000D02*
X95250000Y-107696000D01*
D45*
X106725000Y-102825000D02*
X107315000Y-102235000D01*
D51*
X93496856Y-75752596D02*
X94183532Y-76439272D01*
D43*
X101265000Y-96510000D02*
X101755000Y-97000000D01*
D53*
X125685000Y-102915000D02*
X128860000Y-102915000D01*
D52*
X148091167Y-89244167D02*
X146566428Y-90768906D01*
X148590000Y-87616326D02*
X148590000Y-88745334D01*
D47*
X118084085Y-103344327D02*
X118084085Y-105435915D01*
D45*
X147275000Y-102915000D02*
X147955000Y-102235000D01*
D50*
X95250000Y-106487451D02*
X95250000Y-102870000D01*
D51*
X89835000Y-99765000D02*
X89314273Y-100285727D01*
D43*
X185720000Y-111340000D02*
X185720000Y-106220821D01*
D45*
X146731000Y-103065000D02*
X148763568Y-103065000D01*
D43*
X212720835Y-111477066D02*
X212720835Y-109656801D01*
D45*
X149667510Y-102915000D02*
X150540000Y-102915000D01*
X150540000Y-102915000D02*
X149572514Y-103882486D01*
X164521722Y-102774467D02*
X165126868Y-103379613D01*
D43*
X88333946Y-99695000D02*
X89210218Y-100571272D01*
D45*
X146731000Y-103065000D02*
X148676000Y-105010000D01*
X138945849Y-90768906D02*
X136410906Y-88233963D01*
D52*
X113711000Y-83566000D02*
X113711000Y-83568562D01*
X111760000Y-90170000D02*
X104140000Y-90170000D01*
D46*
X155830848Y-104249054D02*
X157809078Y-102270824D01*
D53*
X125685000Y-102915000D02*
X126365000Y-102235000D01*
D49*
X80430000Y-78760000D02*
X79521398Y-78760000D01*
D45*
X151720000Y-102915000D02*
X151337597Y-103297403D01*
D53*
X126365000Y-102235000D02*
X126365000Y-100330000D01*
D47*
X118637500Y-102977500D02*
X118450912Y-102977500D01*
D52*
X102764761Y-91545239D02*
X103124000Y-91186000D01*
D49*
X100052958Y-96374422D02*
X99423449Y-97003931D01*
D53*
X125730000Y-99695000D02*
X120198907Y-99695000D01*
D45*
X164453529Y-93204311D02*
X172117311Y-93204311D01*
D47*
X118450912Y-102977500D02*
X118084085Y-103344327D01*
D45*
X151720000Y-102915000D02*
X152400000Y-102235000D01*
D43*
X167240000Y-107715000D02*
X167240000Y-111340000D01*
D45*
X154746834Y-99880717D02*
X161445693Y-99880717D01*
X148825000Y-104465000D02*
X148825000Y-105010000D01*
D52*
X112695000Y-91186000D02*
X113711000Y-90170000D01*
D45*
X151010875Y-103297403D02*
X149759877Y-104548401D01*
D43*
X212720835Y-109656801D02*
X213460724Y-108916912D01*
D45*
X115570000Y-103505000D02*
X112707996Y-103505000D01*
D52*
X103401306Y-96902545D02*
X103632589Y-96902545D01*
D45*
X150009347Y-101450653D02*
X150009347Y-100309163D01*
D50*
X92784161Y-104021612D02*
X92784161Y-104014361D01*
D51*
X188595000Y-107315000D02*
X188595000Y-107059424D01*
D50*
X93580000Y-111340000D02*
X95250000Y-109670000D01*
D46*
X157809078Y-102270824D02*
X161889176Y-102270824D01*
D49*
X89410417Y-78566735D02*
X89410417Y-76233631D01*
D43*
X212581450Y-111616450D02*
X212581450Y-113128063D01*
D49*
X88926242Y-102545218D02*
X89210218Y-102545218D01*
D52*
X102764761Y-91860148D02*
X102764761Y-92456000D01*
D45*
X146104854Y-97457274D02*
X143973188Y-97457274D01*
X165126868Y-103379613D02*
X168039613Y-103379613D01*
X105830000Y-78760000D02*
X105830000Y-79679509D01*
X126077940Y-88233963D02*
X125041294Y-87197317D01*
D43*
X171450000Y-106089571D02*
X170759139Y-106780432D01*
D52*
X102764761Y-92456000D02*
X102764761Y-93716429D01*
D53*
X168455000Y-103325000D02*
X168220000Y-103560000D01*
D43*
X75165000Y-103632000D02*
X75165000Y-103127000D01*
D45*
X108585000Y-99407527D02*
X109285043Y-98707484D01*
D49*
X74159346Y-76442250D02*
X74159346Y-76332942D01*
D52*
X125041294Y-84871198D02*
X124375843Y-84205747D01*
X102235000Y-81160927D02*
X100750000Y-79675927D01*
X146566428Y-90768906D02*
X142165961Y-90768906D01*
D43*
X102789000Y-97000000D02*
X106045000Y-97000000D01*
D45*
X106725000Y-102915000D02*
X107270000Y-102915000D01*
D49*
X85510000Y-78760000D02*
X84523682Y-78760000D01*
D51*
X173814000Y-84995000D02*
X174671000Y-85852000D01*
D43*
X93585143Y-104140000D02*
X94615000Y-104140000D01*
D53*
X116050000Y-102645000D02*
X116050000Y-103025000D01*
D51*
X94655333Y-78760000D02*
X95670000Y-78760000D01*
D45*
X148763568Y-103065000D02*
X148825000Y-103003568D01*
D43*
X212581450Y-113128063D02*
X212220133Y-113489380D01*
D51*
X196895000Y-102915000D02*
X199980000Y-102915000D01*
D45*
X163098086Y-101509662D02*
X164449893Y-102861469D01*
D43*
X171450000Y-105410000D02*
X171450000Y-106089571D01*
D52*
X102235000Y-83820000D02*
X102184358Y-83820000D01*
D45*
X163991931Y-102774467D02*
X164521722Y-102774467D01*
D50*
X95250000Y-109670000D02*
X95250000Y-107696000D01*
D45*
X149534391Y-99834207D02*
X148481787Y-99834207D01*
D43*
X172606291Y-104253709D02*
X172198709Y-104253709D01*
X185164589Y-105665411D02*
X182361750Y-102862571D01*
D52*
X113551169Y-84205747D02*
X112863536Y-84893380D01*
D43*
X220980000Y-106680000D02*
X220980000Y-106045000D01*
D51*
X155240000Y-105202887D02*
X156321136Y-105202887D01*
D43*
X97790000Y-99060000D02*
X99850000Y-97000000D01*
X213460724Y-108916912D02*
X220054091Y-108916912D01*
D49*
X78829646Y-75752596D02*
X78563877Y-75752596D01*
D52*
X103551000Y-91186000D02*
X112695000Y-91186000D01*
D45*
X182193291Y-102183291D02*
X182168868Y-102207714D01*
X106866154Y-100185117D02*
X102725117Y-100185117D01*
D43*
X99695000Y-94072084D02*
X99695000Y-91440000D01*
D51*
X172762216Y-89167375D02*
X172371625Y-89167375D01*
D49*
X84523682Y-78760000D02*
X84330417Y-78566735D01*
D45*
X107270000Y-102915000D02*
X111995000Y-107640000D01*
D52*
X124215906Y-90768906D02*
X126060876Y-90768906D01*
D53*
X168455000Y-102645000D02*
X168455000Y-103325000D01*
D51*
X80605486Y-75752596D02*
X88057000Y-75752596D01*
D53*
X116050000Y-103025000D02*
X115570000Y-103505000D01*
D52*
X102764761Y-96266000D02*
X102764761Y-96476152D01*
X102764761Y-91545239D02*
X102764761Y-92456000D01*
D51*
X194600645Y-103151133D02*
X193641632Y-104110146D01*
D45*
X107905000Y-102915000D02*
X109900000Y-102915000D01*
D51*
X199980000Y-102915000D02*
X201149788Y-102915000D01*
D45*
X168039613Y-103379613D02*
X168220000Y-103560000D01*
X108585000Y-101600000D02*
X108585000Y-99407527D01*
D54*
X162874846Y-85697446D02*
X162874846Y-91754846D01*
D47*
X116947500Y-102977500D02*
X116791769Y-102821770D01*
D45*
X94450000Y-104140000D02*
X94615000Y-104140000D01*
D51*
X187770288Y-106234712D02*
X185733890Y-106234712D01*
D43*
X220980000Y-107991003D02*
X220980000Y-107950000D01*
D52*
X112863536Y-83905464D02*
X112863536Y-84893380D01*
D45*
X146731000Y-103065000D02*
X147561000Y-102235000D01*
D43*
X177020580Y-102862571D02*
X175680940Y-104202211D01*
X175629442Y-104253709D02*
X172606291Y-104253709D01*
D52*
X101265000Y-94825000D02*
X102434881Y-94825000D01*
X123736096Y-83566000D02*
X113711000Y-83566000D01*
D49*
X89410417Y-76381437D02*
X90039258Y-75752596D01*
D43*
X75165000Y-103632000D02*
X75732000Y-103065000D01*
D51*
X174671000Y-85852000D02*
X174671000Y-86868000D01*
D45*
X168220000Y-103560000D02*
X168455000Y-103795000D01*
D53*
X168455000Y-102916581D02*
X168115364Y-103256217D01*
D52*
X113711000Y-85598000D02*
X114537870Y-84771130D01*
D51*
X188595000Y-107059424D02*
X187770288Y-106234712D01*
D43*
X168174568Y-106780432D02*
X167957500Y-106997500D01*
D49*
X79261258Y-76200000D02*
X79261258Y-75846854D01*
D43*
X97790000Y-103505000D02*
X97790000Y-100965000D01*
D45*
X149572514Y-103882486D02*
X149572514Y-104006545D01*
D43*
X101265000Y-96545000D02*
X100810000Y-97000000D01*
D54*
X163526007Y-85046285D02*
X162874846Y-85697446D01*
D51*
X182299150Y-100838000D02*
X180274579Y-102862571D01*
D43*
X172606291Y-104253709D02*
X171450000Y-105410000D01*
D45*
X170694537Y-106110644D02*
X171236206Y-105568975D01*
D52*
X124375843Y-84205747D02*
X123736096Y-83566000D01*
X114537870Y-84771130D02*
X122028130Y-84771130D01*
D43*
X170759139Y-106780432D02*
X168174568Y-106780432D01*
D45*
X152400000Y-102227551D02*
X154746834Y-99880717D01*
D51*
X182299150Y-97179506D02*
X182299150Y-100838000D01*
X193641632Y-104110146D02*
X193169366Y-104110146D01*
X181364654Y-96245010D02*
X182299150Y-97179506D01*
D53*
X120198907Y-99695000D02*
X118667390Y-98163483D01*
D43*
X97155000Y-104140000D02*
X97790000Y-103505000D01*
D44*
X208999977Y-112395000D02*
X211802901Y-112395000D01*
D45*
X182193291Y-102183291D02*
X182193291Y-102694112D01*
D49*
X79261258Y-78499860D02*
X79261258Y-76200000D01*
X100052958Y-94430042D02*
X100052958Y-96374422D01*
D45*
X106725000Y-102915000D02*
X106725000Y-102825000D01*
D51*
X194364512Y-102915000D02*
X193169366Y-104110146D01*
D52*
X126060876Y-90768906D02*
X142165961Y-90768906D01*
D43*
X172198709Y-104253709D02*
X171450000Y-103505000D01*
D52*
X102235000Y-88900000D02*
X102235000Y-83820000D01*
D45*
X150009347Y-100309163D02*
X149534391Y-99834207D01*
D52*
X146050000Y-85120000D02*
X148590000Y-86915000D01*
D46*
X161290000Y-102915000D02*
X161880000Y-102915000D01*
D45*
X107270000Y-102915000D02*
X107905000Y-102915000D01*
D47*
X116840000Y-109220000D02*
X114720000Y-111340000D01*
D51*
X200356598Y-102915000D02*
X199980000Y-102915000D01*
D45*
X151337597Y-103297403D02*
X149225000Y-105410000D01*
D49*
X88781576Y-75752596D02*
X88057000Y-75752596D01*
X84330417Y-76454000D02*
X84330417Y-75995179D01*
D45*
X182193291Y-102345817D02*
X182680904Y-102833430D01*
D51*
X172720000Y-84995000D02*
X170180000Y-84995000D01*
D43*
X212220133Y-113489380D02*
X210094357Y-113489380D01*
D53*
X168455000Y-102645000D02*
X168455000Y-102916581D01*
D45*
X142165961Y-90768906D02*
X138945849Y-90768906D01*
D49*
X100052958Y-96374422D02*
X100377788Y-96699252D01*
D45*
X182168868Y-102207714D02*
X181369884Y-102207714D01*
D51*
X79934272Y-75752596D02*
X80605486Y-75752596D01*
D53*
X128860000Y-102915000D02*
X128905000Y-102870000D01*
D51*
X94183532Y-76439272D02*
X94183532Y-78288199D01*
X177800000Y-94900000D02*
X179145010Y-96245010D01*
D47*
X118637500Y-102977500D02*
X116947500Y-102977500D01*
D43*
X101265000Y-94825000D02*
X100447916Y-94825000D01*
D47*
X118084085Y-105435915D02*
X116840000Y-106680000D01*
D52*
X113711000Y-90170000D02*
X113711000Y-85598000D01*
D49*
X88556934Y-103065000D02*
X89210218Y-103718284D01*
D45*
X107315000Y-102235000D02*
X107315000Y-100633963D01*
D49*
X79261258Y-76200000D02*
X79708662Y-75752596D01*
D51*
X155240000Y-104249054D02*
X155240000Y-105202887D01*
D52*
X102764761Y-93716429D02*
X101656190Y-94825000D01*
X124375843Y-84205747D02*
X113551169Y-84205747D01*
D43*
X99695000Y-91440000D02*
X102235000Y-88900000D01*
D51*
X179145010Y-96245010D02*
X181364654Y-96245010D01*
D45*
X102725117Y-100185117D02*
X102235000Y-99695000D01*
X151337597Y-103297403D02*
X151010875Y-103297403D01*
D43*
X210094357Y-113489380D02*
X208999977Y-112395000D01*
D46*
X161889176Y-102270824D02*
X162319070Y-102270824D01*
D43*
X100052958Y-94430042D02*
X99695000Y-94072084D01*
X212581450Y-111616450D02*
X212720835Y-111477066D01*
D51*
X96765638Y-78760000D02*
X95670000Y-78760000D01*
D49*
X74365414Y-78760000D02*
X75350000Y-78760000D01*
D43*
X89210218Y-102545218D02*
X89210218Y-103448390D01*
D51*
X89835000Y-99765000D02*
X88403946Y-99765000D01*
D45*
X119380000Y-103065000D02*
X117045993Y-103065000D01*
X114421055Y-98038096D02*
X118676346Y-98038096D01*
D49*
X89353946Y-100715000D02*
X89210218Y-100571272D01*
X74159346Y-76454000D02*
X74159346Y-75752596D01*
D51*
X182299150Y-101765287D02*
X182299150Y-100838000D01*
D45*
X147910000Y-102915000D02*
X149667510Y-102915000D01*
D52*
X102764761Y-96975761D02*
X102789000Y-97000000D01*
X102235000Y-83820000D02*
X102235000Y-81160927D01*
D45*
X148590000Y-87616326D02*
X149957535Y-88983861D01*
D43*
X175680940Y-104202211D02*
X175629442Y-104253709D01*
D49*
X84330417Y-78566735D02*
X84330417Y-76454000D01*
D45*
X142875000Y-103065000D02*
X146731000Y-103065000D01*
D43*
X180005000Y-102862571D02*
X177020580Y-102862571D01*
X101755000Y-97000000D02*
X102789000Y-97000000D01*
D51*
X182299150Y-102077432D02*
X182193291Y-102183291D01*
D45*
X113751667Y-98707484D02*
X114421055Y-98038096D01*
X109900000Y-102915000D02*
X112117996Y-102915000D01*
X150213832Y-102915000D02*
X148825000Y-104303832D01*
D52*
X113203000Y-83566000D02*
X112863536Y-83905464D01*
D51*
X156321136Y-105202887D02*
X158472156Y-103051867D01*
X185720000Y-111340000D02*
X188595000Y-108465000D01*
D53*
X126365000Y-100330000D02*
X125730000Y-99695000D01*
D45*
X124460000Y-103065000D02*
X128710000Y-103065000D01*
D52*
X125041294Y-87197317D02*
X125041294Y-84871198D01*
D45*
X147275000Y-102915000D02*
X148825000Y-104465000D01*
X168455000Y-103795000D02*
X168455000Y-105119527D01*
D43*
X91359000Y-104241440D02*
X94813560Y-107696000D01*
D49*
X74159346Y-76442250D02*
X74849000Y-75752596D01*
X100377788Y-96699252D02*
X100455426Y-96699252D01*
D45*
X148091167Y-89244167D02*
X137421110Y-89244167D01*
X128710000Y-103065000D02*
X128905000Y-102870000D01*
D47*
X116840000Y-106680000D02*
X116840000Y-109220000D01*
D52*
X148590000Y-88745334D02*
X148091167Y-89244167D01*
D51*
X201149788Y-103708190D02*
X200356598Y-102915000D01*
D45*
X107315000Y-100633963D02*
X106866154Y-100185117D01*
X143973188Y-97457274D02*
X143396464Y-96880550D01*
D52*
X112863536Y-89066464D02*
X111760000Y-90170000D01*
D45*
X163098086Y-95309913D02*
X163098086Y-101509662D01*
X150902890Y-102915000D02*
X149560572Y-104257318D01*
D51*
X158472156Y-103051867D02*
X162982809Y-103051867D01*
D43*
X101265000Y-94825000D02*
X101265000Y-96510000D01*
D45*
X149270000Y-102915000D02*
X149667510Y-102915000D01*
X148825000Y-104303832D02*
X148825000Y-105010000D01*
D46*
X155830848Y-104249054D02*
X155240000Y-104249054D01*
D49*
X88556460Y-103065000D02*
X88926242Y-102695218D01*
D52*
X102764761Y-96266000D02*
X103401306Y-96902545D01*
D43*
X88403946Y-99765000D02*
X88333946Y-99695000D01*
X167957500Y-106997500D02*
X167240000Y-107715000D01*
D46*
X161290000Y-102915000D02*
X161415606Y-102915000D01*
D45*
X99060000Y-99695000D02*
X97790000Y-100965000D01*
D51*
X182361750Y-102862571D02*
X183396434Y-102862571D01*
D45*
X143396464Y-96880550D02*
X143396464Y-91999409D01*
X136410906Y-88233963D02*
X126077940Y-88233963D01*
D49*
X89410417Y-76381437D02*
X88781576Y-75752596D01*
D51*
X201149788Y-103708190D02*
X201554729Y-104113131D01*
X73579000Y-75752596D02*
X74849000Y-75752596D01*
X94183532Y-78288199D02*
X94655333Y-78760000D01*
D45*
X182193291Y-102183291D02*
X182193291Y-102345817D01*
D43*
X185720000Y-106220821D02*
X185164589Y-105665411D01*
D45*
X148481787Y-99834207D02*
X146104854Y-97457274D01*
D47*
X116791769Y-102821770D02*
X116796808Y-102826809D01*
D45*
X109285043Y-98707484D02*
X113751667Y-98707484D01*
D51*
X183396434Y-102862571D02*
X182299150Y-101765287D01*
D47*
X114720000Y-111340000D02*
X111995000Y-111340000D01*
D43*
X89210218Y-102545218D02*
X89210218Y-100571272D01*
D52*
X112863536Y-84893380D02*
X112863536Y-89066464D01*
D53*
X168455000Y-102916581D02*
X168455000Y-103795000D01*
D50*
X148825000Y-105010000D02*
X148825000Y-103003568D01*
D52*
X122028130Y-84771130D02*
X122855000Y-85598000D01*
D45*
X109900000Y-102915000D02*
X108585000Y-101600000D01*
D50*
X95250000Y-106487451D02*
X92784161Y-104021612D01*
D52*
X102184358Y-83820000D02*
X100750000Y-82385642D01*
D49*
X87630000Y-103065000D02*
X88556460Y-103065000D01*
X79261258Y-76200000D02*
X78813854Y-75752596D01*
D51*
X186230821Y-106220821D02*
X185720000Y-106220821D01*
X174671000Y-86868000D02*
X174671000Y-87376000D01*
D45*
X143396464Y-91999409D02*
X142165961Y-90768906D01*
D43*
X94615000Y-104140000D02*
X97155000Y-104140000D01*
D51*
X88057000Y-75752596D02*
X93496856Y-75752596D01*
D47*
X119380000Y-102977500D02*
X118637500Y-102977500D01*
D51*
X174671000Y-86868000D02*
X174671000Y-87258591D01*
D46*
X160670160Y-82503345D02*
X161963923Y-82503345D01*
X155315138Y-84022362D02*
X158402341Y-84022362D01*
D47*
X166483833Y-85750219D02*
X165887767Y-86346285D01*
D46*
X158776742Y-84396763D02*
X158776742Y-85412998D01*
X159151142Y-84022362D02*
X159369252Y-83804252D01*
X154911250Y-84426250D02*
X155315138Y-84022362D01*
X154305000Y-85032500D02*
X154911250Y-84426250D01*
X158776742Y-85412998D02*
X159060029Y-85696285D01*
X158402341Y-84022362D02*
X158776742Y-84396763D01*
D45*
X154247500Y-85090000D02*
X154305000Y-85032500D01*
D46*
X158402341Y-84022362D02*
X159151142Y-84022362D01*
X159369252Y-83804252D02*
X160670160Y-82503345D01*
D47*
X165887767Y-86346285D02*
X164672500Y-86346285D01*
D46*
X159060029Y-85696285D02*
X160447500Y-85696285D01*
D45*
X148590000Y-85090000D02*
X154247500Y-85090000D01*
D46*
X158776742Y-84396763D02*
X159369252Y-83804252D01*
D47*
X166483833Y-82503345D02*
X166483833Y-85750219D01*
D46*
X154851889Y-84496463D02*
X154851889Y-85089049D01*
D47*
X160447500Y-86346285D02*
X158235800Y-86346285D01*
D46*
X157760679Y-85871164D02*
X157009515Y-85120000D01*
D49*
X219075000Y-90170000D02*
X219075000Y-78150000D01*
D47*
X158235800Y-86346285D02*
X157760679Y-85871164D01*
D52*
X230374596Y-92953998D02*
X231775000Y-94354402D01*
X206131002Y-92953998D02*
X205105000Y-93980000D01*
X184288813Y-92455649D02*
X185165649Y-92455649D01*
X186690000Y-93980000D02*
X185165649Y-92455649D01*
X177800000Y-92328811D02*
X177800000Y-93025000D01*
X205105000Y-93980000D02*
X186690000Y-93980000D01*
X180340000Y-91875000D02*
X180920649Y-92455649D01*
X230374596Y-92953998D02*
X206131002Y-92953998D01*
X180340000Y-91875000D02*
X178248565Y-91875000D01*
X231775000Y-94354402D02*
X231775000Y-95930000D01*
X180920649Y-92455649D02*
X182338308Y-92455649D01*
X178248565Y-91875000D02*
X177797377Y-92326188D01*
D43*
X117579000Y-93000000D02*
X121257549Y-93000000D01*
X117064500Y-92485500D02*
X116429500Y-91850500D01*
X106045000Y-93000000D02*
X110490000Y-93000000D01*
X116971500Y-92392500D02*
X117064500Y-92485500D01*
X113375000Y-93000000D02*
X113982500Y-92392500D01*
X113375000Y-93000000D02*
X117579000Y-93000000D01*
X116336500Y-91757500D02*
X116429500Y-91850500D01*
X114617500Y-91757500D02*
X115477000Y-90898000D01*
X117064500Y-92485500D02*
X117579000Y-93000000D01*
X123057549Y-94800000D02*
X127000000Y-94800000D01*
X113982500Y-92392500D02*
X116971500Y-92392500D01*
X115477000Y-90898000D02*
X115477000Y-86692500D01*
X113982500Y-92392500D02*
X114617500Y-91757500D01*
X110490000Y-93000000D02*
X113375000Y-93000000D01*
X121257549Y-93000000D02*
X123057549Y-94800000D01*
X114617500Y-91757500D02*
X116336500Y-91757500D01*
X116429500Y-91850500D02*
X115477000Y-90898000D01*
D45*
X212415000Y-125125000D02*
X212390000Y-125100000D01*
D49*
X215425000Y-116945500D02*
X216895500Y-115475000D01*
D52*
X214630000Y-123080172D02*
X215425000Y-122285172D01*
D49*
X215425000Y-119380000D02*
X215425000Y-116945500D01*
D52*
X215425000Y-122285172D02*
X215425000Y-119380000D01*
X214630000Y-125125000D02*
X214630000Y-123080172D01*
X214630000Y-125125000D02*
X212415000Y-125125000D01*
D47*
X167091382Y-85838977D02*
X167091382Y-85182708D01*
X167640000Y-85057500D02*
X167640000Y-85301159D01*
X165944874Y-86996285D02*
X164672500Y-86996285D01*
D45*
X167640000Y-85057500D02*
X167640000Y-82503345D01*
D47*
X167110580Y-85830580D02*
X165944874Y-86996285D01*
X167640000Y-85301159D02*
X167110580Y-85830580D01*
D53*
X113150000Y-101645000D02*
X111170000Y-101645000D01*
X110879615Y-101354615D02*
X110879615Y-99695000D01*
X111170000Y-101645000D02*
X110879615Y-101354615D01*
D45*
X170180000Y-78742500D02*
X170180000Y-78740000D01*
D52*
X170180000Y-78740000D02*
X167640000Y-76917500D01*
D43*
X201930000Y-63500000D02*
X201930000Y-71120000D01*
D45*
X136525000Y-82550000D02*
X136525000Y-85182500D01*
X139065000Y-78715000D02*
X137770000Y-78715000D01*
X139065000Y-78715000D02*
X139065000Y-80010000D01*
X137770000Y-78715000D02*
X136525000Y-77470000D01*
X136525000Y-77470000D02*
X136525000Y-76152500D01*
X139065000Y-80010000D02*
X136525000Y-82550000D01*
X141605000Y-78715000D02*
X141605000Y-79802000D01*
X141605000Y-79802000D02*
X138765000Y-82642000D01*
X138765000Y-82642000D02*
X138765000Y-85182500D01*
X144145000Y-77470000D02*
X144145000Y-76152500D01*
X142900000Y-78715000D02*
X144145000Y-77470000D01*
X141605000Y-78715000D02*
X142900000Y-78715000D01*
X147930000Y-78715000D02*
X146685000Y-77470000D01*
X149225000Y-80010000D02*
X149225000Y-78715000D01*
X148590000Y-80645000D02*
X149225000Y-80010000D01*
X146685000Y-77470000D02*
X146685000Y-76152500D01*
X141305000Y-85182500D02*
X141305000Y-84166000D01*
X141305000Y-84166000D02*
X144826000Y-80645000D01*
X149225000Y-78715000D02*
X147930000Y-78715000D01*
X144826000Y-80645000D02*
X148590000Y-80645000D01*
X150495000Y-81915000D02*
X151765000Y-80645000D01*
X153060000Y-78715000D02*
X151765000Y-78715000D01*
X143845000Y-83404000D02*
X145334000Y-81915000D01*
X145334000Y-81915000D02*
X150495000Y-81915000D01*
X151765000Y-80645000D02*
X151765000Y-78715000D01*
X143845000Y-85182500D02*
X143845000Y-83404000D01*
X154305000Y-77470000D02*
X153060000Y-78715000D01*
X154305000Y-76152500D02*
X154305000Y-77470000D01*
X113665000Y-77470000D02*
X113665000Y-76152500D01*
X112208841Y-82363841D02*
X125543841Y-82363841D01*
X111125000Y-78715000D02*
X112420000Y-78715000D01*
X111125000Y-81280000D02*
X112208841Y-82363841D01*
X112420000Y-78715000D02*
X113665000Y-77470000D01*
X125543841Y-82363841D02*
X126965000Y-83785000D01*
X111125000Y-78715000D02*
X111125000Y-81280000D01*
X126965000Y-83785000D02*
X126965000Y-85182500D01*
X129505000Y-83150000D02*
X129505000Y-85182500D01*
X116205000Y-77470000D02*
X116205000Y-76152500D01*
X118745000Y-78715000D02*
X118745000Y-80010000D01*
X118745000Y-80010000D02*
X120307731Y-81572731D01*
X117450000Y-78715000D02*
X116205000Y-77470000D01*
X120307731Y-81572731D02*
X127927731Y-81572731D01*
X118745000Y-78715000D02*
X117450000Y-78715000D01*
X127927731Y-81572731D02*
X129505000Y-83150000D01*
X132045000Y-83360035D02*
X132045000Y-85182500D01*
X121285000Y-79795546D02*
X122230505Y-80741051D01*
X121285000Y-78715000D02*
X122626000Y-78715000D01*
X122626000Y-78715000D02*
X123825000Y-77516000D01*
X129426016Y-80741051D02*
X132045000Y-83360035D01*
X121285000Y-78715000D02*
X121285000Y-79795546D01*
X122230505Y-80741051D02*
X129426016Y-80741051D01*
X123825000Y-77516000D02*
X123825000Y-76152500D01*
X130200000Y-78715000D02*
X130412253Y-78502747D01*
X130110556Y-79941683D02*
X130902226Y-80733353D01*
D47*
X130200000Y-79119818D02*
X130200000Y-78715000D01*
D45*
X130902226Y-80733353D02*
X132230799Y-80733353D01*
X129713000Y-78715000D02*
X130200000Y-78715000D01*
D49*
X130110556Y-78804444D02*
X130110556Y-79659358D01*
D45*
X130110556Y-78804444D02*
X130200000Y-78715000D01*
X130110556Y-79112556D02*
X130110556Y-79659358D01*
X134285000Y-82787554D02*
X134285000Y-85182500D01*
X132230799Y-80733353D02*
X134285000Y-82787554D01*
X130110556Y-79112556D02*
X130110556Y-78804444D01*
X130110556Y-79659358D02*
X130110556Y-79941683D01*
X131445000Y-77470000D02*
X131445000Y-76152500D01*
X128905000Y-78715000D02*
X129713000Y-78715000D01*
X130412253Y-78502747D02*
X131445000Y-77470000D01*
D49*
X130412253Y-78502747D02*
X130110556Y-78804444D01*
D45*
X129713000Y-78715000D02*
X130110556Y-79112556D01*
X60532768Y-94812500D02*
X59355000Y-93634732D01*
X61560000Y-94812500D02*
X60532768Y-94812500D01*
X59355000Y-93634732D02*
X59355000Y-92330000D01*
X59355000Y-86995000D02*
X59355000Y-92330000D01*
X64435000Y-93645000D02*
X64435000Y-92375000D01*
X64435000Y-87965000D02*
X64435000Y-86995000D01*
X66640000Y-94812500D02*
X65602500Y-94812500D01*
X63500000Y-88900000D02*
X64435000Y-87965000D01*
X64435000Y-92375000D02*
X63500000Y-91440000D01*
X63500000Y-91440000D02*
X63500000Y-88900000D01*
X65602500Y-94812500D02*
X64435000Y-93645000D01*
X72390000Y-88900000D02*
X71420000Y-89870000D01*
X71420000Y-89870000D02*
X71420000Y-93680000D01*
X70287500Y-94812500D02*
X69180000Y-94812500D01*
X75230000Y-87965000D02*
X74295000Y-88900000D01*
X74295000Y-88900000D02*
X72390000Y-88900000D01*
X71420000Y-93680000D02*
X70287500Y-94812500D01*
X75230000Y-86982500D02*
X75230000Y-87965000D01*
X80310000Y-87965000D02*
X80010000Y-88265000D01*
X75865000Y-93997500D02*
X75865000Y-92330000D01*
X78105000Y-88265000D02*
X75865000Y-90505000D01*
X75865000Y-90505000D02*
X75865000Y-92330000D01*
X75050000Y-94812500D02*
X73625000Y-94812500D01*
X80010000Y-88265000D02*
X78105000Y-88265000D01*
X75050000Y-94812500D02*
X75865000Y-93997500D01*
X80310000Y-86970000D02*
X80310000Y-87965000D01*
X84455000Y-88900000D02*
X82743449Y-90611551D01*
X82743449Y-90611551D02*
X79568449Y-90611551D01*
X79568449Y-90611551D02*
X78384154Y-91795846D01*
X84455000Y-87917500D02*
X84455000Y-88900000D01*
X79572500Y-94812500D02*
X80589154Y-94812500D01*
X78384154Y-91795846D02*
X78384154Y-93624154D01*
X78384154Y-93624154D02*
X79572500Y-94812500D01*
X85390000Y-86982500D02*
X84455000Y-87917500D01*
X97155000Y-89535000D02*
X98425000Y-88265000D01*
X83185000Y-94812500D02*
X84430500Y-94812500D01*
X86995000Y-89535000D02*
X97155000Y-89535000D01*
X85725000Y-90805000D02*
X86995000Y-89535000D01*
X98425000Y-88265000D02*
X98425000Y-87007500D01*
X85725000Y-92330000D02*
X85725000Y-90805000D01*
X84430500Y-94812500D02*
X85725000Y-93518000D01*
X85725000Y-93518000D02*
X85725000Y-92330000D01*
X88265000Y-93752279D02*
X89325221Y-94812500D01*
D49*
X91786685Y-94812500D02*
X92075000Y-94524185D01*
X97933612Y-90507792D02*
X100176404Y-88265000D01*
X92075000Y-94524185D02*
X92075000Y-91440000D01*
X92075000Y-91440000D02*
X93007208Y-90507792D01*
X103505000Y-87007500D02*
X103505000Y-88265000D01*
X93007208Y-90507792D02*
X97933612Y-90507792D01*
D45*
X88265000Y-92330000D02*
X88265000Y-93752279D01*
D49*
X100176404Y-88265000D02*
X101079500Y-88265000D01*
D45*
X89325221Y-94812500D02*
X90805000Y-94812500D01*
D49*
X90805000Y-94812500D02*
X91786685Y-94812500D01*
D45*
X95885000Y-94812500D02*
X94620334Y-94812500D01*
X107315000Y-87841074D02*
X108585000Y-87007500D01*
X95885000Y-94812500D02*
X96957500Y-95885000D01*
X96957500Y-95885000D02*
X99060000Y-95885000D01*
X94620334Y-94812500D02*
X93345000Y-93537166D01*
X93345000Y-93537166D02*
X93345000Y-92330000D01*
D43*
X210185000Y-100630000D02*
X210185000Y-102127500D01*
X208218148Y-102629352D02*
X209683148Y-102629352D01*
X224155000Y-99060000D02*
X224155000Y-95930000D01*
X211120000Y-99695000D02*
X210185000Y-100630000D01*
X223520000Y-99695000D02*
X224155000Y-99060000D01*
X207645000Y-103202500D02*
X208218148Y-102629352D01*
X223520000Y-99695000D02*
X211120000Y-99695000D01*
X209683148Y-102629352D02*
X210185000Y-102127500D01*
D49*
X145740680Y-83270577D02*
X153020544Y-83270577D01*
X144949853Y-84061404D02*
X145740680Y-83270577D01*
X153020544Y-83270577D02*
X155585711Y-80705410D01*
X160447500Y-84425067D02*
X161096565Y-83776002D01*
X155585711Y-80705410D02*
X155585711Y-79034289D01*
X162099158Y-83776002D02*
X163195000Y-82680160D01*
X163195000Y-82680160D02*
X163195000Y-78755000D01*
X160447500Y-85046285D02*
X160447500Y-84425067D01*
D46*
X146050000Y-86995000D02*
X144949853Y-85894853D01*
D49*
X161096565Y-83776002D02*
X162099158Y-83776002D01*
D46*
X144949853Y-85894853D02*
X144949853Y-84061404D01*
D49*
X157150000Y-77470000D02*
X158750000Y-77470000D01*
X155585711Y-79034289D02*
X157150000Y-77470000D01*
D54*
X163459153Y-87437147D02*
X164073062Y-88051056D01*
D49*
X164672500Y-85696285D02*
X165723282Y-85696285D01*
X165931414Y-85488153D02*
X165931414Y-83937421D01*
D54*
X163706866Y-85696285D02*
X163459153Y-85943998D01*
X163459153Y-85943998D02*
X163459153Y-87437147D01*
D49*
X165931414Y-83937421D02*
X165680121Y-83686128D01*
D54*
X164073062Y-88051056D02*
X172273500Y-88051056D01*
X172720000Y-87604556D02*
X172720000Y-86870000D01*
X164672500Y-85696285D02*
X163706866Y-85696285D01*
D49*
X165723282Y-85696285D02*
X165931414Y-85488153D01*
X165680121Y-81969879D02*
X166246083Y-81403917D01*
X165680121Y-83686128D02*
X165680121Y-81969879D01*
D54*
X172273500Y-88051056D02*
X172720000Y-87604556D01*
D53*
X113150000Y-99695000D02*
X113150000Y-100645000D01*
X110267291Y-102145000D02*
X109764721Y-101642430D01*
X113150000Y-102145000D02*
X110267291Y-102145000D01*
X109764721Y-101642430D02*
X109764721Y-99695000D01*
X113150000Y-101145000D02*
X112424536Y-101145000D01*
X112022423Y-100742887D02*
X112022423Y-99695000D01*
X112424536Y-101145000D02*
X112022423Y-100742887D01*
X165555000Y-102145000D02*
X164590024Y-102145000D01*
D47*
X165759869Y-99335131D02*
X165555000Y-99540000D01*
D53*
X165555000Y-99540000D02*
X165555000Y-100645000D01*
D47*
X165759869Y-96164580D02*
X165759869Y-99335131D01*
D53*
X165552404Y-101647596D02*
X164815490Y-101647596D01*
X165555000Y-101145000D02*
X165043502Y-101145000D01*
D47*
X164757864Y-95974106D02*
X165543105Y-95188865D01*
D53*
X165040906Y-101147596D02*
X164757864Y-100864554D01*
D47*
X164757864Y-100864554D02*
X164757864Y-95974106D01*
D51*
X158750000Y-81170000D02*
X161963923Y-81170000D01*
D45*
X167640000Y-78742500D02*
X166367500Y-78742500D01*
X138765000Y-87007500D02*
X139877948Y-87804147D01*
D47*
X227965000Y-99060000D02*
X227965000Y-94615000D01*
D49*
X209550000Y-93980000D02*
X208915000Y-94615000D01*
X208915000Y-94615000D02*
X208915000Y-95930000D01*
X227330000Y-93980000D02*
X209550000Y-93980000D01*
X227965000Y-94615000D02*
X227330000Y-93980000D01*
D47*
X128235608Y-85736892D02*
X126965000Y-87007500D01*
X128235608Y-84623906D02*
X128235608Y-85736892D01*
D45*
X143845000Y-87007500D02*
X144959123Y-87804147D01*
X136525000Y-87007500D02*
X137632801Y-87804147D01*
D47*
X129505000Y-87007500D02*
X130732980Y-85779520D01*
X130732980Y-85779520D02*
X130772856Y-85739644D01*
X130772856Y-85739644D02*
X130772856Y-83751904D01*
X130052667Y-86462263D02*
X130052667Y-87173355D01*
D45*
X141305000Y-87007500D02*
X142431905Y-87804147D01*
D47*
X117226155Y-100443292D02*
X117226155Y-100930593D01*
D45*
X81580000Y-103015000D02*
X81580000Y-111340000D01*
D53*
X117011748Y-101145000D02*
X116050000Y-101145000D01*
D47*
X117226155Y-100930593D02*
X117011748Y-101145000D01*
D53*
X116050000Y-101645000D02*
X117555984Y-101645000D01*
X117555984Y-101645000D02*
X118053124Y-101147860D01*
D45*
X99995000Y-103015000D02*
X99995000Y-111340000D01*
D53*
X116050000Y-100067933D02*
X116050000Y-100645000D01*
X116422933Y-99695000D02*
X116050000Y-100067933D01*
D47*
X121330000Y-102915000D02*
X121330000Y-103550000D01*
X121143697Y-102915000D02*
X120373697Y-102145000D01*
D45*
X121012131Y-104122869D02*
X118410000Y-106725000D01*
X118410000Y-106725000D02*
X118410000Y-111340000D01*
D47*
X121330000Y-102915000D02*
X122220000Y-102915000D01*
X121143697Y-102915000D02*
X121143697Y-103991303D01*
X121143697Y-102915000D02*
X121330000Y-102915000D01*
X121330000Y-102915000D02*
X121457500Y-103042500D01*
D45*
X122220000Y-102915000D02*
X121457500Y-103677500D01*
D53*
X121457500Y-103042500D02*
X121457500Y-103677500D01*
D45*
X121457500Y-103677500D02*
X121012131Y-104122869D01*
D53*
X116050000Y-102145000D02*
X117995455Y-102145000D01*
D47*
X120373697Y-102145000D02*
X117995455Y-102145000D01*
D45*
X155240000Y-103015000D02*
X154217048Y-103015000D01*
X153990001Y-103242047D02*
X153990001Y-110090001D01*
X154217048Y-103015000D02*
X153990001Y-103242047D01*
X153990001Y-110090001D02*
X155240000Y-111340000D01*
D53*
X169477463Y-100789601D02*
X169477463Y-99938724D01*
X168455000Y-101145000D02*
X169122064Y-101145000D01*
X169122064Y-101145000D02*
X169477463Y-100789601D01*
X169128433Y-102145000D02*
X168455000Y-102145000D01*
D45*
X191435000Y-105027500D02*
X191501500Y-105027500D01*
D47*
X169128433Y-102145000D02*
X169330500Y-102347067D01*
D45*
X187035290Y-105027500D02*
X186518928Y-104511138D01*
X192135000Y-105664000D02*
X192135000Y-111340000D01*
X191501500Y-105027500D02*
X191501500Y-105030500D01*
X191501500Y-105027500D02*
X192135000Y-104394000D01*
X192135000Y-105027500D02*
X192135000Y-104394000D01*
X191501500Y-105030500D02*
X192135000Y-105664000D01*
X192135000Y-104394000D02*
X192135000Y-103015000D01*
X192135000Y-105027500D02*
X192135000Y-105664000D01*
D47*
X169330500Y-102347067D02*
X169330500Y-104417641D01*
D45*
X191435000Y-105027500D02*
X187035290Y-105027500D01*
X192135000Y-105027500D02*
X191435000Y-105027500D01*
D47*
X170180000Y-102466367D02*
X170180000Y-102712662D01*
X172987871Y-103031644D02*
X173214380Y-103258153D01*
D49*
X173720000Y-103015000D02*
X172846208Y-102141208D01*
D47*
X170180000Y-102235000D02*
X170180000Y-102712662D01*
D53*
X168455000Y-101645000D02*
X169520012Y-101645000D01*
X169520012Y-101645000D02*
X169769123Y-101645000D01*
D47*
X170180000Y-102055877D02*
X170180000Y-102235000D01*
X169769123Y-101645000D02*
X170180000Y-102055877D01*
D49*
X170607000Y-102141208D02*
X170265331Y-102141208D01*
X172846208Y-102141208D02*
X170607000Y-102141208D01*
D47*
X170180000Y-102712662D02*
X170180000Y-105205859D01*
X172987871Y-103031644D02*
X172987871Y-102282871D01*
D53*
X170607000Y-102141208D02*
X170180000Y-102568208D01*
D45*
X136825000Y-103015000D02*
X135761864Y-103015000D01*
D53*
X168455000Y-100645000D02*
X168455000Y-99938724D01*
D45*
X135292143Y-102545279D02*
X135292143Y-100742141D01*
X136825000Y-103015000D02*
X136825000Y-111340000D01*
X135761864Y-103015000D02*
X135292143Y-102545279D01*
D47*
X88265000Y-81280000D02*
X88265000Y-78710000D01*
X74137860Y-85892685D02*
X74137860Y-83977140D01*
D53*
X72235000Y-86317500D02*
X73713045Y-86317500D01*
D47*
X75565000Y-82550000D02*
X86995000Y-82550000D01*
X73713045Y-86317500D02*
X74137860Y-85892685D01*
X86995000Y-82550000D02*
X88265000Y-81280000D01*
X74137860Y-83977140D02*
X75565000Y-82550000D01*
X72235000Y-81435000D02*
X73025000Y-80645000D01*
X73025000Y-80645000D02*
X73025000Y-78710000D01*
X72235000Y-84788294D02*
X72235000Y-81435000D01*
X73583696Y-85511469D02*
X73499162Y-85596003D01*
X82508094Y-81956906D02*
X74888094Y-81956906D01*
X74888094Y-81956906D02*
X73583696Y-83261304D01*
D53*
X72235000Y-85817500D02*
X73277665Y-85817500D01*
D47*
X83185000Y-81280000D02*
X83185000Y-78710000D01*
D53*
X73277665Y-85817500D02*
X73499162Y-85596003D01*
D47*
X73583696Y-83261304D02*
X73583696Y-85511469D01*
D53*
X82508094Y-81956906D02*
X83185000Y-81280000D01*
D47*
X73029531Y-85046535D02*
X73006050Y-85070016D01*
D53*
X72758566Y-85317500D02*
X73006050Y-85070016D01*
D47*
X78105000Y-78715000D02*
X75540000Y-81280000D01*
D53*
X72235000Y-85317500D02*
X72758566Y-85317500D01*
D47*
X74319761Y-81280000D02*
X73029531Y-82570230D01*
X73029531Y-82570230D02*
X73029531Y-85046535D01*
X75540000Y-81280000D02*
X74319761Y-81280000D01*
D53*
X95885000Y-86995000D02*
X95207500Y-86317500D01*
D47*
X107372187Y-80770206D02*
X106764840Y-80770206D01*
X108585000Y-78710000D02*
X108585000Y-79557393D01*
X108585000Y-79557393D02*
X107372187Y-80770206D01*
D53*
X95207500Y-86317500D02*
X94160000Y-86317500D01*
X94160000Y-85817500D02*
X95885000Y-85817500D01*
D45*
X102255999Y-79584532D02*
X103297000Y-78710000D01*
D53*
X94160000Y-85317500D02*
X95022500Y-85317500D01*
D49*
X95600168Y-82716690D02*
X98217000Y-80099858D01*
X95600168Y-84739832D02*
X95600168Y-82716690D01*
D47*
X95022500Y-85317500D02*
X95600168Y-84739832D01*
D49*
X98217000Y-80099858D02*
X98217000Y-78710000D01*
D53*
X94160000Y-84817500D02*
X94160000Y-82095000D01*
X94160000Y-82095000D02*
X92710000Y-80645000D01*
X92710000Y-80645000D02*
X92710000Y-78710000D01*
D43*
X153035000Y-63500000D02*
X153035000Y-71120000D01*
D45*
X140662054Y-73332946D02*
X147012054Y-73332946D01*
X139065000Y-76890000D02*
X139065000Y-74930000D01*
X149225000Y-71120000D02*
X153035000Y-71120000D01*
X147012054Y-73332946D02*
X149225000Y-71120000D01*
X139065000Y-74930000D02*
X140662054Y-73332946D01*
D43*
X168275000Y-63499604D02*
X168275000Y-71119604D01*
D45*
X141605000Y-75565000D02*
X142556673Y-74613327D01*
D43*
X158115000Y-63500000D02*
X158115000Y-71120000D01*
D45*
X148026863Y-74613327D02*
X149581178Y-73059012D01*
X149581178Y-73059012D02*
X156175988Y-73059012D01*
X141605000Y-76890000D02*
X141605000Y-75565000D01*
X156175988Y-73059012D02*
X158115000Y-71120000D01*
X142556673Y-74613327D02*
X148026863Y-74613327D01*
D43*
X163195000Y-63500000D02*
X163195000Y-71120000D01*
X129540000Y-63500000D02*
X129540000Y-71120000D01*
D45*
X118745000Y-74295000D02*
X119380000Y-73660000D01*
X119380000Y-73660000D02*
X127000000Y-73660000D01*
X127000000Y-73660000D02*
X129540000Y-71120000D01*
X118745000Y-76890000D02*
X118745000Y-74295000D01*
X127000000Y-74930000D02*
X127635000Y-74930000D01*
X132080000Y-73660000D02*
X134620000Y-71120000D01*
X126365000Y-76890000D02*
X126365000Y-75565000D01*
X126365000Y-75565000D02*
X126365000Y-74930000D01*
D43*
X134620000Y-63500000D02*
X134620000Y-71120000D01*
D45*
X125730000Y-74930000D02*
X126365000Y-75565000D01*
X127635000Y-74930000D02*
X128905000Y-73660000D01*
X128905000Y-73660000D02*
X132080000Y-73660000D01*
X121920000Y-74930000D02*
X125730000Y-74930000D01*
X121285000Y-75565000D02*
X121920000Y-74930000D01*
X126365000Y-74930000D02*
X127000000Y-74930000D01*
X126365000Y-75565000D02*
X127000000Y-74930000D01*
X121285000Y-76890000D02*
X121285000Y-75565000D01*
X125730000Y-74930000D02*
X126365000Y-74930000D01*
X111125000Y-74295000D02*
X113523796Y-71896204D01*
X113523796Y-71896204D02*
X113523796Y-70485000D01*
X111125000Y-76890000D02*
X111125000Y-74295000D01*
D43*
X124460000Y-63500000D02*
X124460000Y-71120000D01*
D45*
X133985000Y-76890000D02*
X133985000Y-75565000D01*
X134620000Y-74930000D02*
X135889604Y-74930000D01*
X128905000Y-75565000D02*
X129540000Y-74930000D01*
D43*
X139700000Y-63499604D02*
X139700000Y-71119604D01*
D45*
X133985000Y-74930000D02*
X134620000Y-74930000D01*
X133985000Y-75565000D02*
X134620000Y-74930000D01*
X133350000Y-74930000D02*
X133985000Y-75565000D01*
X135889604Y-74930000D02*
X139700000Y-71119604D01*
X129540000Y-74930000D02*
X133350000Y-74930000D01*
X133350000Y-74930000D02*
X133985000Y-74930000D01*
X133985000Y-75565000D02*
X133985000Y-74930000D01*
X128905000Y-76890000D02*
X128905000Y-75565000D01*
X103505000Y-85182500D02*
X103505000Y-83857166D01*
X103505000Y-85182500D02*
X106045000Y-85182500D01*
X104558166Y-74928166D02*
X100750000Y-71120000D01*
D43*
X100750000Y-63500000D02*
X100750000Y-71120000D01*
D45*
X104558166Y-82804000D02*
X104558166Y-74928166D01*
X103505000Y-83857166D02*
X104558166Y-82804000D01*
X108585000Y-85182500D02*
X111125000Y-85182500D01*
X108585000Y-83653351D02*
X109855000Y-82383351D01*
X108585000Y-85182500D02*
X108585000Y-83653351D01*
X109855000Y-82383351D02*
X109855000Y-75144604D01*
D43*
X105830000Y-63499604D02*
X105830000Y-71119604D01*
D45*
X109855000Y-75144604D02*
X105830000Y-71119604D01*
D43*
X85390000Y-85157500D02*
X86927500Y-85157500D01*
X90590000Y-63500000D02*
X90590000Y-71120000D01*
X87917500Y-85157500D02*
X87930000Y-85170000D01*
X86927500Y-85157500D02*
X87917500Y-85157500D01*
X75350000Y-63499604D02*
X75350000Y-71119604D01*
D45*
X64435000Y-85170000D02*
X64435000Y-83944756D01*
X64435000Y-85170000D02*
X66962500Y-85170000D01*
D43*
X66962500Y-85170000D02*
X66975000Y-85157500D01*
X75230000Y-85157500D02*
X76132500Y-85157500D01*
X76132500Y-85157500D02*
X77770000Y-85157500D01*
X80430000Y-63500000D02*
X80430000Y-71120000D01*
D45*
X59355000Y-85170000D02*
X61895000Y-87007500D01*
D43*
X70270000Y-63500000D02*
X70270000Y-71120000D01*
D45*
X59355000Y-85170000D02*
X59355000Y-83944756D01*
D43*
X80310000Y-85145000D02*
X81225000Y-85145000D01*
X85510000Y-63500000D02*
X85510000Y-71120000D01*
X82837500Y-85145000D02*
X82850000Y-85157500D01*
X81225000Y-85145000D02*
X82837500Y-85145000D01*
D45*
X98425000Y-85182500D02*
X98425000Y-81280000D01*
X99415148Y-74865148D02*
X95670000Y-71120000D01*
X98425000Y-81280000D02*
X99415148Y-80289852D01*
X99415148Y-80289852D02*
X99415148Y-74865148D01*
X98425000Y-85182500D02*
X100965000Y-87007500D01*
D43*
X95670000Y-63500000D02*
X95670000Y-71120000D01*
X196850000Y-63499604D02*
X196850000Y-71119604D01*
D55*
X74295000Y-130745000D02*
X75215000Y-129825000D01*
X74295000Y-132080000D02*
X75215000Y-131160000D01*
X74295000Y-132080000D02*
X74295000Y-130745000D01*
D44*
X74295000Y-132080000D02*
X74295000Y-139700000D01*
D55*
X75215000Y-131160000D02*
X75215000Y-129825000D01*
X75215000Y-129825000D02*
X75215000Y-123590000D01*
X69215000Y-132080000D02*
X69215000Y-109390000D01*
D44*
X69215000Y-132080000D02*
X69215000Y-139700000D01*
D55*
X64135000Y-132080000D02*
X64135000Y-130845000D01*
X63165000Y-131110000D02*
X63165000Y-129875000D01*
X64135000Y-132080000D02*
X63165000Y-131110000D01*
X64135000Y-130845000D02*
X63165000Y-129875000D01*
D44*
X64135000Y-132080000D02*
X64135000Y-139700000D01*
D55*
X63165000Y-129875000D02*
X63165000Y-123540000D01*
X93630000Y-131157142D02*
X93630000Y-129890000D01*
X92737142Y-130782858D02*
X93630000Y-129890000D01*
X93630000Y-129890000D02*
X93630000Y-123590000D01*
X92737142Y-132050000D02*
X93630000Y-131157142D01*
D44*
X92710000Y-132050000D02*
X92710000Y-139670000D01*
D55*
X92737142Y-132050000D02*
X92737142Y-130782858D01*
X87630000Y-132050000D02*
X87630000Y-109390000D01*
D44*
X87630000Y-132050000D02*
X87630000Y-139670000D01*
X82550000Y-132050000D02*
X82550000Y-139670000D01*
D55*
X82550000Y-132050000D02*
X82550000Y-130845000D01*
X81580000Y-129875000D02*
X81580000Y-123540000D01*
X82550000Y-130845000D02*
X81580000Y-129875000D01*
X81580000Y-131080000D02*
X81580000Y-129875000D01*
X82550000Y-132050000D02*
X81580000Y-131080000D01*
X112045000Y-131184284D02*
X112045000Y-129890000D01*
X111179284Y-130755716D02*
X112045000Y-129890000D01*
X112045000Y-129890000D02*
X112045000Y-123590000D01*
X111179284Y-132050000D02*
X111179284Y-130755716D01*
D44*
X111125000Y-132050000D02*
X111125000Y-139670000D01*
D55*
X111179284Y-132050000D02*
X112045000Y-131184284D01*
X106045000Y-132050000D02*
X106045000Y-109390000D01*
D44*
X106045000Y-132050000D02*
X106045000Y-139670000D01*
X100965000Y-132050000D02*
X100965000Y-139670000D01*
D55*
X100965000Y-132050000D02*
X99995000Y-131080000D01*
X99995000Y-129875000D02*
X99995000Y-123540000D01*
X100965000Y-132050000D02*
X100965000Y-130845000D01*
X99995000Y-131080000D02*
X99995000Y-129875000D01*
X100965000Y-130845000D02*
X99995000Y-129875000D01*
X118410000Y-131080000D02*
X118410000Y-129875000D01*
X119380000Y-132050000D02*
X118410000Y-131080000D01*
X118410000Y-129875000D02*
X118410000Y-123540000D01*
X119380000Y-132050000D02*
X119380000Y-130845000D01*
D44*
X119380000Y-132050000D02*
X119380000Y-139670000D01*
D55*
X119380000Y-130845000D02*
X118410000Y-129875000D01*
X124460000Y-132050000D02*
X124460000Y-109390000D01*
D44*
X124460000Y-132050000D02*
X124460000Y-139670000D01*
D55*
X129621426Y-130663574D02*
X130460000Y-129825000D01*
X130460000Y-129825000D02*
X130460000Y-123590000D01*
X129621426Y-132050000D02*
X129621426Y-130663574D01*
D44*
X129540000Y-132050000D02*
X129540000Y-139670000D01*
D55*
X129621426Y-132050000D02*
X130460000Y-131211426D01*
X130460000Y-131211426D02*
X130460000Y-129825000D01*
X148875000Y-129890000D02*
X148875000Y-123590000D01*
D44*
X147955000Y-132050000D02*
X147955000Y-139670000D01*
D55*
X148875000Y-131238568D02*
X148875000Y-129890000D01*
X148063568Y-132050000D02*
X148875000Y-131238568D01*
X148063568Y-132050000D02*
X148063568Y-130701432D01*
X148063568Y-130701432D02*
X148875000Y-129890000D01*
X142875000Y-132050000D02*
X142875000Y-109390000D01*
D44*
X142875000Y-132050000D02*
X142875000Y-139670000D01*
D55*
X137795000Y-132050000D02*
X136825000Y-131080000D01*
X136825000Y-131080000D02*
X136825000Y-129875000D01*
X136825000Y-129875000D02*
X136825000Y-123540000D01*
X137795000Y-132050000D02*
X137795000Y-130845000D01*
D44*
X137795000Y-132050000D02*
X137795000Y-139670000D01*
D55*
X137795000Y-130845000D02*
X136825000Y-129875000D01*
X166505710Y-132050000D02*
X166505710Y-130609290D01*
X166505710Y-132050000D02*
X167290000Y-131265710D01*
X166505710Y-130609290D02*
X167290000Y-129825000D01*
D44*
X166370000Y-132050000D02*
X166370000Y-139670000D01*
D55*
X167290000Y-131265710D02*
X167290000Y-129825000D01*
X167290000Y-129825000D02*
X167290000Y-123590000D01*
X155240000Y-131080000D02*
X155240000Y-129875000D01*
X156210000Y-130845000D02*
X155240000Y-129875000D01*
D44*
X156210000Y-132050000D02*
X156210000Y-139670000D01*
D55*
X155240000Y-129875000D02*
X155240000Y-123540000D01*
X156210000Y-132050000D02*
X156210000Y-130845000D01*
X156210000Y-132050000D02*
X155240000Y-131080000D01*
D44*
X161290000Y-132050000D02*
X161290000Y-139670000D01*
D55*
X161290000Y-132050000D02*
X161290000Y-109390000D01*
X179770000Y-132050000D02*
X179770000Y-109390000D01*
D44*
X179770000Y-132050000D02*
X179770000Y-139670000D01*
D55*
X173720000Y-129810000D02*
X173720000Y-123540000D01*
X173720000Y-131080000D02*
X173720000Y-129810000D01*
X174690000Y-130780000D02*
X173720000Y-129810000D01*
D44*
X174690000Y-132050000D02*
X174690000Y-139670000D01*
D55*
X174690000Y-132050000D02*
X174690000Y-130780000D01*
X174690000Y-132050000D02*
X173720000Y-131080000D01*
X184947852Y-132050000D02*
X184947852Y-130712148D01*
X184947852Y-130712148D02*
X185770000Y-129890000D01*
X185770000Y-131227852D02*
X185770000Y-129890000D01*
D44*
X184850000Y-132050000D02*
X184850000Y-139670000D01*
D55*
X184947852Y-132050000D02*
X185770000Y-131227852D01*
X185770000Y-129890000D02*
X185770000Y-123590000D01*
X198185000Y-132050000D02*
X198185000Y-109390000D01*
D44*
X198185000Y-132050000D02*
X198185000Y-139670000D01*
D55*
X192135000Y-129905000D02*
X192135000Y-123540000D01*
X193105000Y-130875000D02*
X192135000Y-129905000D01*
X192135000Y-131080000D02*
X192135000Y-129905000D01*
D44*
X193105000Y-132050000D02*
X193105000Y-139670000D01*
D55*
X193105000Y-132050000D02*
X193105000Y-130875000D01*
X193105000Y-132050000D02*
X192135000Y-131080000D01*
X204185000Y-131130000D02*
X204185000Y-130525000D01*
D44*
X203265000Y-132050000D02*
X203265000Y-139670000D01*
D55*
X204185000Y-130525000D02*
X204185000Y-123590000D01*
X203390000Y-131320000D02*
X204185000Y-130525000D01*
X203390000Y-132050000D02*
X203390000Y-131320000D01*
X203265000Y-132050000D02*
X204185000Y-131130000D01*
D45*
X81580000Y-101190000D02*
X87630000Y-101190000D01*
D53*
X69335000Y-84817500D02*
X69332559Y-84066709D01*
D49*
X63335000Y-83651450D02*
X63335000Y-87795000D01*
X69332559Y-84066709D02*
X68237322Y-82971472D01*
X68237322Y-82971472D02*
X64014978Y-82971472D01*
X64014978Y-82971472D02*
X63335000Y-83651450D01*
X63335000Y-87795000D02*
X61560000Y-89570000D01*
D47*
X61572500Y-92975000D02*
X61560000Y-92987500D01*
D49*
X61560000Y-89570000D02*
X61560000Y-92987500D01*
D45*
X62865000Y-92975000D02*
X61572500Y-92975000D01*
X67880515Y-93581443D02*
X66640000Y-92987500D01*
D53*
X68656986Y-85317500D02*
X68141922Y-84802436D01*
X69335000Y-85317500D02*
X68656986Y-85317500D01*
D45*
X66640000Y-92987500D02*
X66640000Y-91700000D01*
D53*
X68141922Y-84802436D02*
X68141922Y-84300000D01*
X69335000Y-85817500D02*
X68197252Y-85817500D01*
X68197252Y-85817500D02*
X68163634Y-85851118D01*
D45*
X69180000Y-92987500D02*
X69180000Y-91700000D01*
X73625000Y-92987500D02*
X73625000Y-91700000D01*
D53*
X68264501Y-86833723D02*
X68264501Y-87477872D01*
X69335000Y-86317500D02*
X68780724Y-86317500D01*
X68780724Y-86317500D02*
X68264501Y-86833723D01*
D45*
X106045000Y-101190000D02*
X99995000Y-101190000D01*
X122270000Y-101190000D02*
X122220000Y-101240000D01*
X124460000Y-101190000D02*
X122270000Y-101190000D01*
X142875000Y-101190000D02*
X136825000Y-101190000D01*
X155240000Y-101190000D02*
X161290000Y-101190000D01*
X179770000Y-101190000D02*
X173720000Y-101190000D01*
X80589154Y-92987500D02*
X80589154Y-91800000D01*
D53*
X91260000Y-84817500D02*
X91257559Y-84066709D01*
D45*
X83185000Y-92987500D02*
X83185000Y-91800000D01*
D53*
X90556475Y-85317500D02*
X91260000Y-85317500D01*
X90066922Y-84935421D02*
X90556475Y-85317500D01*
X91260000Y-85817500D02*
X89400000Y-85817500D01*
D45*
X90805000Y-92987500D02*
X90805000Y-91800000D01*
D53*
X90066922Y-86826965D02*
X90486871Y-86317500D01*
X90486871Y-86317500D02*
X91260000Y-86317500D01*
D45*
X95885000Y-92987500D02*
X95885000Y-91800000D01*
X198120000Y-101190000D02*
X192135000Y-101190000D01*
X70270000Y-76885000D02*
X73025000Y-76885000D01*
X75350000Y-76885000D02*
X78105000Y-76885000D01*
X80430000Y-76885000D02*
X83185000Y-76885000D01*
X85510000Y-76885000D02*
X88265000Y-76885000D01*
X90590000Y-76885000D02*
X92710000Y-76885000D01*
X95670000Y-76885000D02*
X98217000Y-76885000D01*
X100750000Y-76885000D02*
X103297000Y-76885000D01*
X105830000Y-76885000D02*
X108585000Y-76885000D01*
D47*
X135335000Y-85957500D02*
X134285000Y-87007500D01*
X135335000Y-85957500D02*
X135335000Y-82762454D01*
X134834517Y-86460929D02*
X134834517Y-87172021D01*
X133151903Y-85900597D02*
X133151903Y-83296429D01*
X132045000Y-87007500D02*
X133151903Y-85900597D01*
X132594024Y-86460106D02*
X132594024Y-87171198D01*
D49*
X74159346Y-76332942D02*
X73579000Y-75752596D01*
D52*
X226060000Y-107950000D02*
X225425000Y-108585000D01*
X220436548Y-110581548D02*
X222554901Y-108463194D01*
X222554901Y-108463194D02*
X222554901Y-106861236D01*
X222554901Y-106861236D02*
X223188658Y-106227479D01*
D49*
X228519000Y-115475000D02*
X228519000Y-110490000D01*
X233174896Y-109220000D02*
X234433142Y-107961754D01*
X229789000Y-109220000D02*
X233174896Y-109220000D01*
X228519000Y-110490000D02*
X229789000Y-109220000D01*
X234433142Y-107961754D02*
X234433142Y-104153142D01*
X234433142Y-104153142D02*
X233345000Y-103065000D01*
D45*
X229870000Y-103227500D02*
X229870000Y-102235000D01*
X229870000Y-102235000D02*
X230915000Y-101190000D01*
X230915000Y-101190000D02*
X233345000Y-101190000D01*
D49*
X227965000Y-99060000D02*
X227965000Y-107950000D01*
X227503000Y-117013000D02*
X228414284Y-117924284D01*
X227965000Y-107950000D02*
X227503000Y-108412000D01*
X227503000Y-108412000D02*
X227503000Y-117013000D01*
X228414284Y-117924284D02*
X232651284Y-117924284D01*
X232651284Y-117924284D02*
X233345000Y-118618000D01*
X233345000Y-118618000D02*
X233345000Y-120915000D01*
D45*
X221153000Y-103215000D02*
X221153000Y-102062000D01*
X221153000Y-102062000D02*
X222025000Y-101190000D01*
X222025000Y-101190000D02*
X226060000Y-101190000D01*
D52*
X223188658Y-106227479D02*
X224677521Y-106227479D01*
X224677521Y-106227479D02*
X225142500Y-105762500D01*
X225142500Y-105762500D02*
X225142500Y-103787500D01*
D43*
X224437500Y-103152500D02*
X223520000Y-103152500D01*
X225624135Y-103152500D02*
X224437500Y-103152500D01*
D52*
X225072500Y-103787500D02*
X224437500Y-103152500D01*
X225142500Y-103787500D02*
X225072500Y-103787500D01*
D56*
X226060000Y-102915000D02*
X226060000Y-107950000D01*
D51*
X220980000Y-106680000D02*
X222632500Y-105027500D01*
X222632500Y-105027500D02*
X223507500Y-105027500D01*
D45*
X223507500Y-105027500D02*
X223520000Y-105040000D01*
D51*
X221997500Y-105027500D02*
X220980000Y-106045000D01*
X220980000Y-105027500D02*
X221997500Y-105027500D01*
X221997500Y-105027500D02*
X222632500Y-105027500D01*
D45*
X219997665Y-105027500D02*
X220566826Y-105596661D01*
X220980000Y-105027500D02*
X219962500Y-105027500D01*
X219962500Y-105027500D02*
X219997665Y-105027500D01*
D51*
X220980000Y-106680000D02*
X219241026Y-104941026D01*
X219241026Y-104941026D02*
X219241026Y-104523639D01*
D45*
X219962500Y-105027500D02*
X219075000Y-104140000D01*
X219075000Y-104140000D02*
X219075000Y-104775000D01*
X219075000Y-104140000D02*
X219075000Y-103065000D01*
X216535000Y-101646000D02*
X216535000Y-103202500D01*
X216991000Y-101190000D02*
X216535000Y-101646000D01*
X219075000Y-101190000D02*
X216991000Y-101190000D01*
G04 #@! TA.AperFunction,Conductor*
G36*
X221370826Y-130528948D02*
G01*
X221438878Y-130549173D01*
X221485195Y-130602981D01*
X221489818Y-130630609D01*
X222343401Y-131484192D01*
X222318409Y-131490889D01*
X222181592Y-131569881D01*
X222069881Y-131681592D01*
X221990889Y-131818409D01*
X221984192Y-131843401D01*
X221139671Y-130998880D01*
X221139670Y-130998881D01*
X221093400Y-131056904D01*
X221093397Y-131056907D01*
X220961653Y-131285095D01*
X220961651Y-131285099D01*
X220865393Y-131530363D01*
X220865392Y-131530365D01*
X220806760Y-131787245D01*
X220787070Y-132050000D01*
X220806760Y-132312754D01*
X220865392Y-132569634D01*
X220865393Y-132569636D01*
X220961651Y-132814900D01*
X220961653Y-132814904D01*
X221093397Y-133043092D01*
X221093400Y-133043097D01*
X221139670Y-133101117D01*
X221139672Y-133101117D01*
X221984192Y-132256597D01*
X221990889Y-132281591D01*
X222069881Y-132418408D01*
X222181592Y-132530119D01*
X222318409Y-132609111D01*
X222343401Y-132615807D01*
X221498437Y-133460770D01*
X221668532Y-133576739D01*
X221668532Y-133576740D01*
X221905923Y-133691062D01*
X222157704Y-133768728D01*
X222157712Y-133768729D01*
X222418260Y-133808000D01*
X222681740Y-133808000D01*
X222942287Y-133768729D01*
X222942295Y-133768728D01*
X223194076Y-133691062D01*
X223431467Y-133576740D01*
X223601561Y-133460770D01*
X222756598Y-132615807D01*
X222781591Y-132609111D01*
X222918408Y-132530119D01*
X223030119Y-132418408D01*
X223109111Y-132281591D01*
X223115807Y-132256598D01*
X223960327Y-133101118D01*
X224006603Y-133043090D01*
X224138346Y-132814904D01*
X224138348Y-132814900D01*
X224234606Y-132569636D01*
X224234607Y-132569634D01*
X224293239Y-132312754D01*
X224312929Y-132050000D01*
X224293239Y-131787245D01*
X224234607Y-131530365D01*
X224234606Y-131530363D01*
X224138348Y-131285099D01*
X224138346Y-131285095D01*
X224006605Y-131056913D01*
X224006600Y-131056905D01*
X223960328Y-130998881D01*
X223960326Y-130998881D01*
X223115807Y-131843400D01*
X223109111Y-131818409D01*
X223030119Y-131681592D01*
X222918408Y-131569881D01*
X222781591Y-131490889D01*
X222756598Y-131484192D01*
X223614166Y-130626623D01*
X223618417Y-130604767D01*
X223667495Y-130553465D01*
X223730721Y-130536691D01*
X225873733Y-130543722D01*
X225941784Y-130563946D01*
X225988101Y-130617754D01*
X225997974Y-130688061D01*
X225986196Y-130725703D01*
X225920394Y-130858381D01*
X225874870Y-131041434D01*
X225874870Y-131041437D01*
X225872000Y-131083764D01*
X225872000Y-131796000D01*
X227083827Y-131796000D01*
X227070889Y-131818409D01*
X227030000Y-131971009D01*
X227030000Y-132128991D01*
X227070889Y-132281591D01*
X227083827Y-132304000D01*
X225872000Y-132304000D01*
X225872000Y-133016235D01*
X225874870Y-133058562D01*
X225874870Y-133058565D01*
X225920394Y-133241618D01*
X226004202Y-133410602D01*
X226004203Y-133410604D01*
X226122378Y-133557621D01*
X226269395Y-133675796D01*
X226269397Y-133675797D01*
X226438381Y-133759605D01*
X226621436Y-133805129D01*
X226663765Y-133808000D01*
X227376000Y-133808000D01*
X227376000Y-132596173D01*
X227398409Y-132609111D01*
X227551009Y-132650000D01*
X227708991Y-132650000D01*
X227861591Y-132609111D01*
X227884000Y-132596173D01*
X227884000Y-133808000D01*
X228596235Y-133808000D01*
X228638562Y-133805129D01*
X228638565Y-133805129D01*
X228821618Y-133759605D01*
X228990602Y-133675797D01*
X228990604Y-133675796D01*
X229137621Y-133557621D01*
X229255796Y-133410604D01*
X229255797Y-133410602D01*
X229339605Y-133241618D01*
X229385129Y-133058565D01*
X229385129Y-133058562D01*
X229388000Y-133016235D01*
X229388000Y-132304000D01*
X228176173Y-132304000D01*
X228189111Y-132281591D01*
X228230000Y-132128991D01*
X228230000Y-131971009D01*
X228189111Y-131818409D01*
X228176173Y-131796000D01*
X229388000Y-131796000D01*
X229388000Y-131083764D01*
X229385129Y-131041437D01*
X229385129Y-131041434D01*
X229339605Y-130858381D01*
X229279530Y-130737249D01*
X229267183Y-130667334D01*
X229294594Y-130601843D01*
X229353062Y-130561568D01*
X229392819Y-130555267D01*
X229565882Y-130555835D01*
X229633935Y-130576060D01*
X229652312Y-130590544D01*
X230081548Y-130998881D01*
X230110845Y-131026751D01*
X230146414Y-131088195D01*
X230150000Y-131118041D01*
X230150000Y-140661958D01*
X230129998Y-140730079D01*
X230110845Y-140753248D01*
X229652659Y-141189124D01*
X229589518Y-141221584D01*
X229565401Y-141223833D01*
X229362376Y-141223167D01*
X229294321Y-141202942D01*
X229248004Y-141149134D01*
X229238131Y-141078827D01*
X229253686Y-141037181D01*
X229252762Y-141036723D01*
X229339605Y-140861618D01*
X229385129Y-140678565D01*
X229385129Y-140678562D01*
X229388000Y-140636235D01*
X229388000Y-139924000D01*
X228176173Y-139924000D01*
X228189111Y-139901591D01*
X228230000Y-139748991D01*
X228230000Y-139591009D01*
X228189111Y-139438409D01*
X228176173Y-139416000D01*
X229388000Y-139416000D01*
X229388000Y-138703764D01*
X229385129Y-138661437D01*
X229385129Y-138661434D01*
X229339605Y-138478381D01*
X229255797Y-138309397D01*
X229255796Y-138309395D01*
X229137621Y-138162378D01*
X228990604Y-138044203D01*
X228990602Y-138044202D01*
X228821618Y-137960394D01*
X228638563Y-137914870D01*
X228596235Y-137912000D01*
X227884000Y-137912000D01*
X227884000Y-139123826D01*
X227861591Y-139110889D01*
X227708991Y-139070000D01*
X227551009Y-139070000D01*
X227398409Y-139110889D01*
X227376000Y-139123826D01*
X227376000Y-137912000D01*
X226663765Y-137912000D01*
X226621437Y-137914870D01*
X226621434Y-137914870D01*
X226438381Y-137960394D01*
X226269397Y-138044202D01*
X226269395Y-138044203D01*
X226122378Y-138162378D01*
X226004203Y-138309395D01*
X226004202Y-138309397D01*
X225920394Y-138478381D01*
X225874870Y-138661434D01*
X225874870Y-138661437D01*
X225872000Y-138703764D01*
X225872000Y-139416000D01*
X227083827Y-139416000D01*
X227070889Y-139438409D01*
X227030000Y-139591009D01*
X227030000Y-139748991D01*
X227070889Y-139901591D01*
X227083827Y-139924000D01*
X225872000Y-139924000D01*
X225872000Y-140636235D01*
X225874870Y-140678562D01*
X225874870Y-140678565D01*
X225920394Y-140861618D01*
X226003802Y-141029795D01*
X226016149Y-141099710D01*
X225988738Y-141165201D01*
X225930271Y-141205476D01*
X225890509Y-141211777D01*
X223727896Y-141204681D01*
X223659841Y-141184456D01*
X223613524Y-141130648D01*
X223605904Y-141085113D01*
X222756598Y-140235807D01*
X222781591Y-140229111D01*
X222918408Y-140150119D01*
X223030119Y-140038408D01*
X223109111Y-139901591D01*
X223115807Y-139876598D01*
X223960327Y-140721118D01*
X224006603Y-140663090D01*
X224138346Y-140434904D01*
X224138348Y-140434900D01*
X224234606Y-140189636D01*
X224234607Y-140189634D01*
X224293239Y-139932754D01*
X224312929Y-139670000D01*
X224293239Y-139407245D01*
X224234607Y-139150365D01*
X224234606Y-139150363D01*
X224138348Y-138905099D01*
X224138346Y-138905095D01*
X224006605Y-138676913D01*
X224006600Y-138676905D01*
X223960328Y-138618881D01*
X223960326Y-138618881D01*
X223115807Y-139463400D01*
X223109111Y-139438409D01*
X223030119Y-139301592D01*
X222918408Y-139189881D01*
X222781591Y-139110889D01*
X222756598Y-139104192D01*
X223601560Y-138259229D01*
X223601560Y-138259228D01*
X223431467Y-138143259D01*
X223194076Y-138028937D01*
X222942295Y-137951271D01*
X222942287Y-137951270D01*
X222681740Y-137912000D01*
X222418260Y-137912000D01*
X222157712Y-137951270D01*
X222157704Y-137951271D01*
X221905923Y-138028937D01*
X221668532Y-138143259D01*
X221668525Y-138143263D01*
X221498438Y-138259227D01*
X221498438Y-138259229D01*
X222343401Y-139104192D01*
X222318409Y-139110889D01*
X222181592Y-139189881D01*
X222069881Y-139301592D01*
X221990889Y-139438409D01*
X221984192Y-139463401D01*
X221139671Y-138618880D01*
X221139670Y-138618881D01*
X221093400Y-138676904D01*
X221093397Y-138676907D01*
X220961653Y-138905095D01*
X220961651Y-138905099D01*
X220865393Y-139150363D01*
X220865392Y-139150365D01*
X220806760Y-139407245D01*
X220787070Y-139670000D01*
X220806760Y-139932754D01*
X220865392Y-140189634D01*
X220865393Y-140189636D01*
X220961651Y-140434900D01*
X220961653Y-140434904D01*
X221093397Y-140663092D01*
X221093400Y-140663097D01*
X221139670Y-140721117D01*
X221139672Y-140721117D01*
X221984192Y-139876597D01*
X221990889Y-139901591D01*
X222069881Y-140038408D01*
X222181592Y-140150119D01*
X222318409Y-140229111D01*
X222343401Y-140235807D01*
X221490711Y-141088496D01*
X221482856Y-141128878D01*
X221433775Y-141180176D01*
X221370550Y-141196947D01*
X220526856Y-141194179D01*
X220458801Y-141173954D01*
X220434758Y-141153724D01*
X220063489Y-140752216D01*
X220031926Y-140688621D01*
X220030000Y-140666672D01*
X220030000Y-131109120D01*
X220050002Y-131040999D01*
X220058637Y-131029142D01*
X220426718Y-130581116D01*
X220485411Y-130541182D01*
X220499464Y-130537532D01*
X220543693Y-130528735D01*
X220568665Y-130526317D01*
X221370826Y-130528948D01*
G37*
G04 #@! TD.AperFunction*
G04 #@! TA.AperFunction,Conductor*
G36*
X172117121Y-102869710D02*
G01*
X172163614Y-102923366D01*
X172175000Y-102975708D01*
X172175000Y-104014000D01*
X172154998Y-104082121D01*
X172101342Y-104128614D01*
X172049000Y-104140000D01*
X171576000Y-104140000D01*
X171507879Y-104119998D01*
X171461386Y-104066342D01*
X171450000Y-104014000D01*
X171450000Y-102975708D01*
X171470002Y-102907587D01*
X171523658Y-102861094D01*
X171576000Y-102849708D01*
X172049000Y-102849708D01*
X172117121Y-102869710D01*
G37*
G04 #@! TD.AperFunction*
G04 #@! TA.AperFunction,Conductor*
G36*
X229280332Y-79433366D02*
G01*
X229320297Y-79460298D01*
X229869998Y-80009999D01*
X229870000Y-80010000D01*
X234897810Y-80010000D01*
X234965931Y-80030002D01*
X234986905Y-80046905D01*
X235548095Y-80608095D01*
X235582121Y-80670407D01*
X235585000Y-80697190D01*
X235585000Y-83671714D01*
X235564998Y-83739835D01*
X235511342Y-83786328D01*
X235441068Y-83796432D01*
X235376488Y-83766938D01*
X235344805Y-83724965D01*
X235329874Y-83692946D01*
X235315568Y-83662266D01*
X235314190Y-83660298D01*
X235185051Y-83475865D01*
X235185042Y-83475855D01*
X235024144Y-83314957D01*
X235024134Y-83314948D01*
X234837737Y-83184433D01*
X234837738Y-83184433D01*
X234631498Y-83088262D01*
X234631493Y-83088260D01*
X234411695Y-83029365D01*
X234185000Y-83009532D01*
X233958304Y-83029365D01*
X233738506Y-83088260D01*
X233738501Y-83088262D01*
X233532262Y-83184433D01*
X233345865Y-83314948D01*
X233345855Y-83314957D01*
X233184957Y-83475855D01*
X233184948Y-83475865D01*
X233054433Y-83662262D01*
X232958262Y-83868501D01*
X232958260Y-83868506D01*
X232899365Y-84088304D01*
X232879532Y-84315000D01*
X232899365Y-84541695D01*
X232958260Y-84761493D01*
X232958262Y-84761498D01*
X233054433Y-84967737D01*
X233184948Y-85154134D01*
X233184957Y-85154144D01*
X233345855Y-85315042D01*
X233345865Y-85315051D01*
X233532262Y-85445566D01*
X233532261Y-85445566D01*
X233591924Y-85473387D01*
X233738504Y-85541739D01*
X233958308Y-85600635D01*
X234185000Y-85620468D01*
X234411692Y-85600635D01*
X234631496Y-85541739D01*
X234837734Y-85445568D01*
X234912227Y-85393408D01*
X235024134Y-85315051D01*
X235024136Y-85315048D01*
X235024139Y-85315047D01*
X235185047Y-85154139D01*
X235270297Y-85032389D01*
X235315566Y-84967737D01*
X235315566Y-84967736D01*
X235315568Y-84967734D01*
X235344805Y-84905034D01*
X235391722Y-84851750D01*
X235460000Y-84832289D01*
X235527959Y-84852831D01*
X235574025Y-84906854D01*
X235585000Y-84958285D01*
X235585000Y-89121714D01*
X235564998Y-89189835D01*
X235511342Y-89236328D01*
X235441068Y-89246432D01*
X235376488Y-89216938D01*
X235344805Y-89174965D01*
X235315568Y-89112266D01*
X235315564Y-89112260D01*
X235185051Y-88925865D01*
X235185042Y-88925855D01*
X235024144Y-88764957D01*
X235024134Y-88764948D01*
X234837737Y-88634433D01*
X234837738Y-88634433D01*
X234631498Y-88538262D01*
X234631493Y-88538260D01*
X234411695Y-88479365D01*
X234185000Y-88459532D01*
X233958304Y-88479365D01*
X233738506Y-88538260D01*
X233738501Y-88538262D01*
X233532262Y-88634433D01*
X233345865Y-88764948D01*
X233345855Y-88764957D01*
X233184957Y-88925855D01*
X233184948Y-88925865D01*
X233054433Y-89112262D01*
X232958262Y-89318501D01*
X232958260Y-89318506D01*
X232899365Y-89538304D01*
X232879532Y-89765000D01*
X232899365Y-89991695D01*
X232958260Y-90211493D01*
X232958262Y-90211498D01*
X233054433Y-90417737D01*
X233184948Y-90604134D01*
X233184957Y-90604144D01*
X233345855Y-90765042D01*
X233345865Y-90765051D01*
X233532262Y-90895566D01*
X233532261Y-90895566D01*
X233540698Y-90899500D01*
X233738504Y-90991739D01*
X233958308Y-91050635D01*
X234185000Y-91070468D01*
X234411692Y-91050635D01*
X234631496Y-90991739D01*
X234837734Y-90895568D01*
X234974482Y-90799817D01*
X235024134Y-90765051D01*
X235024136Y-90765048D01*
X235024139Y-90765047D01*
X235185047Y-90604139D01*
X235204526Y-90576321D01*
X235315566Y-90417737D01*
X235315566Y-90417736D01*
X235315568Y-90417734D01*
X235344805Y-90355034D01*
X235391722Y-90301750D01*
X235460000Y-90282289D01*
X235527959Y-90302831D01*
X235574025Y-90356854D01*
X235585000Y-90408285D01*
X235585000Y-93292810D01*
X235564998Y-93360931D01*
X235548095Y-93381905D01*
X234986905Y-93943095D01*
X234924593Y-93977121D01*
X234897810Y-93980000D01*
X232494799Y-93980000D01*
X232426678Y-93959998D01*
X232390034Y-93924002D01*
X232357951Y-93875986D01*
X232253416Y-93771451D01*
X230853012Y-92371046D01*
X230750527Y-92302569D01*
X230730091Y-92288914D01*
X230679948Y-92268144D01*
X230593512Y-92232341D01*
X230593509Y-92232340D01*
X230587456Y-92231136D01*
X230448514Y-92203498D01*
X206057084Y-92203498D01*
X205984586Y-92217919D01*
X205912088Y-92232340D01*
X205912085Y-92232341D01*
X205775508Y-92288913D01*
X205755071Y-92302569D01*
X205652586Y-92371045D01*
X205398132Y-92625500D01*
X204831035Y-93192596D01*
X204768725Y-93226620D01*
X204741942Y-93229500D01*
X187053058Y-93229500D01*
X186984937Y-93209498D01*
X186963963Y-93192595D01*
X185644069Y-91872700D01*
X185644065Y-91872697D01*
X185570378Y-91823462D01*
X185521144Y-91790565D01*
X185521142Y-91790564D01*
X185384565Y-91733992D01*
X185384562Y-91733991D01*
X185239567Y-91705149D01*
X185239565Y-91705149D01*
X184589122Y-91705149D01*
X184547507Y-91698078D01*
X184468068Y-91670281D01*
X184431492Y-91666159D01*
X184366043Y-91638657D01*
X184325850Y-91580133D01*
X184323677Y-91509170D01*
X184356506Y-91451860D01*
X187217017Y-88591350D01*
X187279329Y-88557324D01*
X187306112Y-88554445D01*
X205639968Y-88554445D01*
X205639972Y-88554445D01*
X205639973Y-88554445D01*
X205784968Y-88525603D01*
X205921550Y-88469029D01*
X205978911Y-88430702D01*
X206044471Y-88386897D01*
X210767952Y-83663415D01*
X210795205Y-83622627D01*
X210850084Y-83540495D01*
X210892768Y-83437447D01*
X210906659Y-83403912D01*
X210935500Y-83258917D01*
X210935500Y-83111082D01*
X210935500Y-81395570D01*
X210955502Y-81327449D01*
X210972405Y-81306475D01*
X211021475Y-81257405D01*
X211083787Y-81223379D01*
X211110570Y-81220500D01*
X214025764Y-81220500D01*
X214025766Y-81220500D01*
X214172135Y-81181281D01*
X214303365Y-81105515D01*
X215107976Y-80300903D01*
X215170287Y-80266880D01*
X215197070Y-80264000D01*
X218348500Y-80264000D01*
X218416621Y-80284002D01*
X218463114Y-80337658D01*
X218474500Y-80390000D01*
X218474500Y-89586887D01*
X218454498Y-89655008D01*
X218447009Y-89665450D01*
X218445178Y-89667745D01*
X218349212Y-89820474D01*
X218349211Y-89820477D01*
X218349211Y-89820478D01*
X218289632Y-89990745D01*
X218269435Y-90170000D01*
X218289632Y-90349255D01*
X218313594Y-90417734D01*
X218349211Y-90519522D01*
X218349212Y-90519525D01*
X218445182Y-90672260D01*
X218445183Y-90672262D01*
X218572737Y-90799816D01*
X218572739Y-90799817D01*
X218725474Y-90895787D01*
X218725475Y-90895787D01*
X218725478Y-90895789D01*
X218895745Y-90955368D01*
X219075000Y-90975565D01*
X219254255Y-90955368D01*
X219424522Y-90895789D01*
X219577262Y-90799816D01*
X219704816Y-90672262D01*
X219800789Y-90519522D01*
X219860368Y-90349255D01*
X219880565Y-90170000D01*
X219860368Y-89990745D01*
X219800789Y-89820478D01*
X219800787Y-89820475D01*
X219800787Y-89820474D01*
X219704821Y-89667745D01*
X219704818Y-89667741D01*
X219704816Y-89667738D01*
X219704813Y-89667735D01*
X219702991Y-89665450D01*
X219702270Y-89663685D01*
X219701052Y-89661746D01*
X219701391Y-89661532D01*
X219676155Y-89599720D01*
X219675500Y-89586887D01*
X219675500Y-89465000D01*
X229999571Y-89465000D01*
X230019244Y-89677311D01*
X230077593Y-89882384D01*
X230077594Y-89882386D01*
X230077595Y-89882389D01*
X230172634Y-90073255D01*
X230301128Y-90243407D01*
X230301129Y-90243408D01*
X230458699Y-90387053D01*
X230458701Y-90387054D01*
X230639974Y-90499294D01*
X230639975Y-90499294D01*
X230639981Y-90499298D01*
X230838802Y-90576321D01*
X231048390Y-90615500D01*
X231048393Y-90615500D01*
X231261607Y-90615500D01*
X231261610Y-90615500D01*
X231471198Y-90576321D01*
X231670019Y-90499298D01*
X231851302Y-90387052D01*
X232008872Y-90243407D01*
X232137366Y-90073255D01*
X232232405Y-89882389D01*
X232290756Y-89677310D01*
X232310429Y-89465000D01*
X232290756Y-89252690D01*
X232232405Y-89047611D01*
X232137366Y-88856745D01*
X232008872Y-88686593D01*
X231951655Y-88634432D01*
X231851300Y-88542946D01*
X231851298Y-88542945D01*
X231670025Y-88430705D01*
X231670021Y-88430703D01*
X231670019Y-88430702D01*
X231548222Y-88383517D01*
X231471199Y-88353679D01*
X231418801Y-88343884D01*
X231261610Y-88314500D01*
X231048390Y-88314500D01*
X230922637Y-88338007D01*
X230838800Y-88353679D01*
X230684754Y-88413356D01*
X230639981Y-88430702D01*
X230639980Y-88430702D01*
X230639979Y-88430703D01*
X230639974Y-88430705D01*
X230458701Y-88542945D01*
X230458699Y-88542946D01*
X230301129Y-88686591D01*
X230241953Y-88764953D01*
X230172634Y-88856745D01*
X230138222Y-88925855D01*
X230077593Y-89047615D01*
X230019244Y-89252688D01*
X229999571Y-89465000D01*
X219675500Y-89465000D01*
X219675500Y-84615000D01*
X229999571Y-84615000D01*
X230019244Y-84827311D01*
X230077593Y-85032384D01*
X230077594Y-85032386D01*
X230077595Y-85032389D01*
X230172634Y-85223255D01*
X230294245Y-85384292D01*
X230301129Y-85393408D01*
X230458699Y-85537053D01*
X230458701Y-85537054D01*
X230639974Y-85649294D01*
X230639975Y-85649294D01*
X230639981Y-85649298D01*
X230838802Y-85726321D01*
X231048390Y-85765500D01*
X231048393Y-85765500D01*
X231261607Y-85765500D01*
X231261610Y-85765500D01*
X231471198Y-85726321D01*
X231670019Y-85649298D01*
X231851302Y-85537052D01*
X232008872Y-85393407D01*
X232137366Y-85223255D01*
X232232405Y-85032389D01*
X232290756Y-84827310D01*
X232310429Y-84615000D01*
X232290756Y-84402690D01*
X232232405Y-84197611D01*
X232137366Y-84006745D01*
X232008872Y-83836593D01*
X232007418Y-83835267D01*
X231851300Y-83692946D01*
X231851298Y-83692945D01*
X231670025Y-83580705D01*
X231670021Y-83580703D01*
X231670019Y-83580702D01*
X231548222Y-83533517D01*
X231471199Y-83503679D01*
X231418801Y-83493884D01*
X231261610Y-83464500D01*
X231048390Y-83464500D01*
X230922637Y-83488007D01*
X230838800Y-83503679D01*
X230684754Y-83563356D01*
X230639981Y-83580702D01*
X230639980Y-83580702D01*
X230639979Y-83580703D01*
X230639974Y-83580705D01*
X230458701Y-83692945D01*
X230458699Y-83692946D01*
X230301129Y-83836591D01*
X230277028Y-83868506D01*
X230172634Y-84006745D01*
X230132023Y-84088304D01*
X230077593Y-84197615D01*
X230019244Y-84402688D01*
X229999571Y-84615000D01*
X219675500Y-84615000D01*
X219675500Y-80390000D01*
X219695502Y-80321879D01*
X219749158Y-80275386D01*
X219801500Y-80264000D01*
X228265000Y-80264000D01*
X229146070Y-79456503D01*
X229209804Y-79425223D01*
X229280332Y-79433366D01*
G37*
G04 #@! TD.AperFunction*
G04 #@! TA.AperFunction,Conductor*
G36*
X209376621Y-80284002D02*
G01*
X209423114Y-80337658D01*
X209434500Y-80390000D01*
X209434500Y-82821942D01*
X209414498Y-82890063D01*
X209397595Y-82911037D01*
X205292092Y-87016540D01*
X205229780Y-87050566D01*
X205202997Y-87053445D01*
X187016972Y-87053445D01*
X186869137Y-87053445D01*
X186796639Y-87067866D01*
X186724141Y-87082287D01*
X186724138Y-87082288D01*
X186587559Y-87138861D01*
X186464643Y-87220991D01*
X186464636Y-87220996D01*
X182725699Y-90959931D01*
X182725694Y-90959937D01*
X182715255Y-90975563D01*
X182715252Y-90975567D01*
X182643567Y-91082851D01*
X182643565Y-91082855D01*
X182586992Y-91219434D01*
X182586991Y-91219437D01*
X182558149Y-91364434D01*
X182558149Y-91533859D01*
X182538147Y-91601980D01*
X182484491Y-91648473D01*
X182418043Y-91659067D01*
X182338309Y-91650084D01*
X182338308Y-91650084D01*
X182159053Y-91670281D01*
X182159050Y-91670281D01*
X182159050Y-91670282D01*
X182079614Y-91698078D01*
X182037999Y-91705149D01*
X181766500Y-91705149D01*
X181698379Y-91685147D01*
X181651886Y-91631491D01*
X181640500Y-91579149D01*
X181640500Y-91484306D01*
X181637598Y-91447432D01*
X181637598Y-91447431D01*
X181591744Y-91289602D01*
X181591742Y-91289598D01*
X181508082Y-91148136D01*
X181508076Y-91148129D01*
X181391870Y-91031923D01*
X181391863Y-91031917D01*
X181250401Y-90948257D01*
X181092568Y-90902401D01*
X181058595Y-90899728D01*
X181055694Y-90899500D01*
X179624306Y-90899500D01*
X179621405Y-90899728D01*
X179587432Y-90902401D01*
X179587431Y-90902401D01*
X179429598Y-90948257D01*
X179288136Y-91031917D01*
X179288134Y-91031919D01*
X179269420Y-91050634D01*
X179232457Y-91087596D01*
X179170148Y-91121620D01*
X179143364Y-91124500D01*
X178322482Y-91124500D01*
X178174647Y-91124500D01*
X178102149Y-91138921D01*
X178029651Y-91153342D01*
X178029648Y-91153343D01*
X177893069Y-91209916D01*
X177770150Y-91292048D01*
X177770148Y-91292049D01*
X177214424Y-91847772D01*
X177132293Y-91970693D01*
X177075718Y-92107278D01*
X177075717Y-92107280D01*
X177067762Y-92147270D01*
X177034852Y-92210178D01*
X177008325Y-92231136D01*
X176945750Y-92268144D01*
X176945743Y-92268149D01*
X176830649Y-92383243D01*
X176830644Y-92383250D01*
X176747789Y-92523349D01*
X176702376Y-92679660D01*
X176702374Y-92679673D01*
X176699500Y-92716187D01*
X176699500Y-92913247D01*
X176679498Y-92981368D01*
X176637297Y-93021902D01*
X176510974Y-93096073D01*
X176448215Y-93113414D01*
X175951433Y-93117505D01*
X175913309Y-93111927D01*
X175862390Y-93096245D01*
X175803174Y-93057079D01*
X175774533Y-92992116D01*
X175773476Y-92975842D01*
X175773267Y-86041618D01*
X175773267Y-86041606D01*
X175771687Y-86012162D01*
X175770325Y-85986744D01*
X175767446Y-85959965D01*
X175758651Y-85905696D01*
X175707573Y-85768755D01*
X175707572Y-85768752D01*
X175673545Y-85706439D01*
X175585964Y-85589448D01*
X175585954Y-85589436D01*
X175469905Y-85473387D01*
X175435879Y-85411075D01*
X175433000Y-85384292D01*
X175433000Y-83998783D01*
X175453002Y-83930662D01*
X175506658Y-83884169D01*
X175559000Y-83872783D01*
X181106500Y-83872783D01*
X181174621Y-83892785D01*
X181221114Y-83946441D01*
X181232500Y-83998783D01*
X181232500Y-84400480D01*
X181233086Y-84402662D01*
X181233089Y-84402690D01*
X181233094Y-84402689D01*
X181233094Y-84402690D01*
X181270016Y-84540485D01*
X181270017Y-84540487D01*
X181270018Y-84540490D01*
X181342487Y-84666011D01*
X181342495Y-84666021D01*
X181979942Y-85303468D01*
X181979947Y-85303472D01*
X181979949Y-85303474D01*
X181979950Y-85303475D01*
X181979952Y-85303476D01*
X182102411Y-85374177D01*
X182102412Y-85374177D01*
X182102415Y-85374179D01*
X182105479Y-85375948D01*
X182245489Y-85413464D01*
X182245491Y-85413464D01*
X183878605Y-85413464D01*
X183878606Y-85413464D01*
X183878607Y-85413464D01*
X184018617Y-85375948D01*
X184021678Y-85374180D01*
X184021680Y-85374180D01*
X184092386Y-85333357D01*
X184144147Y-85303474D01*
X184775575Y-84672046D01*
X184848049Y-84546516D01*
X184856103Y-84516459D01*
X184885565Y-84406506D01*
X184885565Y-83580149D01*
X184905567Y-83512028D01*
X184922470Y-83491054D01*
X188112619Y-80300905D01*
X188174931Y-80266879D01*
X188201714Y-80264000D01*
X209308500Y-80264000D01*
X209376621Y-80284002D01*
G37*
G04 #@! TD.AperFunction*
G04 #@! TA.AperFunction,Conductor*
G36*
X162560000Y-102940731D02*
G01*
X158472156Y-102940731D01*
X158472154Y-102940731D01*
X156246905Y-105165982D01*
X156184593Y-105200007D01*
X156157810Y-105202887D01*
X155366000Y-105202887D01*
X155297879Y-105182885D01*
X155251386Y-105129229D01*
X155240000Y-105076887D01*
X155240000Y-104375054D01*
X155260002Y-104306933D01*
X155313658Y-104260440D01*
X155366000Y-104249054D01*
X155830848Y-104249054D01*
X155830849Y-104249053D01*
X157772371Y-102307530D01*
X157834681Y-102273507D01*
X157860986Y-102270628D01*
X162560000Y-102252912D01*
X162560000Y-102940731D01*
G37*
G04 #@! TD.AperFunction*
G04 #@! TA.AperFunction,Conductor*
G36*
X205619270Y-102147502D02*
G01*
X205665763Y-102201158D01*
X205677149Y-102253500D01*
X205677149Y-103051500D01*
X205657147Y-103119621D01*
X205603491Y-103166114D01*
X205551149Y-103177500D01*
X202869190Y-103177500D01*
X202801069Y-103157498D01*
X202754576Y-103103842D01*
X202744472Y-103033568D01*
X202773966Y-102968988D01*
X202780095Y-102962405D01*
X203578095Y-102164405D01*
X203640407Y-102130379D01*
X203667190Y-102127500D01*
X205551149Y-102127500D01*
X205619270Y-102147502D01*
G37*
G04 #@! TD.AperFunction*
G04 #@! TA.AperFunction,Conductor*
G36*
X174866803Y-85596531D02*
G01*
X174868895Y-85598576D01*
X175222862Y-85952543D01*
X175256888Y-86014855D01*
X175259767Y-86041634D01*
X175260000Y-93725999D01*
X175260001Y-93726002D01*
X176032135Y-94695504D01*
X176058927Y-94761251D01*
X176045921Y-94831046D01*
X175997245Y-94882729D01*
X175933574Y-94900000D01*
X173636329Y-94900000D01*
X173568208Y-94879998D01*
X173547234Y-94863095D01*
X171953061Y-93268921D01*
X171953059Y-93268920D01*
X171953058Y-93268920D01*
X171586033Y-93272297D01*
X171558680Y-93269549D01*
X171545491Y-93266746D01*
X171545487Y-93266746D01*
X171539479Y-93266746D01*
X167990275Y-93266746D01*
X167990269Y-93266746D01*
X167814753Y-93301658D01*
X167813892Y-93301920D01*
X167811931Y-93302219D01*
X167808684Y-93302866D01*
X167808655Y-93302721D01*
X167778481Y-93307339D01*
X164517868Y-93337348D01*
X164449566Y-93317973D01*
X164427613Y-93300448D01*
X163021417Y-91894252D01*
X162987391Y-91831940D01*
X162984512Y-91805157D01*
X162984512Y-88247453D01*
X163004514Y-88179332D01*
X163058170Y-88132839D01*
X163128444Y-88122735D01*
X163193024Y-88152229D01*
X163199607Y-88158358D01*
X163531209Y-88489960D01*
X163531223Y-88489975D01*
X163534384Y-88493136D01*
X163534385Y-88493137D01*
X163630981Y-88589733D01*
X163744566Y-88665628D01*
X163870775Y-88717906D01*
X163986138Y-88740852D01*
X164004752Y-88744555D01*
X164004755Y-88744555D01*
X164004758Y-88744556D01*
X172198963Y-88744556D01*
X172198983Y-88744557D01*
X172205196Y-88744557D01*
X172341799Y-88744557D01*
X172341804Y-88744557D01*
X172453557Y-88722327D01*
X172475787Y-88717906D01*
X172512752Y-88702594D01*
X172601996Y-88665629D01*
X172670084Y-88620132D01*
X172715581Y-88589733D01*
X172812177Y-88493137D01*
X172822543Y-88482771D01*
X172822550Y-88482761D01*
X173003409Y-88301904D01*
X173065721Y-88267879D01*
X173092504Y-88265000D01*
X173925000Y-88265000D01*
X174560000Y-87630000D01*
X174578526Y-87245772D01*
X174653946Y-85681601D01*
X174677206Y-85614524D01*
X174733038Y-85570670D01*
X174803717Y-85563962D01*
X174866803Y-85596531D01*
G37*
G04 #@! TD.AperFunction*
G04 #@! TA.AperFunction,Conductor*
G36*
X212785385Y-79367592D02*
G01*
X212800502Y-79377306D01*
X212898796Y-79450889D01*
X213035795Y-79501988D01*
X213035803Y-79501990D01*
X213096350Y-79508499D01*
X213096355Y-79508499D01*
X213096362Y-79508500D01*
X213096368Y-79508500D01*
X214782310Y-79508500D01*
X214850431Y-79528502D01*
X214896924Y-79582158D01*
X214907028Y-79652432D01*
X214877534Y-79717012D01*
X214871405Y-79723595D01*
X213986905Y-80608095D01*
X213924593Y-80642121D01*
X213897810Y-80645000D01*
X210311000Y-80645000D01*
X210242879Y-80624998D01*
X210196386Y-80571342D01*
X210185000Y-80519000D01*
X210185000Y-79567540D01*
X210205002Y-79499419D01*
X210258658Y-79452926D01*
X210328932Y-79442822D01*
X210355034Y-79449485D01*
X210358793Y-79450887D01*
X210358796Y-79450889D01*
X210495799Y-79501989D01*
X210495801Y-79501989D01*
X210495803Y-79501990D01*
X210556350Y-79508499D01*
X210556355Y-79508499D01*
X210556362Y-79508500D01*
X210556368Y-79508500D01*
X212353632Y-79508500D01*
X212353638Y-79508500D01*
X212353645Y-79508499D01*
X212353649Y-79508499D01*
X212414196Y-79501990D01*
X212414199Y-79501989D01*
X212414201Y-79501989D01*
X212421092Y-79499419D01*
X212433045Y-79494960D01*
X212551204Y-79450889D01*
X212649492Y-79377311D01*
X212716011Y-79352501D01*
X212785385Y-79367592D01*
G37*
G04 #@! TD.AperFunction*
G04 #@! TA.AperFunction,Conductor*
G36*
X215207121Y-71140002D02*
G01*
X215253614Y-71193658D01*
X215265000Y-71246000D01*
X215265000Y-74932459D01*
X215244998Y-75000580D01*
X215191342Y-75047073D01*
X215121068Y-75057177D01*
X215094967Y-75050515D01*
X215091205Y-75049111D01*
X215091204Y-75049111D01*
X214954201Y-74998011D01*
X214954199Y-74998010D01*
X214954197Y-74998010D01*
X214954196Y-74998009D01*
X214893649Y-74991500D01*
X214893638Y-74991500D01*
X213096362Y-74991500D01*
X213096350Y-74991500D01*
X213035803Y-74998009D01*
X213035795Y-74998011D01*
X212898797Y-75049110D01*
X212898792Y-75049112D01*
X212800509Y-75122687D01*
X212733989Y-75147498D01*
X212664615Y-75132407D01*
X212649491Y-75122687D01*
X212551207Y-75049112D01*
X212551202Y-75049110D01*
X212414204Y-74998011D01*
X212414196Y-74998009D01*
X212353649Y-74991500D01*
X212353638Y-74991500D01*
X210556362Y-74991500D01*
X210556350Y-74991500D01*
X210495803Y-74998009D01*
X210495802Y-74998010D01*
X210495799Y-74998010D01*
X210495799Y-74998011D01*
X210358796Y-75049111D01*
X210358794Y-75049111D01*
X210355033Y-75050515D01*
X210284217Y-75055580D01*
X210221905Y-75021555D01*
X210187880Y-74959243D01*
X210185000Y-74932459D01*
X210185000Y-72442190D01*
X210205002Y-72374069D01*
X210221905Y-72353095D01*
X210738095Y-71836905D01*
X210800407Y-71802879D01*
X210827190Y-71800000D01*
X212679999Y-71800000D01*
X212680000Y-71800000D01*
X213323096Y-71156903D01*
X213385407Y-71122880D01*
X213412190Y-71120000D01*
X215139000Y-71120000D01*
X215207121Y-71140002D01*
G37*
G04 #@! TD.AperFunction*
G04 #@! TA.AperFunction,Conductor*
G36*
X211107122Y-127020002D02*
G01*
X211153615Y-127073658D01*
X211165001Y-127126000D01*
X211165001Y-127299978D01*
X211175493Y-127402691D01*
X211230642Y-127569122D01*
X211322683Y-127718344D01*
X211322688Y-127718350D01*
X211446649Y-127842311D01*
X211446655Y-127842316D01*
X211595877Y-127934357D01*
X211762308Y-127989506D01*
X211865012Y-127999999D01*
X212223133Y-127999999D01*
X212291253Y-128020001D01*
X212337746Y-128073656D01*
X212349050Y-128130560D01*
X212343999Y-128269999D01*
X212344000Y-128270000D01*
X216534999Y-128270000D01*
X216535000Y-128270000D01*
X216954906Y-127850093D01*
X217017217Y-127816070D01*
X217088032Y-127821134D01*
X217144868Y-127863681D01*
X217169679Y-127930201D01*
X217170000Y-127939190D01*
X217170000Y-128270000D01*
X219662314Y-130513083D01*
X219699567Y-130573520D01*
X219698231Y-130644504D01*
X219675385Y-130686717D01*
X219661867Y-130703171D01*
X219643555Y-130726833D01*
X219634905Y-130738711D01*
X219618018Y-130763379D01*
X219557301Y-130896330D01*
X219537302Y-130964442D01*
X219537300Y-130964449D01*
X219536997Y-130966559D01*
X219526941Y-131036504D01*
X219516500Y-131109123D01*
X219516500Y-139820835D01*
X219496498Y-139888956D01*
X219442842Y-139935449D01*
X219387689Y-139946804D01*
X219337229Y-139945678D01*
X219269571Y-139924161D01*
X219224287Y-139869481D01*
X219214392Y-139810292D01*
X219224906Y-139669999D01*
X219205305Y-139408441D01*
X219146940Y-139152730D01*
X219146939Y-139152727D01*
X219051118Y-138908576D01*
X218919973Y-138681427D01*
X218919970Y-138681422D01*
X218872125Y-138621427D01*
X218872123Y-138621427D01*
X218034611Y-139458938D01*
X218029111Y-139438409D01*
X217950119Y-139301592D01*
X217838408Y-139189881D01*
X217701591Y-139110889D01*
X217681059Y-139105387D01*
X218519167Y-138267279D01*
X218519167Y-138267277D01*
X218347456Y-138150207D01*
X218347448Y-138150202D01*
X218111149Y-138036406D01*
X218111131Y-138036399D01*
X217860514Y-137959094D01*
X217860502Y-137959092D01*
X217601140Y-137920000D01*
X217338860Y-137920000D01*
X217079497Y-137959092D01*
X217079485Y-137959094D01*
X216828856Y-138036404D01*
X216592550Y-138150203D01*
X216420831Y-138267278D01*
X216420831Y-138267279D01*
X217258939Y-139105387D01*
X217238409Y-139110889D01*
X217101592Y-139189881D01*
X216989881Y-139301592D01*
X216910889Y-139438409D01*
X216905387Y-139458940D01*
X216067874Y-138621426D01*
X216067873Y-138621427D01*
X216020029Y-138681424D01*
X216020026Y-138681427D01*
X215888881Y-138908576D01*
X215793060Y-139152727D01*
X215793059Y-139152730D01*
X215734694Y-139408441D01*
X215715093Y-139670000D01*
X215722491Y-139768730D01*
X215707635Y-139838155D01*
X215657603Y-139888527D01*
X215596853Y-139904145D01*
X214263187Y-139904249D01*
X214195065Y-139884252D01*
X214148567Y-139830600D01*
X214137529Y-139768832D01*
X214144906Y-139670395D01*
X214125305Y-139408837D01*
X214066940Y-139153126D01*
X214066939Y-139153123D01*
X213971118Y-138908972D01*
X213839973Y-138681823D01*
X213839970Y-138681818D01*
X213792125Y-138621823D01*
X213792123Y-138621823D01*
X212954611Y-139459334D01*
X212949111Y-139438805D01*
X212870119Y-139301988D01*
X212758408Y-139190277D01*
X212621591Y-139111285D01*
X212601059Y-139105783D01*
X213439167Y-138267675D01*
X213439167Y-138267673D01*
X213267456Y-138150603D01*
X213267448Y-138150598D01*
X213031149Y-138036802D01*
X213031131Y-138036795D01*
X212780514Y-137959490D01*
X212780502Y-137959488D01*
X212521140Y-137920396D01*
X212258860Y-137920396D01*
X211999497Y-137959488D01*
X211999485Y-137959490D01*
X211748856Y-138036800D01*
X211512550Y-138150599D01*
X211340831Y-138267674D01*
X211340831Y-138267675D01*
X212178939Y-139105783D01*
X212158409Y-139111285D01*
X212021592Y-139190277D01*
X211909881Y-139301988D01*
X211883464Y-139347742D01*
X211070437Y-138454272D01*
X211070438Y-138454272D01*
X210057963Y-137341621D01*
X210026910Y-137277776D01*
X210025156Y-137256426D01*
X210041827Y-132050396D01*
X210635093Y-132050396D01*
X210654694Y-132311954D01*
X210713059Y-132567665D01*
X210713060Y-132567668D01*
X210808881Y-132811819D01*
X210940026Y-133038968D01*
X210940029Y-133038973D01*
X210987873Y-133098967D01*
X210987875Y-133098967D01*
X211825387Y-132261455D01*
X211830889Y-132281987D01*
X211909881Y-132418804D01*
X212021592Y-132530515D01*
X212158409Y-132609507D01*
X212178939Y-132615008D01*
X211340831Y-133453115D01*
X211340831Y-133453117D01*
X211512537Y-133570184D01*
X211512545Y-133570188D01*
X211748856Y-133683991D01*
X211999485Y-133761301D01*
X211999497Y-133761303D01*
X212258860Y-133800396D01*
X212521140Y-133800396D01*
X212780502Y-133761303D01*
X212780514Y-133761301D01*
X213031131Y-133683996D01*
X213031144Y-133683991D01*
X213267456Y-133570188D01*
X213439167Y-133453116D01*
X213439167Y-133453115D01*
X212601060Y-132615008D01*
X212621591Y-132609507D01*
X212758408Y-132530515D01*
X212870119Y-132418804D01*
X212949111Y-132281987D01*
X212954612Y-132261456D01*
X213792124Y-133098968D01*
X213839974Y-133038966D01*
X213971118Y-132811819D01*
X214066939Y-132567668D01*
X214066940Y-132567665D01*
X214125305Y-132311954D01*
X214144906Y-132050396D01*
X214144876Y-132050000D01*
X215715093Y-132050000D01*
X215734694Y-132311558D01*
X215793059Y-132567269D01*
X215793060Y-132567272D01*
X215888881Y-132811423D01*
X216020026Y-133038572D01*
X216020029Y-133038577D01*
X216067873Y-133098571D01*
X216067875Y-133098571D01*
X216905387Y-132261059D01*
X216910889Y-132281591D01*
X216989881Y-132418408D01*
X217101592Y-132530119D01*
X217238409Y-132609111D01*
X217258939Y-132614612D01*
X216420831Y-133452719D01*
X216420831Y-133452721D01*
X216592537Y-133569788D01*
X216592545Y-133569792D01*
X216828856Y-133683595D01*
X217079485Y-133760905D01*
X217079497Y-133760907D01*
X217338860Y-133800000D01*
X217601140Y-133800000D01*
X217860502Y-133760907D01*
X217860514Y-133760905D01*
X218111131Y-133683600D01*
X218111144Y-133683595D01*
X218347456Y-133569792D01*
X218519167Y-133452720D01*
X218519167Y-133452719D01*
X217681060Y-132614612D01*
X217701591Y-132609111D01*
X217838408Y-132530119D01*
X217950119Y-132418408D01*
X218029111Y-132281591D01*
X218034612Y-132261060D01*
X218872124Y-133098572D01*
X218919974Y-133038570D01*
X219051118Y-132811423D01*
X219146939Y-132567272D01*
X219146940Y-132567269D01*
X219205305Y-132311558D01*
X219224906Y-132050000D01*
X219205305Y-131788441D01*
X219146940Y-131532730D01*
X219146939Y-131532727D01*
X219051118Y-131288576D01*
X218919973Y-131061427D01*
X218919970Y-131061422D01*
X218872125Y-131001427D01*
X218872123Y-131001427D01*
X218034611Y-131838938D01*
X218029111Y-131818409D01*
X217950119Y-131681592D01*
X217838408Y-131569881D01*
X217701591Y-131490889D01*
X217681059Y-131485387D01*
X218519167Y-130647279D01*
X218519167Y-130647277D01*
X218347456Y-130530207D01*
X218347448Y-130530202D01*
X218111149Y-130416406D01*
X218111131Y-130416399D01*
X217860514Y-130339094D01*
X217860502Y-130339092D01*
X217601140Y-130300000D01*
X217338860Y-130300000D01*
X217079497Y-130339092D01*
X217079485Y-130339094D01*
X216828856Y-130416404D01*
X216592550Y-130530203D01*
X216420831Y-130647278D01*
X216420831Y-130647279D01*
X217258939Y-131485387D01*
X217238409Y-131490889D01*
X217101592Y-131569881D01*
X216989881Y-131681592D01*
X216910889Y-131818409D01*
X216905387Y-131838939D01*
X216067874Y-131001426D01*
X216067873Y-131001427D01*
X216020029Y-131061424D01*
X216020026Y-131061427D01*
X215888881Y-131288576D01*
X215793060Y-131532727D01*
X215793059Y-131532730D01*
X215734694Y-131788441D01*
X215715093Y-132050000D01*
X214144876Y-132050000D01*
X214125305Y-131788837D01*
X214066940Y-131533126D01*
X214066939Y-131533123D01*
X213971118Y-131288972D01*
X213839973Y-131061823D01*
X213839970Y-131061818D01*
X213792125Y-131001823D01*
X213792123Y-131001823D01*
X212954611Y-131839334D01*
X212949111Y-131818805D01*
X212870119Y-131681988D01*
X212758408Y-131570277D01*
X212621591Y-131491285D01*
X212601059Y-131485783D01*
X213439167Y-130647675D01*
X213439167Y-130647673D01*
X213267456Y-130530603D01*
X213267448Y-130530598D01*
X213031149Y-130416802D01*
X213031131Y-130416795D01*
X212780514Y-130339490D01*
X212780502Y-130339488D01*
X212521140Y-130300396D01*
X212258860Y-130300396D01*
X211999497Y-130339488D01*
X211999485Y-130339490D01*
X211748856Y-130416800D01*
X211512550Y-130530599D01*
X211340831Y-130647674D01*
X211340831Y-130647675D01*
X212178939Y-131485783D01*
X212158409Y-131491285D01*
X212021592Y-131570277D01*
X211909881Y-131681988D01*
X211830889Y-131818805D01*
X211825387Y-131839335D01*
X210987874Y-131001822D01*
X210987873Y-131001823D01*
X210940029Y-131061820D01*
X210940026Y-131061823D01*
X210808881Y-131288972D01*
X210713060Y-131533123D01*
X210713059Y-131533126D01*
X210654694Y-131788837D01*
X210635093Y-132050396D01*
X210041827Y-132050396D01*
X210056711Y-127402691D01*
X210057598Y-127125597D01*
X210077818Y-127057540D01*
X210131622Y-127011219D01*
X210183597Y-127000000D01*
X211039001Y-127000000D01*
X211107122Y-127020002D01*
G37*
G04 #@! TD.AperFunction*
G04 #@! TA.AperFunction,Conductor*
G36*
X120041443Y-94371837D02*
G01*
X120062417Y-94388740D01*
X121596714Y-95923038D01*
X121596716Y-95923039D01*
X128174737Y-95923039D01*
X128242858Y-95943041D01*
X128264888Y-95961012D01*
X133487152Y-101309287D01*
X133520431Y-101371998D01*
X133523000Y-101397312D01*
X133523000Y-108129861D01*
X133502998Y-108197982D01*
X133458191Y-108240005D01*
X131424191Y-109370005D01*
X131354929Y-109385602D01*
X131288229Y-109361278D01*
X131245269Y-109304754D01*
X131237000Y-109259861D01*
X131237000Y-105918000D01*
X130439519Y-104485636D01*
X129540000Y-102870000D01*
X129539999Y-102870000D01*
X129539998Y-102869999D01*
X125994262Y-102911389D01*
X125925912Y-102892184D01*
X125878796Y-102839075D01*
X125867873Y-102768923D01*
X125896610Y-102704003D01*
X125903672Y-102696327D01*
X126365000Y-102235000D01*
X126365000Y-100330000D01*
X126364999Y-100329998D01*
X125730001Y-99695000D01*
X125730000Y-99695000D01*
X120251097Y-99695000D01*
X120182976Y-99674998D01*
X120162002Y-99658095D01*
X120086555Y-99582648D01*
X120059242Y-99541771D01*
X120052174Y-99524707D01*
X120052173Y-99524705D01*
X120052172Y-99524703D01*
X120030394Y-99492111D01*
X120030393Y-99492109D01*
X119969166Y-99400476D01*
X118738519Y-98169829D01*
X118614288Y-98086821D01*
X118476251Y-98029644D01*
X118369953Y-98008500D01*
X118329710Y-98000495D01*
X114948852Y-98000495D01*
X114948851Y-98000495D01*
X114928730Y-98004497D01*
X114908609Y-98008500D01*
X114802310Y-98029644D01*
X114802304Y-98029646D01*
X114745134Y-98053327D01*
X114664274Y-98086821D01*
X114664273Y-98086822D01*
X114540043Y-98169829D01*
X114540037Y-98169834D01*
X114010838Y-98699033D01*
X114010833Y-98699039D01*
X113927825Y-98823269D01*
X113927824Y-98823271D01*
X113919878Y-98842457D01*
X113875330Y-98897738D01*
X113807967Y-98920160D01*
X113803469Y-98920240D01*
X113668846Y-98920240D01*
X113613321Y-98905361D01*
X113612784Y-98906568D01*
X113606753Y-98903882D01*
X113606752Y-98903882D01*
X113432288Y-98826206D01*
X113245487Y-98786500D01*
X113054513Y-98786500D01*
X112867711Y-98826206D01*
X112831211Y-98842457D01*
X112693248Y-98903882D01*
X112693246Y-98903882D01*
X112687216Y-98906568D01*
X112686678Y-98905361D01*
X112631154Y-98920240D01*
X112541269Y-98920240D01*
X112485744Y-98905361D01*
X112485207Y-98906568D01*
X112479176Y-98903882D01*
X112479175Y-98903882D01*
X112304711Y-98826206D01*
X112117910Y-98786500D01*
X111926936Y-98786500D01*
X111740134Y-98826206D01*
X111703634Y-98842457D01*
X111565671Y-98903882D01*
X111565669Y-98903882D01*
X111559639Y-98906568D01*
X111559101Y-98905361D01*
X111503577Y-98920240D01*
X111398461Y-98920240D01*
X111342936Y-98905361D01*
X111342399Y-98906568D01*
X111336368Y-98903882D01*
X111336367Y-98903882D01*
X111161903Y-98826206D01*
X110975102Y-98786500D01*
X110784128Y-98786500D01*
X110597326Y-98826206D01*
X110560826Y-98842457D01*
X110422863Y-98903882D01*
X110422861Y-98903882D01*
X110416831Y-98906568D01*
X110416293Y-98905361D01*
X110360769Y-98920240D01*
X110283567Y-98920240D01*
X110228042Y-98905361D01*
X110227505Y-98906568D01*
X110221474Y-98903882D01*
X110221473Y-98903882D01*
X110047009Y-98826206D01*
X109860208Y-98786500D01*
X109669234Y-98786500D01*
X109482432Y-98826206D01*
X109307968Y-98903882D01*
X109153465Y-99016135D01*
X109025686Y-99158048D01*
X109025679Y-99158058D01*
X108930196Y-99323438D01*
X108885035Y-99462424D01*
X108854298Y-99512581D01*
X108592351Y-99774529D01*
X108592350Y-99774530D01*
X108585000Y-101600001D01*
X109899998Y-102914999D01*
X109900000Y-102915000D01*
X112065806Y-102915000D01*
X112133927Y-102935002D01*
X112154896Y-102951900D01*
X112707996Y-103505000D01*
X115569999Y-103505000D01*
X115570000Y-103505000D01*
X115990313Y-102999950D01*
X116049261Y-102960387D01*
X116120244Y-102958973D01*
X116180722Y-102996159D01*
X116192079Y-103010782D01*
X116200405Y-103023302D01*
X116250537Y-103098689D01*
X116650541Y-103099359D01*
X116726689Y-103023302D01*
X116726688Y-103023298D01*
X116732783Y-103008581D01*
X116777320Y-102953291D01*
X116844679Y-102930857D01*
X116913473Y-102948401D01*
X116941547Y-102974405D01*
X116947499Y-102977500D01*
X116947500Y-102977500D01*
X118146721Y-102977500D01*
X118214842Y-102997502D01*
X118261335Y-103051158D01*
X118271439Y-103121432D01*
X118241945Y-103186012D01*
X118235816Y-103192595D01*
X118084085Y-103344325D01*
X118084085Y-105383724D01*
X118064083Y-105451845D01*
X118047180Y-105472819D01*
X116840000Y-106679998D01*
X116840000Y-109167810D01*
X116819998Y-109235931D01*
X116803095Y-109256905D01*
X114756905Y-111303095D01*
X114694593Y-111337121D01*
X114667810Y-111340000D01*
X112121000Y-111340000D01*
X112052879Y-111319998D01*
X112006386Y-111266342D01*
X111995000Y-111214000D01*
X111995000Y-107640000D01*
X111994999Y-107639998D01*
X107270002Y-102915001D01*
X107270000Y-102915000D01*
X106989643Y-102868702D01*
X106925692Y-102837868D01*
X106888563Y-102777354D01*
X106890044Y-102706373D01*
X106927598Y-102649216D01*
X107405000Y-102235000D01*
X107405000Y-100965000D01*
X107268983Y-100828983D01*
X107238477Y-100779525D01*
X107187661Y-100626171D01*
X107095344Y-100476502D01*
X107095343Y-100476501D01*
X107095338Y-100476495D01*
X106971004Y-100352161D01*
X106970998Y-100352156D01*
X106821329Y-100259839D01*
X106761458Y-100240000D01*
X106654404Y-100204526D01*
X106654401Y-100204525D01*
X106654399Y-100204525D01*
X106551383Y-100194000D01*
X105538625Y-100194000D01*
X105435598Y-100204525D01*
X105347840Y-100233605D01*
X105308208Y-100240000D01*
X102922190Y-100240000D01*
X102854069Y-100219998D01*
X102833099Y-100203099D01*
X102235000Y-99605000D01*
X99059999Y-99605000D01*
X98242785Y-100691336D01*
X98242783Y-100691341D01*
X98274823Y-107253028D01*
X98255154Y-107321245D01*
X98226225Y-107353068D01*
X95453400Y-109511657D01*
X95387360Y-109537719D01*
X95317713Y-109523940D01*
X95266572Y-109474695D01*
X95250000Y-109412232D01*
X95250000Y-106487451D01*
X95249998Y-106487448D01*
X93047530Y-104368349D01*
X93047528Y-104368348D01*
X92948258Y-104440966D01*
X92881468Y-104465042D01*
X92874695Y-104465268D01*
X89902348Y-104484791D01*
X89834097Y-104465237D01*
X89787253Y-104411888D01*
X89775533Y-104357023D01*
X89780120Y-104031387D01*
X89801079Y-103963562D01*
X89855384Y-103917829D01*
X89910559Y-103907248D01*
X90007674Y-103910685D01*
X90069363Y-103929364D01*
X90117899Y-103959302D01*
X90280664Y-104013236D01*
X90300756Y-104015288D01*
X90381120Y-104023500D01*
X90381128Y-104023500D01*
X91228880Y-104023500D01*
X91301936Y-104016035D01*
X91329336Y-104013236D01*
X91492101Y-103959302D01*
X91638040Y-103869285D01*
X91759285Y-103748040D01*
X91849302Y-103602101D01*
X91903236Y-103439336D01*
X91909498Y-103378045D01*
X91913500Y-103338880D01*
X91913500Y-102791119D01*
X91906394Y-102721576D01*
X91903236Y-102690664D01*
X91865244Y-102576009D01*
X91858856Y-102535293D01*
X91864190Y-101922717D01*
X91884783Y-101854777D01*
X91901080Y-101834732D01*
X92756069Y-100979744D01*
X92855494Y-100830945D01*
X92920259Y-100674587D01*
X92923978Y-100665609D01*
X92958891Y-100490088D01*
X92958891Y-97276395D01*
X92978893Y-97208274D01*
X92998066Y-97185086D01*
X93246225Y-96949133D01*
X93309374Y-96916691D01*
X93332996Y-96914447D01*
X106044044Y-96910000D01*
X106045992Y-96910015D01*
X109490643Y-96964387D01*
X109528273Y-96970763D01*
X109685574Y-97022887D01*
X109789455Y-97033500D01*
X111190544Y-97033499D01*
X111294426Y-97022887D01*
X111360662Y-97000938D01*
X111402272Y-96994560D01*
X111741126Y-96999909D01*
X111746864Y-97000000D01*
X111746864Y-96999999D01*
X111746865Y-97000000D01*
X114358125Y-94388740D01*
X114420437Y-94354714D01*
X114447220Y-94351835D01*
X119973322Y-94351835D01*
X120041443Y-94371837D01*
G37*
G04 #@! TD.AperFunction*
G04 #@! TA.AperFunction,Conductor*
G36*
X161168431Y-77490002D02*
G01*
X161189400Y-77506900D01*
X161925000Y-78242500D01*
X163519000Y-78242500D01*
X163587121Y-78262502D01*
X163633614Y-78316158D01*
X163645000Y-78368500D01*
X163645000Y-78921453D01*
X163624998Y-78989574D01*
X163571342Y-79036067D01*
X163519188Y-79047453D01*
X156228156Y-79058318D01*
X156228153Y-79058319D01*
X155768449Y-79415651D01*
X155702390Y-79441665D01*
X155632754Y-79427835D01*
X155581649Y-79378553D01*
X155565208Y-79311504D01*
X155573064Y-79099502D01*
X155595575Y-79032169D01*
X155613339Y-79011745D01*
X156443632Y-78242500D01*
X156443632Y-77596000D01*
X156463634Y-77527879D01*
X156517290Y-77481386D01*
X156569632Y-77470000D01*
X161100310Y-77470000D01*
X161168431Y-77490002D01*
G37*
G04 #@! TD.AperFunction*
G04 #@! TA.AperFunction,Conductor*
G36*
X226002121Y-103372502D02*
G01*
X226048614Y-103426158D01*
X226060000Y-103478500D01*
X226060000Y-107897810D01*
X226039998Y-107965931D01*
X226023099Y-107986900D01*
X225465100Y-108544900D01*
X225462861Y-108547139D01*
X225400549Y-108581164D01*
X225371465Y-108584022D01*
X223230000Y-108544900D01*
X223229998Y-108544901D01*
X222769996Y-109004904D01*
X222707684Y-109038930D01*
X222636869Y-109033865D01*
X222580033Y-108991318D01*
X222555222Y-108924798D01*
X222554901Y-108915809D01*
X222554901Y-106913426D01*
X222574903Y-106845305D01*
X222591806Y-106824331D01*
X223151753Y-106264384D01*
X223214065Y-106230358D01*
X223240848Y-106227479D01*
X224607521Y-106227479D01*
X225072500Y-105762500D01*
X225072500Y-103478500D01*
X225092502Y-103410379D01*
X225146158Y-103363886D01*
X225198500Y-103352500D01*
X225934000Y-103352500D01*
X226002121Y-103372502D01*
G37*
G04 #@! TD.AperFunction*
G04 #@! TA.AperFunction,Conductor*
G36*
X100958512Y-79884893D02*
G01*
X100965095Y-79891022D01*
X102197097Y-81123024D01*
X102231123Y-81185336D01*
X102233979Y-81214518D01*
X102189997Y-83523871D01*
X102168702Y-83591599D01*
X102114170Y-83637062D01*
X102043717Y-83645825D01*
X101979709Y-83615108D01*
X101974925Y-83610567D01*
X100786905Y-82422547D01*
X100752879Y-82360235D01*
X100750000Y-82333452D01*
X100750000Y-79980117D01*
X100770002Y-79911996D01*
X100823658Y-79865503D01*
X100893932Y-79855399D01*
X100958512Y-79884893D01*
G37*
G04 #@! TD.AperFunction*
G04 #@! TA.AperFunction,Conductor*
G36*
X171465931Y-94195248D02*
G01*
X171486905Y-94212151D01*
X173159752Y-95884999D01*
X173159754Y-95885000D01*
X176477810Y-95885000D01*
X176545931Y-95905002D01*
X176566900Y-95921900D01*
X177165000Y-96520000D01*
X177747810Y-96520000D01*
X177815931Y-96540002D01*
X177836900Y-96556900D01*
X178583572Y-97303572D01*
X180696384Y-97303572D01*
X180764505Y-97323574D01*
X180785479Y-97340477D01*
X181205524Y-97760522D01*
X181239550Y-97822834D01*
X181242429Y-97849617D01*
X181242429Y-99578627D01*
X181222427Y-99646748D01*
X181205524Y-99667722D01*
X180765990Y-100107256D01*
X180703678Y-100141282D01*
X180676895Y-100144161D01*
X174839717Y-100144161D01*
X174771596Y-100124159D01*
X174750622Y-100107256D01*
X173287075Y-98643708D01*
X173287074Y-98643708D01*
X167856910Y-98643708D01*
X167856908Y-98643708D01*
X167196211Y-99043339D01*
X167127572Y-99061480D01*
X167060020Y-99039632D01*
X167015005Y-98984731D01*
X167005000Y-98935527D01*
X167005000Y-95302190D01*
X167025002Y-95234069D01*
X167041905Y-95213095D01*
X168042849Y-94212151D01*
X168105161Y-94178125D01*
X168131944Y-94175246D01*
X171397810Y-94175246D01*
X171465931Y-94195248D01*
G37*
G04 #@! TD.AperFunction*
G04 #@! TA.AperFunction,Conductor*
G36*
X163942546Y-102560001D02*
G01*
X164025195Y-102561442D01*
X164092956Y-102582629D01*
X164112092Y-102598328D01*
X164170255Y-102656491D01*
X164278107Y-102728555D01*
X164397947Y-102778194D01*
X164525167Y-102803500D01*
X164530028Y-102803500D01*
X164598149Y-102823502D01*
X164644642Y-102877158D01*
X164646425Y-102881254D01*
X164693733Y-102995464D01*
X164785258Y-103114742D01*
X164904536Y-103206267D01*
X165043439Y-103263803D01*
X165155075Y-103278500D01*
X165482443Y-103278499D01*
X165482455Y-103278500D01*
X165492606Y-103278500D01*
X165781022Y-103278500D01*
X165849143Y-103298502D01*
X165853896Y-103301712D01*
X167801980Y-104683262D01*
X170759138Y-106780432D01*
X170759138Y-106780431D01*
X170759139Y-106780432D01*
X171450000Y-106089571D01*
X171450000Y-104328211D01*
X171470002Y-104260090D01*
X171523658Y-104213597D01*
X171576000Y-104202211D01*
X175376750Y-104202211D01*
X175444871Y-104222213D01*
X175491364Y-104275869D01*
X175501468Y-104346143D01*
X175471974Y-104410723D01*
X175465845Y-104417306D01*
X173838151Y-106044998D01*
X173838151Y-109455500D01*
X173818149Y-109523621D01*
X173764493Y-109570114D01*
X173712151Y-109581500D01*
X173588219Y-109581500D01*
X173327600Y-109620782D01*
X173327598Y-109620782D01*
X173327589Y-109620784D01*
X173075754Y-109698464D01*
X173075742Y-109698469D01*
X172838283Y-109812825D01*
X172838275Y-109812829D01*
X172620525Y-109961289D01*
X172620520Y-109961293D01*
X172427315Y-110140561D01*
X172262982Y-110346627D01*
X172131205Y-110574871D01*
X172131202Y-110574879D01*
X172034911Y-110820224D01*
X171976266Y-111077169D01*
X171976265Y-111077174D01*
X171966254Y-111210764D01*
X171941217Y-111277200D01*
X171884236Y-111319553D01*
X171840606Y-111327348D01*
X166866286Y-111327348D01*
X166798165Y-111307346D01*
X166751672Y-111253690D01*
X166740286Y-111201348D01*
X166740286Y-106680002D01*
X166740285Y-106680000D01*
X166103839Y-106044998D01*
X164194509Y-104140000D01*
X164194508Y-104140000D01*
X162596267Y-104140000D01*
X162529282Y-104120718D01*
X162058477Y-103825197D01*
X162011416Y-103772042D01*
X161999465Y-103718465D01*
X161999523Y-103298502D01*
X161999572Y-102940731D01*
X161999677Y-102167096D01*
X162044658Y-102128120D01*
X162057355Y-102123134D01*
X162066329Y-102120161D01*
X162215998Y-102027844D01*
X162340344Y-101903498D01*
X162432661Y-101753829D01*
X162487974Y-101586904D01*
X162498500Y-101483875D01*
X162498499Y-101117807D01*
X163942546Y-102560001D01*
G37*
G04 #@! TD.AperFunction*
G04 #@! TA.AperFunction,Conductor*
G36*
X66990931Y-60980002D02*
G01*
X67011905Y-60996905D01*
X67700095Y-61685095D01*
X67734121Y-61747407D01*
X67737000Y-61774190D01*
X67737000Y-72083810D01*
X67716998Y-72151931D01*
X67700099Y-72172900D01*
X67568995Y-72304005D01*
X67511022Y-72361978D01*
X67448710Y-72396003D01*
X67430459Y-72398593D01*
X67420106Y-72399295D01*
X67420105Y-72399295D01*
X67286216Y-72432592D01*
X67241897Y-72443614D01*
X67160467Y-72484000D01*
X67077379Y-72525208D01*
X66934254Y-72640254D01*
X66819208Y-72783379D01*
X66819206Y-72783382D01*
X66819206Y-72783383D01*
X66758262Y-72906266D01*
X66737614Y-72947898D01*
X66693295Y-73126105D01*
X66692593Y-73136459D01*
X66668023Y-73203069D01*
X66655978Y-73217021D01*
X66467000Y-73405999D01*
X66470572Y-74738662D01*
X66450752Y-74806836D01*
X66397221Y-74853473D01*
X66344572Y-74865000D01*
X65880000Y-74865000D01*
X65880000Y-76714999D01*
X66350207Y-76714999D01*
X66418328Y-76735001D01*
X66464821Y-76788657D01*
X66476207Y-76840661D01*
X66476435Y-76925668D01*
X66456615Y-76993842D01*
X66403085Y-77040479D01*
X66350435Y-77052006D01*
X64103006Y-77052006D01*
X64034885Y-77032004D01*
X63988392Y-76978348D01*
X63977006Y-76926094D01*
X63976946Y-76840661D01*
X63976587Y-76325488D01*
X63973143Y-76293616D01*
X63972588Y-76273507D01*
X63976441Y-76200000D01*
X63974048Y-76154330D01*
X64455001Y-76154330D01*
X64470444Y-76271629D01*
X64470445Y-76271633D01*
X64530899Y-76417588D01*
X64627074Y-76542925D01*
X64752411Y-76639100D01*
X64898368Y-76699555D01*
X65015679Y-76714999D01*
X65530000Y-76714999D01*
X65530000Y-75965000D01*
X64455001Y-75965000D01*
X64455001Y-76154330D01*
X63974048Y-76154330D01*
X63956691Y-75823137D01*
X63897653Y-75450388D01*
X63891031Y-75425674D01*
X64455000Y-75425674D01*
X64455000Y-75615000D01*
X65530000Y-75615000D01*
X65530000Y-74865000D01*
X65015678Y-74865000D01*
X65015669Y-74865001D01*
X64898370Y-74880444D01*
X64898366Y-74880445D01*
X64752411Y-74940899D01*
X64627074Y-75037074D01*
X64530899Y-75162411D01*
X64470444Y-75308368D01*
X64455000Y-75425674D01*
X63891031Y-75425674D01*
X63799976Y-75085850D01*
X63664738Y-74733544D01*
X63664734Y-74733536D01*
X63664734Y-74733535D01*
X63493403Y-74397280D01*
X63287863Y-74080775D01*
X63287856Y-74080765D01*
X63050368Y-73787493D01*
X63050365Y-73787489D01*
X63050361Y-73787485D01*
X63050354Y-73787477D01*
X62783522Y-73520645D01*
X62783506Y-73520631D01*
X62490234Y-73283143D01*
X62490217Y-73283131D01*
X62308595Y-73165185D01*
X62173721Y-73077597D01*
X62173716Y-73077594D01*
X62173711Y-73077591D01*
X61837463Y-72906265D01*
X61837455Y-72906261D01*
X61491694Y-72773536D01*
X61435265Y-72730450D01*
X61411089Y-72663697D01*
X61426840Y-72594470D01*
X61447753Y-72566809D01*
X61563170Y-72451391D01*
X61563171Y-72451391D01*
X61652269Y-72304006D01*
X61652269Y-72304005D01*
X61703507Y-72139578D01*
X61703507Y-72139575D01*
X61710000Y-72068125D01*
X61710000Y-71295000D01*
X60684274Y-71295000D01*
X60710000Y-71198991D01*
X60710000Y-71120000D01*
X63585052Y-71120000D01*
X63604812Y-71371068D01*
X63663603Y-71615954D01*
X63759980Y-71848629D01*
X63891572Y-72063368D01*
X63941125Y-72121387D01*
X64660183Y-71402329D01*
X64709881Y-71488408D01*
X64821592Y-71600119D01*
X64907669Y-71649816D01*
X64188611Y-72368873D01*
X64188612Y-72368874D01*
X64246631Y-72418427D01*
X64246633Y-72418428D01*
X64461370Y-72550019D01*
X64694045Y-72646396D01*
X64938931Y-72705187D01*
X65190000Y-72724947D01*
X65441068Y-72705187D01*
X65685954Y-72646396D01*
X65918629Y-72550019D01*
X66133363Y-72418430D01*
X66191386Y-72368873D01*
X65472330Y-71649816D01*
X65558408Y-71600119D01*
X65670119Y-71488408D01*
X65719816Y-71402329D01*
X66438873Y-72121386D01*
X66488430Y-72063363D01*
X66620019Y-71848629D01*
X66716396Y-71615954D01*
X66775187Y-71371068D01*
X66794947Y-71120000D01*
X66775187Y-70868931D01*
X66716396Y-70624045D01*
X66620019Y-70391370D01*
X66488428Y-70176633D01*
X66488427Y-70176631D01*
X66438874Y-70118612D01*
X66438873Y-70118611D01*
X65719815Y-70837668D01*
X65670119Y-70751592D01*
X65558408Y-70639881D01*
X65472330Y-70590183D01*
X66191387Y-69871125D01*
X66133368Y-69821572D01*
X65918629Y-69689980D01*
X65685954Y-69593603D01*
X65441068Y-69534812D01*
X65190000Y-69515052D01*
X64938931Y-69534812D01*
X64694045Y-69593603D01*
X64461370Y-69689980D01*
X64246631Y-69821573D01*
X64246627Y-69821575D01*
X64188611Y-69871124D01*
X64188611Y-69871125D01*
X64907669Y-70590183D01*
X64821592Y-70639881D01*
X64709881Y-70751592D01*
X64660183Y-70837669D01*
X63941125Y-70118611D01*
X63941124Y-70118611D01*
X63891575Y-70176627D01*
X63891573Y-70176631D01*
X63759980Y-70391370D01*
X63663603Y-70624045D01*
X63604812Y-70868931D01*
X63585052Y-71120000D01*
X60710000Y-71120000D01*
X60710000Y-71041009D01*
X60684274Y-70945000D01*
X61710000Y-70945000D01*
X61710000Y-70171874D01*
X61703507Y-70100424D01*
X61703507Y-70100421D01*
X61652269Y-69935994D01*
X61652269Y-69935993D01*
X61563171Y-69788608D01*
X61563167Y-69788603D01*
X61441396Y-69666832D01*
X61441391Y-69666828D01*
X61294006Y-69577730D01*
X61129576Y-69526492D01*
X61058125Y-69520000D01*
X60285000Y-69520000D01*
X60285000Y-70545725D01*
X60188991Y-70520000D01*
X60031009Y-70520000D01*
X59935000Y-70545725D01*
X59935000Y-69520000D01*
X59161875Y-69520000D01*
X59090424Y-69526492D01*
X59090421Y-69526492D01*
X58925994Y-69577730D01*
X58925993Y-69577730D01*
X58778608Y-69666828D01*
X58778603Y-69666832D01*
X58656832Y-69788603D01*
X58656828Y-69788608D01*
X58567730Y-69935993D01*
X58567730Y-69935994D01*
X58516492Y-70100421D01*
X58516492Y-70100424D01*
X58510000Y-70171874D01*
X58510000Y-70945000D01*
X59535726Y-70945000D01*
X59510000Y-71041009D01*
X59510000Y-71198991D01*
X59535726Y-71295000D01*
X58510000Y-71295000D01*
X58510000Y-72068125D01*
X58516492Y-72139575D01*
X58516492Y-72139578D01*
X58567730Y-72304005D01*
X58567730Y-72304006D01*
X58656828Y-72451391D01*
X58656832Y-72451396D01*
X58778603Y-72573167D01*
X58778608Y-72573171D01*
X58925990Y-72662267D01*
X58932880Y-72665368D01*
X58986791Y-72711564D01*
X59007169Y-72779574D01*
X58987543Y-72847804D01*
X58934145Y-72894592D01*
X58926329Y-72897899D01*
X58904537Y-72906264D01*
X58904536Y-72906265D01*
X58568279Y-73077597D01*
X58251782Y-73283131D01*
X58251765Y-73283143D01*
X57958493Y-73520631D01*
X57958477Y-73520645D01*
X57792095Y-73687028D01*
X57729783Y-73721054D01*
X57658968Y-73715989D01*
X57602132Y-73673442D01*
X57577321Y-73606922D01*
X57577000Y-73597933D01*
X57577000Y-62551874D01*
X58510000Y-62551874D01*
X58510000Y-63325000D01*
X59535726Y-63325000D01*
X59510000Y-63421009D01*
X59510000Y-63578991D01*
X59535726Y-63675000D01*
X58510000Y-63675000D01*
X58510000Y-64448125D01*
X58516492Y-64519575D01*
X58516492Y-64519578D01*
X58567730Y-64684005D01*
X58567730Y-64684006D01*
X58656828Y-64831391D01*
X58656832Y-64831396D01*
X58778603Y-64953167D01*
X58778608Y-64953171D01*
X58925993Y-65042269D01*
X59090423Y-65093507D01*
X59161875Y-65100000D01*
X59935000Y-65100000D01*
X59935000Y-64074274D01*
X60031009Y-64100000D01*
X60188991Y-64100000D01*
X60285000Y-64074274D01*
X60285000Y-65100000D01*
X61058125Y-65100000D01*
X61129575Y-65093507D01*
X61129578Y-65093507D01*
X61294005Y-65042269D01*
X61294006Y-65042269D01*
X61441391Y-64953171D01*
X61441396Y-64953167D01*
X61563167Y-64831396D01*
X61563171Y-64831391D01*
X61652269Y-64684006D01*
X61652269Y-64684005D01*
X61703507Y-64519578D01*
X61703507Y-64519575D01*
X61710000Y-64448125D01*
X61710000Y-63675000D01*
X60684274Y-63675000D01*
X60710000Y-63578991D01*
X60710000Y-63500000D01*
X63585052Y-63500000D01*
X63604812Y-63751068D01*
X63663603Y-63995954D01*
X63759980Y-64228629D01*
X63891572Y-64443368D01*
X63941125Y-64501387D01*
X64660183Y-63782329D01*
X64709881Y-63868408D01*
X64821592Y-63980119D01*
X64907669Y-64029816D01*
X64188611Y-64748873D01*
X64188612Y-64748874D01*
X64246631Y-64798427D01*
X64246633Y-64798428D01*
X64461370Y-64930019D01*
X64694045Y-65026396D01*
X64938931Y-65085187D01*
X65190000Y-65104947D01*
X65441068Y-65085187D01*
X65685954Y-65026396D01*
X65918629Y-64930019D01*
X66133363Y-64798430D01*
X66191386Y-64748873D01*
X65472330Y-64029816D01*
X65558408Y-63980119D01*
X65670119Y-63868408D01*
X65719816Y-63782329D01*
X66438873Y-64501386D01*
X66488430Y-64443363D01*
X66620019Y-64228629D01*
X66716396Y-63995954D01*
X66775187Y-63751068D01*
X66794947Y-63500000D01*
X66775187Y-63248931D01*
X66716396Y-63004045D01*
X66620019Y-62771370D01*
X66488428Y-62556633D01*
X66488427Y-62556631D01*
X66438874Y-62498612D01*
X66438873Y-62498611D01*
X65719815Y-63217668D01*
X65670119Y-63131592D01*
X65558408Y-63019881D01*
X65472330Y-62970183D01*
X66191387Y-62251125D01*
X66133368Y-62201572D01*
X65918629Y-62069980D01*
X65685954Y-61973603D01*
X65441068Y-61914812D01*
X65190000Y-61895052D01*
X64938931Y-61914812D01*
X64694045Y-61973603D01*
X64461370Y-62069980D01*
X64246631Y-62201573D01*
X64246627Y-62201575D01*
X64188611Y-62251124D01*
X64188611Y-62251125D01*
X64907669Y-62970183D01*
X64821592Y-63019881D01*
X64709881Y-63131592D01*
X64660183Y-63217669D01*
X63941125Y-62498611D01*
X63941124Y-62498611D01*
X63891575Y-62556627D01*
X63891573Y-62556631D01*
X63759980Y-62771370D01*
X63663603Y-63004045D01*
X63604812Y-63248931D01*
X63585052Y-63500000D01*
X60710000Y-63500000D01*
X60710000Y-63421009D01*
X60684274Y-63325000D01*
X61710000Y-63325000D01*
X61710000Y-62551874D01*
X61703507Y-62480424D01*
X61703507Y-62480421D01*
X61652269Y-62315994D01*
X61652269Y-62315993D01*
X61563171Y-62168608D01*
X61563167Y-62168603D01*
X61441396Y-62046832D01*
X61441391Y-62046828D01*
X61294006Y-61957730D01*
X61129576Y-61906492D01*
X61058125Y-61900000D01*
X60285000Y-61900000D01*
X60285000Y-62925725D01*
X60188991Y-62900000D01*
X60031009Y-62900000D01*
X59935000Y-62925725D01*
X59935000Y-61900000D01*
X59161875Y-61900000D01*
X59090424Y-61906492D01*
X59090421Y-61906492D01*
X58925994Y-61957730D01*
X58925993Y-61957730D01*
X58778608Y-62046828D01*
X58778603Y-62046832D01*
X58656832Y-62168603D01*
X58656828Y-62168608D01*
X58567730Y-62315993D01*
X58567730Y-62315994D01*
X58516492Y-62480421D01*
X58516492Y-62480424D01*
X58510000Y-62551874D01*
X57577000Y-62551874D01*
X57577000Y-61520190D01*
X57597002Y-61452069D01*
X57613905Y-61431095D01*
X58048095Y-60996905D01*
X58110407Y-60962879D01*
X58137190Y-60960000D01*
X66922810Y-60960000D01*
X66990931Y-60980002D01*
G37*
G04 #@! TD.AperFunction*
G04 #@! TA.AperFunction,Conductor*
G36*
X114711081Y-84304921D02*
G01*
X114777249Y-84330654D01*
X114819002Y-84388075D01*
X114823082Y-84458954D01*
X114789441Y-84519558D01*
X113711000Y-85597998D01*
X113711000Y-90117810D01*
X113690998Y-90185931D01*
X113674095Y-90206905D01*
X112731905Y-91149095D01*
X112669593Y-91183121D01*
X112642810Y-91186000D01*
X103428190Y-91186000D01*
X103360069Y-91165998D01*
X103313576Y-91112342D01*
X103303472Y-91042068D01*
X103332966Y-90977488D01*
X103339095Y-90970905D01*
X104103095Y-90206905D01*
X104165407Y-90172879D01*
X104192190Y-90170000D01*
X111760000Y-90170000D01*
X112863536Y-89066464D01*
X112863536Y-84945570D01*
X112883538Y-84877449D01*
X112900435Y-84856480D01*
X113509732Y-84247183D01*
X113572041Y-84213161D01*
X113609555Y-84210739D01*
X114711081Y-84304921D01*
G37*
G04 #@! TD.AperFunction*
G04 #@! TA.AperFunction,Conductor*
G36*
X187772328Y-106240823D02*
G01*
X187793302Y-106257726D01*
X188558095Y-107022519D01*
X188592121Y-107084831D01*
X188595000Y-107111614D01*
X188595000Y-108412810D01*
X188574998Y-108480931D01*
X188558095Y-108501905D01*
X185935095Y-111124905D01*
X185872783Y-111158931D01*
X185801968Y-111153866D01*
X185745132Y-111111319D01*
X185720321Y-111044799D01*
X185720000Y-111035810D01*
X185720000Y-106346821D01*
X185740002Y-106278700D01*
X185793658Y-106232207D01*
X185846000Y-106220821D01*
X187704207Y-106220821D01*
X187772328Y-106240823D01*
G37*
G04 #@! TD.AperFunction*
G04 #@! TA.AperFunction,Conductor*
G36*
X230858891Y-105085002D02*
G01*
X230879324Y-105101366D01*
X232839447Y-107037865D01*
X232873849Y-107099970D01*
X232869213Y-107170815D01*
X232827012Y-107227908D01*
X232760644Y-107253121D01*
X232751204Y-107253499D01*
X230167371Y-107259870D01*
X230099201Y-107240036D01*
X230077965Y-107222965D01*
X229906905Y-107051905D01*
X229872879Y-106989593D01*
X229870000Y-106962810D01*
X229870000Y-105191000D01*
X229890002Y-105122879D01*
X229943658Y-105076386D01*
X229996000Y-105065000D01*
X230790770Y-105065000D01*
X230858891Y-105085002D01*
G37*
G04 #@! TD.AperFunction*
G04 #@! TA.AperFunction,Conductor*
G36*
X148798512Y-87825292D02*
G01*
X148805095Y-87831421D01*
X149957533Y-88983860D01*
X149957535Y-88983861D01*
X156719844Y-88983861D01*
X156787965Y-89003863D01*
X156808939Y-89020766D01*
X163061432Y-95273259D01*
X163095458Y-95335571D01*
X163098336Y-95361745D01*
X163122241Y-100304874D01*
X163129219Y-101747718D01*
X163133961Y-102728061D01*
X161971000Y-102870000D01*
X161971000Y-102121183D01*
X161991002Y-102053062D01*
X162032858Y-102012731D01*
X162144253Y-101946853D01*
X162259353Y-101831753D01*
X162329644Y-101712898D01*
X162342210Y-101691650D01*
X162342210Y-101691648D01*
X162342212Y-101691646D01*
X162387625Y-101535334D01*
X162390499Y-101498811D01*
X162390500Y-101498811D01*
X162390500Y-100881188D01*
X162390499Y-100881187D01*
X162388974Y-100861806D01*
X162387625Y-100844666D01*
X162342212Y-100688354D01*
X162342210Y-100688352D01*
X162342210Y-100688349D01*
X162259355Y-100548250D01*
X162259350Y-100548243D01*
X162144256Y-100433149D01*
X162144249Y-100433144D01*
X162004150Y-100350289D01*
X161847839Y-100304876D01*
X161847835Y-100304875D01*
X161847834Y-100304875D01*
X161847830Y-100304874D01*
X161847826Y-100304874D01*
X161811312Y-100302000D01*
X161811304Y-100302000D01*
X161714715Y-100302000D01*
X161646594Y-100281998D01*
X161629258Y-100268591D01*
X161209000Y-99880717D01*
X154754283Y-99880717D01*
X154754281Y-99880717D01*
X151756905Y-102878095D01*
X151694593Y-102912121D01*
X151667810Y-102915000D01*
X147579190Y-102915000D01*
X147511069Y-102894998D01*
X147464576Y-102841342D01*
X147454472Y-102771068D01*
X147483966Y-102706488D01*
X147490095Y-102699905D01*
X147918095Y-102271905D01*
X147980407Y-102237879D01*
X148007190Y-102235000D01*
X149225000Y-102235000D01*
X150009347Y-101450653D01*
X150009347Y-100309163D01*
X150009346Y-100309161D01*
X149534392Y-99834207D01*
X149534391Y-99834207D01*
X148533977Y-99834207D01*
X148465856Y-99814205D01*
X148444882Y-99797302D01*
X146104855Y-97457274D01*
X146104854Y-97457274D01*
X144025378Y-97457274D01*
X143957257Y-97437272D01*
X143936283Y-97420369D01*
X143433369Y-96917455D01*
X143399343Y-96855143D01*
X143396464Y-96828360D01*
X143396464Y-91999409D01*
X143396463Y-91999407D01*
X142165962Y-90768906D01*
X146566428Y-90768906D01*
X148590000Y-88745334D01*
X148590000Y-87920516D01*
X148610002Y-87852395D01*
X148663658Y-87805902D01*
X148733932Y-87795798D01*
X148798512Y-87825292D01*
G37*
G04 #@! TD.AperFunction*
G04 #@! TA.AperFunction,Conductor*
G36*
X220287121Y-63520002D02*
G01*
X220333614Y-63573658D01*
X220345000Y-63626000D01*
X220345000Y-70994000D01*
X220324998Y-71062121D01*
X220271342Y-71108614D01*
X220219000Y-71120000D01*
X215391000Y-71120000D01*
X215322879Y-71099998D01*
X215276386Y-71046342D01*
X215265000Y-70994000D01*
X215265000Y-63626000D01*
X215285002Y-63557879D01*
X215338658Y-63511386D01*
X215391000Y-63500000D01*
X220219000Y-63500000D01*
X220287121Y-63520002D01*
G37*
G04 #@! TD.AperFunction*
G04 #@! TA.AperFunction,Conductor*
G36*
X124389132Y-84225132D02*
G01*
X124415287Y-84245191D01*
X125004389Y-84834293D01*
X125038415Y-84896605D01*
X125041294Y-84923388D01*
X125041294Y-87197318D01*
X126077938Y-88233962D01*
X126077940Y-88233963D01*
X136358716Y-88233963D01*
X136426837Y-88253965D01*
X136447811Y-88270868D01*
X137421108Y-89244166D01*
X137421109Y-89244166D01*
X137421110Y-89244167D01*
X147733950Y-89257951D01*
X147802042Y-89278044D01*
X147848463Y-89331762D01*
X147858473Y-89402049D01*
X147828894Y-89466591D01*
X147824240Y-89471661D01*
X146566427Y-90768905D01*
X146566428Y-90768906D01*
X126060876Y-90768906D01*
X124268096Y-90768906D01*
X124199975Y-90748904D01*
X124179001Y-90732001D01*
X122891905Y-89444905D01*
X122857879Y-89382593D01*
X122855000Y-89355810D01*
X122855000Y-85598001D01*
X122855000Y-85598000D01*
X121993149Y-84520686D01*
X121966214Y-84454999D01*
X121979068Y-84385176D01*
X122027631Y-84333386D01*
X122085473Y-84316122D01*
X124320127Y-84208432D01*
X124389132Y-84225132D01*
G37*
G04 #@! TD.AperFunction*
G04 #@! TA.AperFunction,Conductor*
G36*
X210653095Y-106533752D02*
G01*
X210674069Y-106550655D01*
X211668942Y-107545529D01*
X211668943Y-107545529D01*
X211695027Y-107545529D01*
X211699880Y-107542879D01*
X211726663Y-107540000D01*
X211785809Y-107540000D01*
X211853930Y-107560002D01*
X211900423Y-107613658D01*
X211910527Y-107683932D01*
X211881033Y-107748512D01*
X211874904Y-107755095D01*
X211680000Y-107949998D01*
X211680000Y-109814000D01*
X211659998Y-109882121D01*
X211606342Y-109928614D01*
X211554000Y-109940000D01*
X209493852Y-109940000D01*
X209425731Y-109919998D01*
X209379238Y-109866342D01*
X209367852Y-109814000D01*
X209367852Y-109291314D01*
X209367851Y-109291312D01*
X207848155Y-107771616D01*
X207814129Y-107709304D01*
X207811250Y-107682521D01*
X207811250Y-106639750D01*
X207831252Y-106571629D01*
X207884908Y-106525136D01*
X207937250Y-106513750D01*
X210584974Y-106513750D01*
X210653095Y-106533752D01*
G37*
G04 #@! TD.AperFunction*
G04 #@! TA.AperFunction,Conductor*
G36*
X63313209Y-76220002D02*
G01*
X63359702Y-76273658D01*
X63371087Y-76325911D01*
X63373131Y-79253876D01*
X63754859Y-79800625D01*
X70172863Y-79800625D01*
X70240984Y-79820627D01*
X70261958Y-79837530D01*
X70748095Y-80323667D01*
X70782121Y-80385979D01*
X70785000Y-80412762D01*
X70785000Y-82786617D01*
X70764998Y-82854738D01*
X70711342Y-82901231D01*
X70659000Y-82912617D01*
X69315305Y-82912617D01*
X69247184Y-82892615D01*
X69226214Y-82875716D01*
X68480878Y-82130380D01*
X63662491Y-82130380D01*
X61895000Y-83897871D01*
X61895000Y-84031481D01*
X61874998Y-84099602D01*
X61821342Y-84146095D01*
X61751068Y-84156199D01*
X61686488Y-84126705D01*
X61679582Y-84120253D01*
X60625000Y-83058000D01*
X59566029Y-83058000D01*
X59539832Y-83055247D01*
X59450487Y-83036256D01*
X59259513Y-83036256D01*
X59170168Y-83055247D01*
X59143971Y-83058000D01*
X57886801Y-83058000D01*
X57818680Y-83037998D01*
X57793498Y-83016679D01*
X57402656Y-82586035D01*
X57371687Y-82522149D01*
X57369959Y-82501335D01*
X57370405Y-79800625D01*
X57370979Y-76325978D01*
X57390992Y-76257862D01*
X57444656Y-76211378D01*
X57496979Y-76200000D01*
X63245088Y-76200000D01*
X63313209Y-76220002D01*
G37*
G04 #@! TD.AperFunction*
G04 #@! TA.AperFunction,Conductor*
G36*
X224455484Y-119115036D02*
G01*
X224471959Y-119128074D01*
X225591202Y-120176893D01*
X225627232Y-120238068D01*
X225629635Y-120250030D01*
X225688589Y-120640649D01*
X225690000Y-120659453D01*
X225690000Y-121116010D01*
X225669998Y-121184131D01*
X225616342Y-121230624D01*
X225564000Y-121242010D01*
X224016000Y-121242010D01*
X223947879Y-121222008D01*
X223901386Y-121168352D01*
X223890000Y-121116010D01*
X223890000Y-119450015D01*
X223910002Y-119381894D01*
X223949452Y-119343023D01*
X224319260Y-119113020D01*
X224387667Y-119094029D01*
X224455484Y-119115036D01*
G37*
G04 #@! TD.AperFunction*
G04 #@! TA.AperFunction,Conductor*
G36*
X71324287Y-73504502D02*
G01*
X71348261Y-73524509D01*
X72462655Y-74718009D01*
X72494526Y-74781450D01*
X72487038Y-74852051D01*
X72442569Y-74907396D01*
X72375238Y-74929913D01*
X72370560Y-74930000D01*
X70657000Y-74930000D01*
X70588879Y-74909998D01*
X70542386Y-74856342D01*
X70531000Y-74804000D01*
X70531000Y-73610500D01*
X70551002Y-73542379D01*
X70604658Y-73495886D01*
X70657000Y-73484500D01*
X71256166Y-73484500D01*
X71324287Y-73504502D01*
G37*
G04 #@! TD.AperFunction*
G04 #@! TA.AperFunction,Conductor*
G36*
X236508532Y-107006530D02*
G01*
X236565368Y-107049077D01*
X236590179Y-107115597D01*
X236590500Y-107124586D01*
X236590500Y-116266915D01*
X236570498Y-116335036D01*
X236558002Y-116351375D01*
X235224974Y-117827111D01*
X235164468Y-117864254D01*
X235093487Y-117862789D01*
X235034565Y-117823181D01*
X235031818Y-117819755D01*
X233974746Y-116453539D01*
X233948880Y-116387422D01*
X233948830Y-116375173D01*
X233948500Y-116375173D01*
X233948500Y-116149781D01*
X233948500Y-116149778D01*
X233914015Y-115932049D01*
X233845895Y-115722394D01*
X233745815Y-115525978D01*
X233616242Y-115347635D01*
X233616239Y-115347632D01*
X233616237Y-115347629D01*
X233460370Y-115191762D01*
X233460367Y-115191760D01*
X233460365Y-115191758D01*
X233282022Y-115062185D01*
X233085606Y-114962105D01*
X233085603Y-114962104D01*
X233085601Y-114962103D01*
X232875954Y-114893986D01*
X232875951Y-114893985D01*
X232658222Y-114859500D01*
X232646174Y-114859500D01*
X232578053Y-114839498D01*
X232533476Y-114789849D01*
X232343302Y-114409500D01*
X232330000Y-114353151D01*
X232330000Y-111656532D01*
X232747500Y-111656532D01*
X232747500Y-111656535D01*
X232747500Y-111863465D01*
X232787870Y-112066420D01*
X232867059Y-112257598D01*
X232982023Y-112429655D01*
X232982024Y-112429656D01*
X232982029Y-112429662D01*
X233128337Y-112575970D01*
X233128343Y-112575975D01*
X233128345Y-112575977D01*
X233300402Y-112690941D01*
X233491580Y-112770130D01*
X233694535Y-112810500D01*
X233694536Y-112810500D01*
X233901464Y-112810500D01*
X233901465Y-112810500D01*
X234104420Y-112770130D01*
X234295598Y-112690941D01*
X234467655Y-112575977D01*
X234613977Y-112429655D01*
X234728941Y-112257598D01*
X234808130Y-112066420D01*
X234848500Y-111863465D01*
X234848500Y-111656535D01*
X234808130Y-111453580D01*
X234728941Y-111262402D01*
X234613977Y-111090345D01*
X234613975Y-111090343D01*
X234613970Y-111090337D01*
X234467662Y-110944029D01*
X234467656Y-110944024D01*
X234467655Y-110944023D01*
X234295598Y-110829059D01*
X234104420Y-110749870D01*
X233901467Y-110709500D01*
X233901465Y-110709500D01*
X233694535Y-110709500D01*
X233694532Y-110709500D01*
X233491579Y-110749870D01*
X233491574Y-110749872D01*
X233300402Y-110829059D01*
X233128343Y-110944024D01*
X233128337Y-110944029D01*
X232982029Y-111090337D01*
X232982024Y-111090343D01*
X232867059Y-111262402D01*
X232787872Y-111453574D01*
X232787870Y-111453579D01*
X232747500Y-111656532D01*
X232330000Y-111656532D01*
X232330000Y-110348641D01*
X232343302Y-110292292D01*
X232544372Y-109890151D01*
X232592727Y-109838167D01*
X232657070Y-109820500D01*
X233088105Y-109820500D01*
X233088121Y-109820501D01*
X233095839Y-109820501D01*
X233253952Y-109820501D01*
X233253953Y-109820501D01*
X233270784Y-109815990D01*
X233273778Y-109815189D01*
X233306388Y-109810896D01*
X233600000Y-109810896D01*
X236375405Y-107035491D01*
X236437717Y-107001465D01*
X236508532Y-107006530D01*
G37*
G04 #@! TD.AperFunction*
M02*
