M48
METRIC,TZ
T1C0.400
T2C0.900
T3C0.990
T4C1.000
T5C1.020
T6C1.200
T7C1.300
T8C3.000
T9C1.500
T10C1.600
T11C1.800
T12C4.000
%
G90
G05
T1
X59355Y-83945
X61133Y-96266
X62865Y-92975
X64435Y-83945
X64770Y-88855
X66640Y-91700
X67881Y-93581
X68142Y-84300
X68164Y-85851
X68265Y-87478
X69180Y-91700
X70785Y-82913
X73625Y-91700
X76500Y-84658
X80589Y-91800
X81579Y-84646
X82850Y-88265
X83185Y-91800
X85525Y-83409
X86661Y-84660
X89400Y-85818
X90067Y-84935
X90067Y-86827
X90805Y-91800
X91258Y-84067
X92050Y-97028
X95885Y-85818
X95885Y-86995
X95885Y-91800
X96766Y-78760
X99060Y-95885
X100750Y-79676
X100965Y-84039
X101079Y-88265
X101265Y-91775
X102256Y-79585
X103505Y-88265
X105830Y-79680
X106765Y-80770
X107315Y-87841
X109765Y-99695
X109772Y-88957
X110490Y-94756
X110880Y-99695
X112022Y-99695
X113150Y-99695
X113524Y-70485
X114600Y-99995
X116423Y-99695
X117226Y-100443
X118053Y-101148
X126365Y-79839
X128236Y-84624
X130773Y-83752
X130895Y-94825
X133152Y-83296
X133985Y-79839
X135292Y-100742
X135335Y-82762
X137633Y-87804
X139518Y-93185
X139878Y-87804
X140054Y-86106
X142415Y-93185
X142432Y-87804
X144959Y-87804
X145413Y-79453
X147955Y-100965
X148909Y-100965
X152723Y-87630
X153494Y-80264
X155240Y-104249
X155240Y-105203
X157761Y-85871
X161964Y-81170
X161964Y-82503
X165543Y-95189
X165760Y-96165
X166246Y-81404
X166367Y-78743
X166484Y-82503
X167640Y-82503
X168455Y-99939
X168912Y-85966
X169046Y-76147
X169331Y-104418
X169477Y-99939
X170180Y-105206
X171450Y-94175
X173355Y-81170
X174625Y-104202
X174788Y-100144
X175681Y-104202
X176195Y-84836
X176236Y-92736
X180729Y-100144
X181870Y-94825
X182338Y-92456
X183053Y-83566
X184289Y-92456
X184323Y-78446
X185593Y-74181
X186519Y-104511
X187325Y-83820
X187346Y-92710
X187770Y-106235
X188595Y-107315
X191135Y-83820
X193169Y-104110
X194365Y-102915
X201150Y-102915
X201555Y-104113
X203509Y-92710
X203835Y-83820
X211275Y-108124
X211946Y-112251
X212340Y-119380
X212581Y-111616
X214630Y-123080
X214630Y-123994
X216535Y-85725
X216535Y-91690
X216535Y-106172
X216896Y-115475
X219075Y-90170
X220345Y-128270
X220345Y-129540
X220980Y-106680
X220980Y-107950
X222423Y-115475
X222801Y-82820
X224166Y-119380
X225358Y-120490
X226060Y-91440
X226487Y-115475
X228519Y-115475
X229235Y-88265
T2
X63165Y-111340
X75165Y-111340
X81580Y-111340
X93580Y-111340
X99995Y-111340
X111995Y-111340
X118410Y-111340
X130410Y-111340
X136825Y-111340
X148825Y-111340
X155240Y-111340
X167240Y-111340
X173720Y-111340
X185720Y-111340
X192135Y-111340
X204135Y-111340
T3
X233345Y-120915
X233345Y-125415
T4
X63165Y-123540
X69215Y-109390
X75215Y-123590
X81580Y-123540
X87630Y-109390
X93630Y-123590
X99995Y-123540
X106045Y-109390
X112045Y-123590
X115477Y-86693
X118017Y-86693
X118410Y-123540
X120557Y-86693
X124460Y-109390
X130460Y-123590
X136825Y-123540
X142875Y-109390
X148875Y-123590
X155240Y-123540
X161290Y-109390
X167290Y-123590
X173720Y-123540
X179770Y-109390
X185770Y-123590
X192135Y-123540
X198185Y-109390
X204185Y-123590
T5
X186055Y-78150
X186055Y-95930
X188595Y-78150
X188595Y-95930
X191135Y-78150
X191135Y-95930
X193675Y-78150
X193675Y-95930
X196215Y-78150
X196215Y-95930
X198755Y-78150
X198755Y-95930
X201295Y-78150
X201295Y-95930
X203835Y-78150
X203835Y-95930
X206375Y-78150
X206375Y-95930
X208915Y-78150
X208915Y-95930
X211455Y-78150
X211455Y-95930
X213995Y-78150
X213995Y-95930
X216535Y-78150
X216535Y-95930
X219075Y-78150
X219075Y-95930
X221615Y-78150
X221615Y-95930
X224155Y-78150
X224155Y-95930
X226695Y-78150
X226695Y-95930
X229235Y-78150
X229235Y-95930
X231775Y-78150
X231775Y-95930
X234315Y-78150
X234315Y-95930
T6
X60110Y-63500
X60110Y-71120
X64135Y-132080
X64135Y-139700
X65190Y-63500
X65190Y-71120
X69215Y-132080
X69215Y-139700
X70270Y-63500
X70270Y-71120
X74295Y-132080
X74295Y-139700
X75350Y-63500
X75350Y-71120
X80430Y-63500
X80430Y-71120
X82550Y-132050
X82550Y-139670
X85510Y-63500
X85510Y-71120
X87630Y-132050
X87630Y-139670
X90590Y-63500
X90590Y-71120
X92710Y-132050
X92710Y-139670
X95670Y-63500
X95670Y-71120
X100750Y-63500
X100750Y-71120
X100965Y-132050
X100965Y-139670
X105830Y-63500
X105830Y-71120
X106045Y-132050
X106045Y-139670
X110910Y-63500
X110910Y-71120
X111125Y-132050
X111125Y-139670
X115990Y-63500
X115990Y-71120
X119380Y-132050
X119380Y-139670
X124460Y-63500
X124460Y-71120
X124460Y-132050
X124460Y-139670
X129540Y-63500
X129540Y-71120
X129540Y-132050
X129540Y-139670
X134620Y-63500
X134620Y-71120
X137795Y-132050
X137795Y-139670
X139700Y-63500
X139700Y-71120
X142875Y-132050
X142875Y-139670
X144780Y-63500
X144780Y-71120
X147955Y-132050
X147955Y-139670
X153035Y-63500
X153035Y-71120
X156210Y-132050
X156210Y-139670
X158115Y-63500
X158115Y-71120
X161290Y-132050
X161290Y-139670
X163195Y-63500
X163195Y-71120
X166370Y-132050
X166370Y-139670
X168275Y-63500
X168275Y-71120
X173355Y-63500
X173355Y-71120
X174690Y-132050
X174690Y-139670
X179770Y-132050
X179770Y-139670
X181610Y-63500
X181610Y-71120
X184850Y-132050
X184850Y-139670
X186690Y-63500
X186690Y-71120
X191770Y-63500
X191770Y-71120
X193105Y-132050
X193105Y-139670
X196850Y-63500
X196850Y-71120
X198185Y-132050
X198185Y-139670
X201930Y-63500
X201930Y-71120
X203265Y-132050
X203265Y-139670
X207010Y-63500
X207010Y-71120
X212390Y-132050
X212390Y-139670
X215265Y-63500
X215265Y-71120
X217470Y-132050
X217470Y-139670
X220345Y-63500
X220345Y-71120
X222550Y-132050
X222550Y-139670
X225425Y-63500
X225425Y-71120
X227630Y-132050
X227630Y-139670
X230505Y-63500
X230505Y-71120
T7
X230855Y-119665
X230855Y-126675
T8
X60371Y-76200
T9
X231155Y-84615
X231155Y-89465
T10
X233798Y-111760
T11
X234185Y-84315
X234185Y-89765
T12
X78371Y-106200
X182371Y-76200
X233371Y-136200
T4
G00X224798Y-112760
M15
G01X224798Y-110760
M16
G05
G00X230798Y-112410
M15
G01X230798Y-111110
M16
G05
G00X231048Y-107260
M15
G01X232548Y-107260
M16
G05
G00X231048Y-116260
M15
G01X232548Y-116260
M16
G05
M30
