G04 #@! TF.GenerationSoftware,KiCad,Pcbnew,8.0.4-8.0.4-0~ubuntu22.04.1*
G04 #@! TF.CreationDate,2024-08-18T17:22:59+12:00*
G04 #@! TF.ProjectId,PicoPLC,5069636f-504c-4432-9e6b-696361645f70,rev?*
G04 #@! TF.SameCoordinates,Original*
G04 #@! TF.FileFunction,Paste,Top*
G04 #@! TF.FilePolarity,Positive*
%FSLAX46Y46*%
G04 Gerber Fmt 4.6, Leading zero omitted, Abs format (unit mm)*
G04 Created by KiCad (PCBNEW 8.0.4-8.0.4-0~ubuntu22.04.1) date 2024-08-18 17:22:59*
%MOMM*%
%LPD*%
G01*
G04 APERTURE LIST*
G04 Aperture macros list*
%AMRoundRect*
0 Rectangle with rounded corners*
0 $1 Rounding radius*
0 $2 $3 $4 $5 $6 $7 $8 $9 X,Y pos of 4 corners*
0 Add a 4 corners polygon primitive as box body*
4,1,4,$2,$3,$4,$5,$6,$7,$8,$9,$2,$3,0*
0 Add four circle primitives for the rounded corners*
1,1,$1+$1,$2,$3*
1,1,$1+$1,$4,$5*
1,1,$1+$1,$6,$7*
1,1,$1+$1,$8,$9*
0 Add four rect primitives between the rounded corners*
20,1,$1+$1,$2,$3,$4,$5,0*
20,1,$1+$1,$4,$5,$6,$7,0*
20,1,$1+$1,$6,$7,$8,$9,0*
20,1,$1+$1,$8,$9,$2,$3,0*%
G04 Aperture macros list end*
%ADD10RoundRect,0.243750X-0.456250X0.243750X-0.456250X-0.243750X0.456250X-0.243750X0.456250X0.243750X0*%
%ADD11RoundRect,0.250000X-0.650000X0.325000X-0.650000X-0.325000X0.650000X-0.325000X0.650000X0.325000X0*%
%ADD12RoundRect,0.250000X-0.450000X0.262500X-0.450000X-0.262500X0.450000X-0.262500X0.450000X0.262500X0*%
%ADD13R,5.000000X1.800000*%
%ADD14RoundRect,0.225000X-0.375000X0.225000X-0.375000X-0.225000X0.375000X-0.225000X0.375000X0.225000X0*%
%ADD15RoundRect,0.250000X-0.475000X0.250000X-0.475000X-0.250000X0.475000X-0.250000X0.475000X0.250000X0*%
%ADD16RoundRect,0.250000X0.475000X-0.250000X0.475000X0.250000X-0.475000X0.250000X-0.475000X-0.250000X0*%
%ADD17RoundRect,0.250000X0.450000X-0.262500X0.450000X0.262500X-0.450000X0.262500X-0.450000X-0.262500X0*%
%ADD18RoundRect,0.167500X-0.167500X-0.312500X0.167500X-0.312500X0.167500X0.312500X-0.167500X0.312500X0*%
%ADD19RoundRect,0.062500X-0.362500X-0.062500X0.362500X-0.062500X0.362500X0.062500X-0.362500X0.062500X0*%
%ADD20RoundRect,0.250000X1.500000X0.550000X-1.500000X0.550000X-1.500000X-0.550000X1.500000X-0.550000X0*%
%ADD21R,4.800000X2.250000*%
%ADD22R,1.800000X2.500000*%
%ADD23RoundRect,0.250000X0.550000X-1.500000X0.550000X1.500000X-0.550000X1.500000X-0.550000X-1.500000X0*%
%ADD24RoundRect,0.250000X0.650000X-0.325000X0.650000X0.325000X-0.650000X0.325000X-0.650000X-0.325000X0*%
%ADD25RoundRect,0.243750X0.456250X-0.243750X0.456250X0.243750X-0.456250X0.243750X-0.456250X-0.243750X0*%
%ADD26RoundRect,0.100000X-0.712500X-0.100000X0.712500X-0.100000X0.712500X0.100000X-0.712500X0.100000X0*%
G04 APERTURE END LIST*
D10*
X106045000Y-101190000D03*
X106045000Y-103065000D03*
X233345000Y-103065000D03*
X233345000Y-101190000D03*
X85510000Y-76885000D03*
X85510000Y-78760000D03*
D11*
X180340000Y-91875000D03*
X180340000Y-94825000D03*
D12*
X81580000Y-101190000D03*
X81580000Y-103015000D03*
X138765000Y-85182500D03*
X138765000Y-87007500D03*
D10*
X69215000Y-101190000D03*
X69215000Y-103065000D03*
D13*
X158750000Y-77470000D03*
X158750000Y-81170000D03*
D12*
X111125000Y-85182500D03*
X111125000Y-87007500D03*
X133985000Y-76890000D03*
X133985000Y-78715000D03*
D14*
X113665000Y-76152500D03*
X113665000Y-79452500D03*
D15*
X154305000Y-85032500D03*
X154305000Y-86932500D03*
D12*
X64435000Y-85170000D03*
X64435000Y-86995000D03*
D10*
X95670000Y-76885000D03*
X95670000Y-78760000D03*
D12*
X83185000Y-76885000D03*
X83185000Y-78710000D03*
D10*
X105830000Y-76885000D03*
X105830000Y-78760000D03*
D16*
X171450000Y-103090000D03*
X171450000Y-101190000D03*
D14*
X146685000Y-76152500D03*
X146685000Y-79452500D03*
D17*
X221153000Y-105040000D03*
X221153000Y-103215000D03*
D16*
X119380000Y-103065000D03*
X119380000Y-101165000D03*
D17*
X80589154Y-94812500D03*
X80589154Y-92987500D03*
D12*
X111125000Y-76890000D03*
X111125000Y-78715000D03*
D10*
X124460000Y-101190000D03*
X124460000Y-103065000D03*
D12*
X75230000Y-85157500D03*
X75230000Y-86982500D03*
D15*
X212390000Y-125100000D03*
X212390000Y-127000000D03*
X217170000Y-125100000D03*
X217170000Y-127000000D03*
D10*
X90590000Y-76885000D03*
X90590000Y-78760000D03*
D17*
X90805000Y-94812500D03*
X90805000Y-92987500D03*
X95885000Y-94812500D03*
X95885000Y-92987500D03*
D12*
X173720000Y-101190000D03*
X173720000Y-103015000D03*
X121285000Y-76890000D03*
X121285000Y-78715000D03*
X66975000Y-101190000D03*
X66975000Y-103015000D03*
D14*
X93345000Y-92330000D03*
X93345000Y-95630000D03*
D17*
X167640000Y-86882500D03*
X167640000Y-85057500D03*
D18*
X114190000Y-101050000D03*
X114190000Y-102240000D03*
X115010000Y-101050000D03*
X115010000Y-102240000D03*
D19*
X113150000Y-100645000D03*
X113150000Y-101145000D03*
X113150000Y-101645000D03*
X113150000Y-102145000D03*
X113150000Y-102645000D03*
X116050000Y-102645000D03*
X116050000Y-102145000D03*
X116050000Y-101645000D03*
X116050000Y-101145000D03*
X116050000Y-100645000D03*
D20*
X215425000Y-110490000D03*
X210025000Y-110490000D03*
D21*
X133985000Y-97000000D03*
X133985000Y-93000000D03*
D12*
X148590000Y-85090000D03*
X148590000Y-86915000D03*
D17*
X180767000Y-81170000D03*
X180767000Y-79345000D03*
D12*
X128905000Y-76890000D03*
X128905000Y-78715000D03*
D11*
X65705000Y-75790000D03*
X65705000Y-78740000D03*
D10*
X198120000Y-101190000D03*
X198120000Y-103065000D03*
D17*
X100965000Y-87007500D03*
X100965000Y-85182500D03*
D14*
X123825000Y-76152500D03*
X123825000Y-79452500D03*
D12*
X77770000Y-85157500D03*
X77770000Y-86982500D03*
D22*
X220345000Y-113475000D03*
X220345000Y-117475000D03*
D17*
X151130000Y-86927500D03*
X151130000Y-85102500D03*
X66640000Y-94812500D03*
X66640000Y-92987500D03*
D10*
X87630000Y-101190000D03*
X87630000Y-103065000D03*
X80430000Y-76885000D03*
X80430000Y-78760000D03*
D12*
X134285000Y-85182500D03*
X134285000Y-87007500D03*
D10*
X142875000Y-101190000D03*
X142875000Y-103065000D03*
D12*
X80310000Y-85145000D03*
X80310000Y-86970000D03*
D11*
X110490000Y-93000000D03*
X110490000Y-95950000D03*
D14*
X85725000Y-92330000D03*
X85725000Y-95630000D03*
D23*
X140970000Y-98585000D03*
X140970000Y-93185000D03*
D16*
X170180000Y-78742500D03*
X170180000Y-76842500D03*
D12*
X126965000Y-85182500D03*
X126965000Y-87007500D03*
X151765000Y-76890000D03*
X151765000Y-78715000D03*
X92710000Y-76885000D03*
X92710000Y-78710000D03*
X167640000Y-76917500D03*
X167640000Y-78742500D03*
D14*
X64435000Y-92330000D03*
X64435000Y-95630000D03*
D12*
X73025000Y-76885000D03*
X73025000Y-78710000D03*
D10*
X75350000Y-76885000D03*
X75350000Y-78760000D03*
D14*
X59355000Y-92330000D03*
X59355000Y-95630000D03*
D12*
X141305000Y-85182500D03*
X141305000Y-87007500D03*
D20*
X215425000Y-119380000D03*
X210025000Y-119380000D03*
D10*
X172720000Y-84995000D03*
X172720000Y-86870000D03*
D17*
X156845000Y-86945000D03*
X156845000Y-85120000D03*
X163195000Y-78755000D03*
X163195000Y-76930000D03*
D14*
X131445000Y-76152500D03*
X131445000Y-79452500D03*
D15*
X129540000Y-92925000D03*
X129540000Y-94825000D03*
D10*
X177800000Y-93025000D03*
X177800000Y-94900000D03*
D18*
X70375000Y-85222500D03*
X70375000Y-86412500D03*
X71195000Y-85222500D03*
X71195000Y-86412500D03*
D19*
X69335000Y-84817500D03*
X69335000Y-85317500D03*
X69335000Y-85817500D03*
X69335000Y-86317500D03*
X69335000Y-86817500D03*
X72235000Y-86817500D03*
X72235000Y-86317500D03*
X72235000Y-85817500D03*
X72235000Y-85317500D03*
X72235000Y-84817500D03*
D12*
X149225000Y-76890000D03*
X149225000Y-78715000D03*
X129505000Y-85182500D03*
X129505000Y-87007500D03*
X87930000Y-85170000D03*
X87930000Y-86995000D03*
D10*
X179770000Y-101190000D03*
X179770000Y-103065000D03*
D12*
X216535000Y-103202500D03*
X216535000Y-105027500D03*
X98217000Y-76885000D03*
X98217000Y-78710000D03*
D14*
X144145000Y-76152500D03*
X144145000Y-79452500D03*
D16*
X101265000Y-94825000D03*
X101265000Y-92925000D03*
D18*
X92300000Y-85222500D03*
X92300000Y-86412500D03*
X93120000Y-85222500D03*
X93120000Y-86412500D03*
D19*
X91260000Y-84817500D03*
X91260000Y-85317500D03*
X91260000Y-85817500D03*
X91260000Y-86317500D03*
X91260000Y-86817500D03*
X94160000Y-86817500D03*
X94160000Y-86317500D03*
X94160000Y-85817500D03*
X94160000Y-85317500D03*
X94160000Y-84817500D03*
D12*
X126365000Y-76890000D03*
X126365000Y-78715000D03*
X155240000Y-101190000D03*
X155240000Y-103015000D03*
X192135000Y-101190000D03*
X192135000Y-103015000D03*
X78105000Y-76885000D03*
X78105000Y-78710000D03*
D10*
X70270000Y-76885000D03*
X70270000Y-78760000D03*
D12*
X136825000Y-101190000D03*
X136825000Y-103015000D03*
D10*
X219075000Y-103065000D03*
X219075000Y-101190000D03*
D14*
X71420000Y-92330000D03*
X71420000Y-95630000D03*
D10*
X226060000Y-103065000D03*
X226060000Y-101190000D03*
X100750000Y-76885000D03*
X100750000Y-78760000D03*
D12*
X103297000Y-76885000D03*
X103297000Y-78710000D03*
D14*
X75865000Y-92330000D03*
X75865000Y-95630000D03*
D12*
X118745000Y-76890000D03*
X118745000Y-78715000D03*
D14*
X210185000Y-102127500D03*
X210185000Y-105427500D03*
D22*
X224790000Y-126365000D03*
X224790000Y-122365000D03*
D15*
X202565000Y-103177500D03*
X202565000Y-105077500D03*
D13*
X176641500Y-81170000D03*
X176641500Y-77470000D03*
D14*
X78384154Y-92330000D03*
X78384154Y-95630000D03*
D18*
X166595000Y-101050000D03*
X166595000Y-102240000D03*
X167415000Y-101050000D03*
X167415000Y-102240000D03*
D19*
X165555000Y-100645000D03*
X165555000Y-101145000D03*
X165555000Y-101645000D03*
X165555000Y-102145000D03*
X165555000Y-102645000D03*
X168455000Y-102645000D03*
X168455000Y-102145000D03*
X168455000Y-101645000D03*
X168455000Y-101145000D03*
X168455000Y-100645000D03*
D12*
X108585000Y-76885000D03*
X108585000Y-78710000D03*
X108585000Y-85182500D03*
X108585000Y-87007500D03*
D24*
X219112500Y-110490000D03*
X219112500Y-107540000D03*
D12*
X141605000Y-76890000D03*
X141605000Y-78715000D03*
X143845000Y-85182500D03*
X143845000Y-87007500D03*
X88265000Y-76885000D03*
X88265000Y-78710000D03*
D15*
X183053000Y-81170000D03*
X183053000Y-79270000D03*
D12*
X98425000Y-85182500D03*
X98425000Y-87007500D03*
D11*
X205105000Y-102127500D03*
X205105000Y-105077500D03*
D12*
X106045000Y-85182500D03*
X106045000Y-87007500D03*
X122220000Y-101240000D03*
X122220000Y-103065000D03*
X82850000Y-85157500D03*
X82850000Y-86982500D03*
D14*
X116205000Y-76152500D03*
X116205000Y-79452500D03*
D17*
X69180000Y-94812500D03*
X69180000Y-92987500D03*
D12*
X132045000Y-85182500D03*
X132045000Y-87007500D03*
X136525000Y-85182500D03*
X136525000Y-87007500D03*
X59355000Y-85170000D03*
X59355000Y-86995000D03*
D17*
X172720000Y-78740000D03*
X172720000Y-76915000D03*
D10*
X161290000Y-101190000D03*
X161290000Y-103065000D03*
D14*
X90805000Y-99765000D03*
X90805000Y-103065000D03*
D17*
X61560000Y-94812500D03*
X61560000Y-92987500D03*
D14*
X154305000Y-76152500D03*
X154305000Y-79452500D03*
D12*
X99995000Y-101190000D03*
X99995000Y-103015000D03*
D10*
X127000000Y-92925000D03*
X127000000Y-94800000D03*
D25*
X214630000Y-127000000D03*
X214630000Y-125125000D03*
D21*
X106045000Y-93000000D03*
X106045000Y-97000000D03*
D10*
X146050000Y-85120000D03*
X146050000Y-86995000D03*
D25*
X207645000Y-105077500D03*
X207645000Y-103202500D03*
D12*
X85390000Y-85157500D03*
X85390000Y-86982500D03*
D14*
X136525000Y-76152500D03*
X136525000Y-79452500D03*
D26*
X160447500Y-85046285D03*
X160447500Y-85696285D03*
X160447500Y-86346285D03*
X160447500Y-86996285D03*
X164672500Y-86996285D03*
X164672500Y-86346285D03*
X164672500Y-85696285D03*
X164672500Y-85046285D03*
D12*
X139065000Y-76890000D03*
X139065000Y-78715000D03*
D10*
X223520000Y-103152500D03*
X223520000Y-105027500D03*
D15*
X170180000Y-84970000D03*
X170180000Y-86870000D03*
D14*
X88265000Y-92330000D03*
X88265000Y-95630000D03*
D22*
X220345000Y-126365000D03*
X220345000Y-122365000D03*
D12*
X229870000Y-103227500D03*
X229870000Y-105052500D03*
D17*
X73625000Y-94812500D03*
X73625000Y-92987500D03*
X83185000Y-94812500D03*
X83185000Y-92987500D03*
D10*
X67991000Y-73484500D03*
X67991000Y-75359500D03*
D15*
X67991000Y-76860000D03*
X67991000Y-78760000D03*
D12*
X103505000Y-85182500D03*
X103505000Y-87007500D03*
D17*
X61895000Y-87007500D03*
X61895000Y-85182500D03*
D12*
X66975000Y-85157500D03*
X66975000Y-86982500D03*
M02*
